<?xml version="1.0" encoding="utf-8"?>
<!-- Generator: Adobe Illustrator 25.4.1, SVG Export Plug-In . SVG Version: 6.00 Build 0)  -->
<svg version="1.1" id="Capa_1" xmlns="http://www.w3.org/2000/svg" xmlns:xlink="http://www.w3.org/1999/xlink" x="0px" y="0px"
	 viewBox="0 0 881 881" style="enable-background:new 0 0 881 881;" xml:space="preserve">
<style type="text/css">
	.st0{fill:#FFFFFF;}
</style>
<g>
	<path d="M444.3,571.3c-1.2,0-2.5-0.1-3.8-0.2c-1.3,0.1-2.6,0.2-3.8,0.2c-25.5,0-60.9-7.9-70.4-10.1c-2.5,0.1-5,0.2-7.4,0.2
		c-39.8,0-63.1-19.4-74.6-33.2l-7.2,4.1c-1.3,0.7-2.6,1.2-4,1.6c-0.5,0.1-11.8,2.8-23.4,4.1c-9.5,1.1-17.9,0.2-25.4-0.5
		c-2.6-0.3-5.1-0.5-7.5-0.7c-4.2-0.3-9.5,0.7-15.5,1.7c-4,0.7-8.4,1.5-13.2,2c-15.5,1.7-59.6-5-85.4-10.5
		c-25.2-5.4-50.9-19.5-64.7-27.1c-2.8-1.5-6-3.3-6.9-3.7c-15-6-31.2-13.7-31.2-28.1c0-12.8,6.8-23,17.4-26.1
		c0.4-0.1,1.2-0.3,2.2-0.6c28.7-7.8,57.6-17.4,86-28.4c38.3-14.8,115-28,151.9-34.4c6.8-1.2,13.8-2.4,16.6-2.9
		c3.5-2.3,12.4-10.5,19-16.5c4.5-4.1,9.1-8.3,13.8-12.5c15-13.2,31.4-18,38.8-19.6c14.1-8.9,43.4-21.5,94.7-20.4
		c51.3-1.2,80.6,11.5,94.7,20.4c7.4,1.6,23.8,6.4,38.8,19.6c4.7,4.2,9.4,8.4,13.9,12.5c6.6,6,15.5,14.2,19,16.5
		c2.8,0.6,9.8,1.8,16.6,2.9c36.9,6.4,113.6,19.6,151.9,34.4c28.4,11,57.4,20.5,86,28.4c1,0.3,1.8,0.5,2.2,0.6
		c10.6,3,17.4,13.2,17.4,26.1c0,14.4-16.1,22.1-31.3,28.1c-0.9,0.4-4,2.1-6.8,3.7c-13.8,7.6-39.6,21.8-64.7,27.1
		c-25.8,5.5-69.9,12.2-85.4,10.5c-4.7-0.5-9.2-1.3-13.2-2c-6.1-1.1-11.3-2-15.5-1.7c-2.4,0.2-4.8,0.4-7.5,0.7
		c-7.4,0.8-15.9,1.6-25.4,0.5c-11.6-1.4-23-4-23.4-4.1c-1.4-0.3-2.7-0.9-4-1.6l-7.2-4.1c-12.2,14.6-37.6,35.6-82,33
		C505.2,563.4,469.8,571.3,444.3,571.3z M440.5,540.8c0.7,0,1.4,0,2.1,0.1c0.7,0.1,1.3,0.2,1.8,0.2c25.3,0,65.1-9.7,65.5-9.8
		c1.6-0.4,3.2-0.5,4.8-0.4c45.9,3.5,62.8-27.2,63.9-29.3c1.8-3.8,5-6.6,9-7.9c4-1.3,8.4-0.7,12,1.4l17.2,9.8
		c3.5,0.7,10.8,2.2,18,3.1c6.2,0.7,12.3,0.1,18.7-0.6c2.8-0.3,5.6-0.6,8.6-0.8c7.9-0.5,15.5,0.8,22.9,2.1c3.7,0.7,7.4,1.3,11.2,1.7
		c8.5,0.9,45.2-3.5,75.8-10c20.8-4.4,44-17.2,56.4-24.1c4.9-2.7,7.8-4.3,10.2-5.3c0.9-0.3,1.7-0.7,2.5-1
		c-25.6-7.4-51.2-16.1-76.5-25.8c-35.5-13.7-113-27.1-146.1-32.8c-16.1-2.8-19.2-3.3-21.4-4.1c-6.8-2.3-14.4-9-29.5-22.9
		c-4.4-4-8.9-8.1-13.4-12.1c-12.2-10.8-26.5-13-26.6-13c-2.3-0.3-4.6-1.2-6.5-2.5c-6.2-4.3-30.2-18.1-79.9-16.9c-0.2,0-0.5,0-0.7,0
		c-12.6-0.3-55.5,0-79.9,16.9c-1.9,1.3-4.2,2.2-6.5,2.5c0,0-14.5,2.3-26.6,13c-4.5,4-9,8.1-13.4,12.1
		c-15.1,13.8-22.7,20.6-29.5,22.9c-2.2,0.7-5.3,1.3-21.4,4.1c-33.1,5.7-110.6,19.1-146.1,32.8c-25.3,9.8-51,18.4-76.5,25.8
		c0.8,0.3,1.6,0.7,2.5,1c2.4,0.9,5.3,2.6,10.2,5.3c12.5,6.9,35.6,19.6,56.4,24.1c30.6,6.5,67.3,10.9,75.8,10
		c3.7-0.4,7.5-1.1,11.2-1.7c7.3-1.3,14.9-2.7,22.9-2.1c2.9,0.2,5.8,0.5,8.6,0.8c6.4,0.7,12.5,1.3,18.7,0.6c7.2-0.8,14.6-2.3,18-3.1
		l17.2-9.8c3.7-2.1,8-2.7,12-1.4c4,1.3,7.2,4.1,9,7.9c1.1,2.1,18,32.8,63.9,29.3c1.6-0.1,3.2,0,4.8,0.4c0.4,0.1,40.2,9.8,65.5,9.8
		c0.5,0,1,0,1.8-0.2C439.1,540.8,439.8,540.8,440.5,540.8z M855.3,474.2L855.3,474.2L855.3,474.2z"/>
	<path class="st0" d="M859.5,459.6c-4.5-1.3-41.6-10.9-89.6-29.4c-48-18.5-162.5-35.2-168.2-37.1c-5.8-1.9-21.7-17.9-37.7-32
		c-16-14.1-34.5-16.6-34.5-16.6c-27.3-18.9-70.8-20-88.9-19.6c-18.1-0.4-61.6,0.7-88.9,19.6c0,0-18.5,2.6-34.5,16.6
		c-16,14.1-32,30.1-37.7,32c-5.8,1.9-120.3,18.5-168.2,37.1c-48,18.5-85.1,28.1-89.6,29.4c-4.5,1.3-6.4,6.4-6.4,11.5
		s15.4,11.5,21.7,14.1c6.4,2.6,39,23.7,69.1,30.1c30.1,6.4,69.1,11.5,80.6,10.2c11.5-1.3,21.7-4.5,31.3-3.8
		c9.6,0.6,19.2,2.6,30.1,1.3c10.9-1.3,21.7-3.8,21.7-3.8l19.2-10.9c0,0,20.5,42.2,78.7,37.7c0,0,41.6,10.2,69.1,10.2
		c1.3,0,2.6-0.1,3.8-0.3c1.3,0.2,2.5,0.3,3.8,0.3c27.5,0,69.1-10.2,69.1-10.2c58.2,4.5,78.7-37.7,78.7-37.7l19.2,10.9
		c0,0,10.9,2.6,21.7,3.8c10.9,1.3,20.5-0.6,30.1-1.3c9.6-0.6,19.8,2.6,31.3,3.8c11.5,1.3,50.5-3.8,80.6-10.2
		c30.1-6.4,62.7-27.5,69.1-30.1c6.4-2.6,21.7-9,21.7-14.1S863.9,460.9,859.5,459.6z"/>
	<path d="M606.2,478.8l-5.8,15.4c0,0,20.5,14.7,31.3,15.4c10.9,0.6,43.5,0,52.5,1.9c9,1.9,60.8-1.9,73.6-7.7
		c12.8-5.8,90.2-22.4,78-32.6c-12.2-10.2-56.9-19.2-67.8-24.3c-10.9-5.1-69.7-19.2-94-12.8c-24.3,6.4-40.9,10.2-43.5,17.3
		c-2.6,7-7.7,14.7-12.2,18.5C613.8,473.7,608.7,471.1,606.2,478.8z"/>
	<path d="M265.9,478.8l5.8,15.4c0,0-20.5,14.7-31.3,15.4c-10.9,0.6-43.5,0-52.5,1.9s-60.8-1.9-73.6-7.7c-12.8-5.8-90.2-22.4-78-32.6
		c12.2-10.2,56.9-19.2,67.8-24.3s69.7-19.2,94-12.8c24.3,6.4,40.9,10.2,43.5,17.3c2.6,7,7.7,14.7,12.2,18.5
		C258.2,473.7,263.3,471.1,265.9,478.8z"/>
	<path d="M565.2,446.2c0,0-16-28.1-39.7-28.1c-23.7,0-44.1,30.1-46.1,39c0,0,17.9,14.7,42.9,14.7
		C547.3,471.8,565.2,446.2,565.2,446.2z"/>
	<path d="M323.9,446.2c0,0,16-28.1,39.7-28.1s44.1,30.1,46.1,39c0,0-17.9,14.7-42.9,14.7C341.8,471.8,323.9,446.2,323.9,446.2z"/>
	<path d="M507.4,508.4c-0.8-2.2-3.4-1.5-4.7-1.2c-1,0.2-1.6,1.1-1.6,2c-0.4,0.2-0.8,0.4-1.2,0.6c-5.4,2.5-18.6-5-25.7-9
		c-3.1-1.7-5.3-3-6.7-3.5c-3.2-1.1-7.8-0.5-12.6,0.1c-3,0.4-6.2,0.8-9.2,0.8c-0.2,0-0.3,0-0.4,0c-0.1,0-0.3,0-0.4,0
		c-3,0-6.1-0.4-9.2-0.8c-4.8-0.6-9.3-1.1-12.6-0.1c-1.4,0.5-3.6,1.7-6.7,3.5c-7.1,4-20.3,11.5-25.7,9c-0.5-0.2-0.9-0.4-1.2-0.6
		c0-0.9-0.7-1.8-1.6-2c-1.3-0.3-3.9-1-4.7,1.2c-0.8,2.3,1.5,3.4,5.7,5.3c1.3,0.6,2.8,0.9,4.4,0.9c7.6,0,18-5.9,25.3-10
		c2.5-1.4,4.9-2.8,5.9-3.1c2.3-0.8,6.4-0.3,10.7,0.2c3.2,0.4,6.5,0.8,9.7,0.8c0.2,0,0.3,0,0.4,0c0.1,0,0.3,0,0.4,0
		c3.2,0,6.5-0.4,9.7-0.8c4.3-0.5,8.3-1,10.7-0.2c1,0.3,3.4,1.7,5.9,3.1c7.3,4.1,17.7,10,25.3,10c1.6,0,3.1-0.3,4.4-0.9
		C505.9,511.7,508.2,510.7,507.4,508.4z"/>
	<ellipse cx="456.2" cy="471.5" rx="4" ry="1.9"/>
	<ellipse cx="434.5" cy="471.5" rx="4" ry="1.9"/>
</g>
</svg>
