<svg id="baby_joda" xmlns="http://www.w3.org/2000/svg" xmlns:xlink="http://www.w3.org/1999/xlink" x="0px" y="0px"
	 viewBox="0 0 881 881" style="enable-background:new 0 0 881 881;" xml:space="preserve">

<defs>
<style type="text/css">
	.st0{fill:#FFFFFF}
	#baby_joda:hover #negro { fill: red; }
</style>

	<script>
		let theBabyJoda = document.querySelector("#baby_joda");

		function logMyId() {
		console.log("clicked on an element:", this.id); }

		theBabyJoda.addEventListener("click", logMyId);
	</script>
</defs>

<path id="blanco" class="st0" d="M880.8,471.1c0,14.4-16.1,22.1-31.3,28.1c-0.9,0.4-4,2.1-6.8,3.7c-13.8,7.6-39.6,21.8-64.7,27.1
	c-25.8,5.5-69.9,12.2-85.4,10.5c-4.7-0.5-9.2-1.3-13.2-2c-6.1-1.1-11.3-2-15.5-1.7c-2.4,0.2-4.8,0.4-7.5,0.7
	c-7.4,0.8-15.9,1.6-25.4,0.5c-11.6-1.4-23-4-23.4-4.1c-1.4-0.3-2.7-0.9-4-1.6l-7.2-4.1c-12.2,14.6-37.6,35.6-82,33
	c-9.2,2.2-44.6,10.1-70.1,10.1c-1.2,0-2.5-0.1-3.8-0.2c-1.3,0.1-2.6,0.2-3.8,0.2c-25.5,0-60.9-7.9-70.4-10.1c-2.5,0.1-5,0.2-7.4,0.2
	c-39.8,0-63.1-19.4-74.6-33.2l-7.2,4.1c-1.3,0.7-2.6,1.2-4,1.6c-0.5,0.1-11.8,2.8-23.4,4.1c-9.5,1.1-17.9,0.2-25.4-0.5
	c-2.6-0.3-5.1-0.5-7.5-0.7c-4.2-0.3-9.5,0.7-15.5,1.7c-4,0.7-8.4,1.5-13.2,2c-15.5,1.7-59.6-5-85.4-10.5
	c-25.2-5.4-50.9-19.5-64.7-27.1c-2.8-1.5-6-3.3-6.9-3.7c-15-6-31.2-13.7-31.2-28.1c0-12.8,6.8-23,17.4-26.1c0.4-0.1,1.2-0.3,2.2-0.6
	c28.7-7.8,57.6-17.4,86-28.4c38.3-14.8,115-28,151.9-34.4c6.8-1.2,13.8-2.4,16.6-2.9c3.5-2.3,12.4-10.5,19-16.5
	c4.5-4.1,9.1-8.3,13.8-12.5c15-13.2,31.4-18,38.8-19.6c14.1-8.9,43.4-21.5,94.7-20.4c51.3-1.2,80.6,11.5,94.7,20.4
	c7.4,1.6,23.8,6.4,38.8,19.6c4.7,4.2,9.4,8.4,13.9,12.5c6.6,6,15.5,14.2,19,16.5c2.8,0.6,9.8,1.8,16.6,2.9
	c36.9,6.4,113.6,19.6,151.9,34.4c28.4,11,57.4,20.5,86,28.4c1,0.3,1.8,0.5,2.2,0.6C874,448,880.8,458.2,880.8,471.1z"/>
<path id="negro" d="M409.7,457.1c0,0-17.9,14.7-42.9,14.7s-42.9-25.6-42.9-25.6s16-28.1,39.7-28.1S407.7,448.2,409.7,457.1z
	 M434.5,473.4c2.2,0,4-0.9,4-1.9s-1.8-1.9-4-1.9s-4,0.9-4,1.9S432.3,473.4,434.5,473.4z M253.8,469.9c-4.5-3.8-9.6-11.5-12.2-18.5
	c-2.6-7.1-19.2-10.9-43.5-17.3s-83.1,7.7-94,12.8C93.2,452,48.5,461,36.3,471.2s65.2,26.8,78,32.6c12.8,5.8,64.6,9.6,73.6,7.7
	s41.6-1.3,52.5-1.9c10.8-0.7,31.3-15.4,31.3-15.4l-5.8-15.4C263.3,471.1,258.2,473.7,253.8,469.9z M456.2,473.4c2.2,0,4-0.9,4-1.9
	s-1.8-1.9-4-1.9s-4,0.9-4,1.9S454,473.4,456.2,473.4z M502.7,507.2c-1,0.2-1.6,1.1-1.6,2c-0.4,0.2-0.8,0.4-1.2,0.6
	c-5.4,2.5-18.6-5-25.7-9c-3.1-1.7-5.3-3-6.7-3.5c-3.2-1.1-7.8-0.5-12.6,0.1c-3,0.4-6.2,0.8-9.2,0.8c-0.2,0-0.3,0-0.4,0s-0.3,0-0.4,0
	c-3,0-6.1-0.4-9.2-0.8c-4.8-0.6-9.3-1.1-12.6-0.1c-1.4,0.5-3.6,1.7-6.7,3.5c-7.1,4-20.3,11.5-25.7,9c-0.5-0.2-0.9-0.4-1.2-0.6
	c0-0.9-0.7-1.8-1.6-2c-1.3-0.3-3.9-1-4.7,1.2c-0.8,2.3,1.5,3.4,5.7,5.3c1.3,0.6,2.8,0.9,4.4,0.9c7.6,0,18-5.9,25.3-10
	c2.5-1.4,4.9-2.8,5.9-3.1c2.3-0.8,6.4-0.3,10.7,0.2c3.2,0.4,6.5,0.8,9.7,0.8c0.2,0,0.3,0,0.4,0s0.3,0,0.4,0c3.2,0,6.5-0.4,9.7-0.8
	c4.3-0.5,8.3-1,10.7-0.2c1,0.3,3.4,1.7,5.9,3.1c7.3,4.1,17.7,10,25.3,10c1.6,0,3.1-0.3,4.4-0.9c4.2-2,6.5-3,5.7-5.3
	C506.6,506.2,504,506.9,502.7,507.2z M525.5,418.1c-23.7,0-44.1,30.1-46.1,39c0,0,17.9,14.7,42.9,14.7s42.9-25.6,42.9-25.6
	S549.2,418.1,525.5,418.1z M835.8,471.2C823.6,461,778.9,452,768,446.9s-69.7-19.2-94-12.8c-24.3,6.4-40.9,10.2-43.5,17.3
	c-2.6,7-7.7,14.7-12.2,18.5s-9.6,1.2-12.1,8.9l-5.8,15.4c0,0,20.5,14.7,31.3,15.4c10.9,0.6,43.5,0,52.5,1.9s60.8-1.9,73.6-7.7
	C770.6,498,848,481.4,835.8,471.2z M880.8,471.1c0,14.4-16.1,22.1-31.3,28.1c-0.9,0.4-4,2.1-6.8,3.7c-13.8,7.6-39.6,21.8-64.7,27.1
	c-25.8,5.5-69.9,12.2-85.4,10.5c-4.7-0.5-9.2-1.3-13.2-2c-6.1-1.1-11.3-2-15.5-1.7c-2.4,0.2-4.8,0.4-7.5,0.7
	c-7.4,0.8-15.9,1.6-25.4,0.5c-11.6-1.4-23-4-23.4-4.1c-1.4-0.3-2.7-0.9-4-1.6l-7.2-4.1c-12.2,14.6-37.6,35.6-82,33
	c-9.2,2.2-44.6,10.1-70.1,10.1c-1.2,0-2.5-0.1-3.8-0.2c-1.3,0.1-2.6,0.2-3.8,0.2c-25.5,0-60.9-7.9-70.4-10.1c-2.5,0.1-5,0.2-7.4,0.2
	c-39.8,0-63.1-19.4-74.6-33.2l-7.2,4.1c-1.3,0.7-2.6,1.2-4,1.6c-0.5,0.1-11.8,2.8-23.4,4.1c-9.5,1.1-17.9,0.2-25.4-0.5
	c-2.6-0.3-5.1-0.5-7.5-0.7c-4.2-0.3-9.5,0.7-15.5,1.7c-4,0.7-8.4,1.5-13.2,2c-15.5,1.7-59.6-5-85.4-10.5
	c-25.2-5.4-50.9-19.5-64.7-27.1c-2.8-1.5-6-3.3-6.9-3.7c-15-6-31.2-13.7-31.2-28.1c0-12.8,6.8-23,17.4-26.1c0.4-0.1,1.2-0.3,2.2-0.6
	c28.7-7.8,57.6-17.4,86-28.4c38.3-14.8,115-28,151.9-34.4c6.8-1.2,13.8-2.4,16.6-2.9c3.5-2.3,12.4-10.5,19-16.5
	c4.5-4.1,9.1-8.3,13.8-12.5c15-13.2,31.4-18,38.8-19.6c14.1-8.9,43.4-21.5,94.7-20.4c51.3-1.2,80.6,11.5,94.7,20.4
	c7.4,1.6,23.8,6.4,38.8,19.6c4.7,4.2,9.4,8.4,13.9,12.5c6.6,6,15.5,14.2,19,16.5c2.8,0.6,9.8,1.8,16.6,2.9
	c36.9,6.4,113.6,19.6,151.9,34.4c28.4,11,57.4,20.5,86,28.4c1,0.3,1.8,0.5,2.2,0.6C874,448,880.8,458.2,880.8,471.1z M865.9,471.1
	c0-5.1-2-10.2-6.4-11.5c-4.5-1.3-41.6-10.9-89.6-29.4S607.4,395,601.7,393.1c-5.8-1.9-21.7-17.9-37.7-32s-34.5-16.6-34.5-16.6
	c-27.3-18.9-70.8-20-88.9-19.6c-18.1-0.4-61.6,0.7-88.9,19.6c0,0-18.5,2.6-34.5,16.6c-16,14.1-32,30.1-37.7,32
	c-5.8,1.9-120.3,18.5-168.2,37.1c-48,18.5-85.1,28.1-89.6,29.4s-6.4,6.4-6.4,11.5s15.4,11.5,21.7,14.1c6.4,2.6,39,23.7,69.1,30.1
	c30.1,6.4,69.1,11.5,80.6,10.2s21.7-4.5,31.3-3.8c9.6,0.6,19.2,2.6,30.1,1.3s21.7-3.8,21.7-3.8l19.2-10.9c0,0,20.5,42.2,78.7,37.7
	c0,0,41.6,10.2,69.1,10.2c1.3,0,2.6-0.1,3.8-0.3c1.3,0.2,2.5,0.3,3.8,0.3c27.5,0,69.1-10.2,69.1-10.2c58.2,4.5,78.7-37.7,78.7-37.7
	l19.2,10.9c0,0,10.9,2.6,21.7,3.8c10.9,1.3,20.5-0.6,30.1-1.3c9.6-0.6,19.8,2.6,31.3,3.8c11.5,1.3,50.5-3.8,80.6-10.2
	s62.7-27.5,69.1-30.1C850.6,482.6,865.9,476.2,865.9,471.1z"/>
</svg>
