<?xml version="1.0" encoding="utf-8"?>
<!-- Generator: Adobe Illustrator 25.4.1, SVG Export Plug-In . SVG Version: 6.00 Build 0)  -->
<svg version="1.1" id="Capa_1" xmlns="http://www.w3.org/2000/svg" xmlns:xlink="http://www.w3.org/1999/xlink" x="0px" y="0px"
	 viewBox="0 0 881 881" style="enable-background:new 0 0 881 881;" xml:space="preserve">
<style type="text/css">
	.st0{fill:#FFFFFF;}
</style>
<g>
	<g>
		<path d="M734,741.4l-13.9-264.9c-0.2-4.3-1.7-8.3-4.1-11.7l-23.9-34.1c-2.2-3-5-5.6-8.3-7.2l-0.6-0.2
			c-3.1-75.8-31.5-134.1-84.3-173.2c-44.5-33.2-96.3-44.5-132.1-48.2c-6.3-0.9-13-1.5-19.6-1.5c-1.1,0-3.3,0-6.7,0
			c-3.1,0-5.4,0-6.7,0c-6.7,0-13.3,0.6-19.8,1.5c-35.6,3.7-87.4,15-132.1,48.2c-20.7,15.4-37.8,33.9-50.9,55.2V114.9
			c40-16.3,89.5-32,104.3-30.9c12,1.1,22.6-7.6,24.1-19.6l3.7-30.2c0.7-6.1-1.1-12.2-5-17s-9.6-7.8-15.7-8.1l-128.5-9
			c-1.9-0.2-3.7,0-5.6,0.4l-35.2,6.3c-9.4,1.7-16.9,9.3-18.3,18.7c0,0.6-2.2,14.6-1.5,31.1c0.9,20,5.6,36.1,13.9,47.4v357.5
			l-2.2,3.1c-2.4,3.5-3.9,7.6-4.1,11.7L147,741.4c-0.4,6.1,1.9,12.2,6.1,16.7l25.4,26.5c1.7,1.7,3.3,3.1,5.4,4.3l162.6,89.5
			c3.3,1.9,7,2.8,10.7,2.8h26.5c5.9,0,11.9-2.4,16.1-6.9c4.3-4.3,6.5-10.2,6.3-16.3l-7.6-316.5c-0.2-9.8-6.7-18.2-16.1-20.9
			c-0.4-0.2-27-8.1-59.3-18.7c33.7,1.7,62.4,3,85.6,3.7c5.6,0.6,11.7,0.9,17.8,0.9c4.1,0,8.9,0,13.9-0.2c5,0,9.8,0.2,13.9,0.2
			c6.3,0,12.2-0.4,17.8-0.9c23-0.7,51.7-2,85.6-3.7c-32.2,10.6-59.1,18.5-59.3,18.7c-9.4,2.8-15.7,11.3-16.1,20.9L474.9,858
			c-0.2,5.9,2.2,11.9,6.3,16.3c4.3,4.3,10,6.9,16.1,6.9h26.5c3.7,0,7.6-0.9,10.7-2.8l162.6-89.5c2-1.1,3.9-2.6,5.4-4.3l25.2-26.5
			C732.1,753.6,734.4,747.5,734,741.4z M688.8,734l-16.1,17l-152.3,83.7l6.7-276c31.7-9.8,103.4-32.6,142.4-50.6
			c2.8-1.3,5.2-3.1,7.2-5.4L688.8,734z M208.5,73.3c-2.4,0-4.6,0.4-7,1.1c-2.4-5.7-3.7-15.4-3.5-26.5l15.6-2.8l66.5,4.6
			c-26.7,8-53.3,18.5-65.9,23.5h-5.7V73.3z M208.5,515.2c4.3,0,8.1-1.1,11.7-3.3c40.4,17.4,105,38,133.9,46.9l6.7,276L208.5,751
			l-16.1-17l11.5-218.8H208.5L208.5,515.2z M644.3,452.2c-32.6,1.9-115.6,6.5-174.7,8.3c-0.7,0-1.3,0-2,0.2
			c-4.1,0.6-8.5,0.7-13.3,0.7c-4.1,0-8.5,0-13.5-0.2h-0.4H440c-5,0-9.4,0.2-13.5,0.2c-4.8,0-9.3-0.2-13.3-0.7c-0.7,0-1.3-0.2-2-0.2
			c-59.1-2-143.2-6.7-174.7-8.3c3.5-4.1,5.6-9.3,5.6-14.8c0-67.8,22.4-118.5,66.3-151.1c36.7-27,80.4-36.5,110.6-39.5
			c0.4,0,0.9-0.2,1.3-0.2c4.3-0.7,8.9-1.1,13.7-1.1c0.4,0,0.6,0,0.9,0c0.2,0,2,0,5.2,0h0.6c3.1,0,5,0,5.2,0c0.4,0,0.6,0,0.9,0
			c4.8,0,9.4,0.4,13.7,1.1c0.4,0,0.9,0.2,1.3,0.2c30.2,3,73.9,12.4,110.6,39.5c44.1,32.6,66.3,83.5,66.3,151.1
			C638.8,443,640.8,448.2,644.3,452.2z"/>
		<path class="st0" d="M697.7,477.8l-23.9-34.1l-12.6-6.3c0-173.4-135.6-206.9-197.1-213c-5.4-0.9-11.1-1.3-17.2-1.3
			c0,0-2.2-0.2-6.3,0c-4.1,0-6.3,0-6.3,0c-6.1,0-11.9,0.6-17.2,1.3C355.6,230.7,220,264,220,437.4l-12.6,6.3l-23.9,34.1l-13.9,264.9
			l25.2,26.5l162.6,89.5h26.5l-7.6-316.5c0,0-105.9-31.5-155-54.3l1.3-13.9c0,0,113.2,6.7,188.2,9.1c4.8,0.6,10,0.9,16.1,0.9
			c4.1,0,8.7,0,13.9-0.2c5,0,9.8,0.2,13.9,0.2c6.1,0,11.3-0.4,16.1-0.9C545.6,480.7,659,474,659,474l1.3,13.9
			c-49.1,22.8-155,54.3-155,54.3l-7.6,316.5h26.5l162.6-89.5l25.2-26.5L697.7,477.8z"/>
	</g>
	<path class="st0" d="M212.4,22.5L177,28.8c0,0-7.6,49.1,12.6,66.9v397.1h18.9V95.7h10c0,0,88.4-36.5,118.5-34.1l3.7-30.2
		L212.4,22.5z"/>
	<path d="M668.8,504.1l-1.3-44.1l-140.4,7l-0.7-2l-85.8,1.3l-85.8-1.3l-0.7,2l-140.4-7l-1.3,44.1l101.1,59.8L368,673
		c0,0-22,101.9,7.4,179.7c6.9,4.3,26.9,13.9,65.4,11.9c38.5,2,58.5-7.8,65.4-11.9C524,748.9,519,662.9,519,662.9l49-99L668.8,504.1z
		"/>
	<polygon points="666.8,440.2 676.8,774.3 686.4,769 688.8,766.6 677.1,448.5 673.8,443.7 	"/>
	<polygon points="214.4,440.2 204.4,774.3 194.6,769 192.4,766.6 203.9,448.5 207.2,443.7 	"/>
	<path d="M522.6,869.4h-25.4c-3,0-5.7-1.1-7.8-3.3c-2-2-3.1-5-3.1-7.8l7.6-316.5c0.2-4.6,3.1-8.7,7.8-10.2
		c0.9-0.2,82.6-24.6,134.7-45.6c-37,2-111.1,6.1-165,7.8c-5.2,0.6-10.9,0.9-16.9,0.9c-4.1,0-8.7,0-13.9-0.2c-5,0-9.8,0.2-13.9,0.2
		c-5.9,0-11.7-0.4-16.9-0.9c-53.9-1.9-128-5.7-165-7.8c52,20.9,133.7,45.2,134.7,45.6c4.4,1.3,7.6,5.4,7.8,10.2l7.6,316.5
		c0,3-1.1,5.7-3.1,7.8c-2,2-4.8,3.3-7.8,3.3h-25.4c-5.9,0-10.7-4.8-10.9-10.7c-2.6-166.3-35.7-240.4-50-264.5
		c-11.5-19.6-43.9-37.4-88.7-48.7c-5-1.3-8.3-5.7-8.1-10.9l2.8-94.8c0.2-4.1,2.4-7.6,5.9-9.4l4.1-2c2.4-1.3,5.2-1.5,7.8-0.7
		c35.6,10,79.3,15.2,219.1,15.6c139.8-0.4,183.4-5.6,219.1-15.6c2.6-0.7,5.4-0.4,7.8,0.7l4.1,2c3.5,1.9,5.9,5.4,5.9,9.4l2.8,94.8
		c0.2,5-3.3,9.6-8.1,10.9c-44.8,11.5-77.2,29.1-88.7,48.7c-14.3,24.1-47.4,98.2-50,264.5C533.4,864.5,528.6,869.4,522.6,869.4z
		 M508.4,847.7h3.7c1.7-62.4,10.2-192.1,52.8-264.5c9.8-16.9,34.3-40,93.5-56.5l-0.7-25.9c-43.7,19.1-118.2,42-142.3,49.5
		L508.4,847.7z M369.1,847.7h3.7l-7.2-297.5c-24.1-7.2-98.5-30.4-142.3-49.5l-0.7,25.9c34.8,9.6,76.3,27,93.5,56.5
		C358.9,655.6,367.4,785.1,369.1,847.7z M440.6,473h0.2c5,0,9.6,0.2,13.7,0.2c5.2,0,10.2-0.4,14.8-0.9c0.4,0,0.7,0,0.9,0
		c69.3-2.2,172.8-8.3,186.3-9.1l-0.4-12.2c-46.9,11.3-108.7,13.5-215.6,13.9c-106.9-0.4-168.7-2.6-215.6-13.9l-0.4,12.2
		c13.5,0.7,117.1,6.7,186.3,9.1c0.4,0,0.7,0,0.9,0c4.4,0.6,9.4,0.9,14.8,0.9c4.1,0,8.7,0,13.7-0.2C440.4,473,440.4,473,440.6,473z"
		/>
	<path class="st0" d="M666.8,440.2l-4.1-2c-38.7,10.9-85.2,15.6-222.1,15.9c-136.9-0.4-183.4-5.2-222.1-15.9l-4.1,2l-2.8,94.8
		c27.8,7,77.6,23.5,95.4,53.7c24.1,40.9,49.3,126.9,51.5,269.9h25.4l-7.6-316.5c0,0-105.9-31.5-155-54.3l1.3-13.9
		c0,0,113.4,6.7,188.2,9.1c4.8,0.6,10,0.9,16.1,0.9c4.1,0,8.7,0,13.9-0.2c5,0,9.8,0.2,13.9,0.2c6.1,0,11.3-0.4,16.1-0.9
		c74.8-2.4,188.2-9.1,188.2-9.1l1.3,13.9c-49.1,22.8-155,54.3-155,54.3l-7.6,316.5H523c2.2-143,27.4-228.9,51.5-269.9
		c17.8-30.2,67.6-46.7,95.4-53.7L666.8,440.2z"/>
</g>
</svg>
