<svg id="bobba_fett" xmlns="http://www.w3.org/2000/svg" xmlns:xlink="http://www.w3.org/1999/xlink" x="0px" y="0px"
	 viewBox="0 0 881 881" style="enable-background:new 0 0 881 881;" xml:space="preserve">

<defs>
<style type="text/css">
	.st0{fill:#FFFFFF;}
	#bobba_fett:hover #negro { fill: red; }
</style>

	<script>
		let theBobbaFett = document.querySelector("#bobba_fett");

		function logMyId() {
		console.log("clicked on an element:", this.id); }

		theBobbaFett.addEventListener("click", logMyId);
	</script>
</defs>

<path id="blanco" class="st0" d="M734,741.4l-13.9-264.9c-0.2-4.3-1.7-8.3-4.1-11.7l-23.9-34.1c-2.2-3-5-5.6-8.3-7.2l-0.6-0.2
	c-3.1-75.8-31.5-134.1-84.3-173.2c-44.5-33.2-96.3-44.5-132.1-48.2c-6.3-0.9-13-1.5-19.6-1.5c-1.1,0-3.3,0-6.7,0c-3.1,0-5.4,0-6.7,0
	c-6.7,0-13.3,0.6-19.8,1.5c-35.6,3.7-87.4,15-132.1,48.2c-20.7,15.4-37.8,33.9-50.9,55.2V114.9c40-16.3,89.5-32,104.3-30.9
	c12,1.1,22.6-7.6,24.1-19.6l3.7-30.2c0.7-6.1-1.1-12.2-5-17s-9.6-7.8-15.7-8.1l-128.5-9c-1.9-0.2-3.7,0-5.6,0.4l-35.2,6.3
	c-9.4,1.7-16.9,9.3-18.3,18.7c0,0.6-2.2,14.6-1.5,31.1c0.9,20,5.6,36.1,13.9,47.4v357.5l-2.2,3.1c-2.4,3.5-3.9,7.6-4.1,11.7
	L147,741.4c-0.4,6.1,1.9,12.2,6.1,16.7l25.4,26.5c1.7,1.7,3.3,3.1,5.4,4.3l162.6,89.5c3.3,1.9,7,2.8,10.7,2.8h26.5
	c5.9,0,11.9-2.4,16.1-6.9c3.1-3.1,5.1-7.1,5.9-11.3c9.4,1.5,21,2.4,35.1,1.6c13.8,0.7,25.2-0.1,34.5-1.6c0.9,4.2,2.9,8.1,5.9,11.3
	c4.3,4.3,10,6.9,16.1,6.9h26.5c3.7,0,7.6-0.9,10.7-2.8l162.6-89.5c2-1.1,3.9-2.6,5.4-4.3l25.2-26.5
	C732.1,753.6,734.4,747.5,734,741.4z"/>
<path id="negro" d="M734,741.4l-13.9-264.9c-0.2-4.3-1.7-8.3-4.1-11.7l-23.9-34.1c-2.2-3-5-5.6-8.3-7.2l-0.6-0.2
	c-3.1-75.8-31.5-134.1-84.3-173.2c-44.5-33.2-96.3-44.5-132.1-48.2c-6.3-0.9-13-1.5-19.6-1.5c-1.1,0-3.3,0-6.7,0c-3.1,0-5.4,0-6.7,0
	c-6.7,0-13.3,0.6-19.8,1.5c-35.6,3.7-87.4,15-132.1,48.2c-20.7,15.4-37.8,33.9-50.9,55.2V114.9c40-16.3,89.5-32,104.3-30.9
	c12,1.1,22.6-7.6,24.1-19.6l3.7-30.2c0.7-6.1-1.1-12.2-5-17s-9.6-7.8-15.7-8.1l-128.5-9c-1.9-0.2-3.7,0-5.6,0.4l-35.2,6.3
	c-9.4,1.7-16.9,9.3-18.3,18.7c0,0.6-2.2,14.6-1.5,31.1c0.9,20,5.6,36.1,13.9,47.4v357.5l-2.2,3.1c-2.4,3.5-3.9,7.6-4.1,11.7
	L147,741.4c-0.4,6.1,1.9,12.2,6.1,16.7l25.4,26.5c1.7,1.7,3.3,3.1,5.4,4.3l162.6,89.5c3.3,1.9,7,2.8,10.7,2.8h26.5
	c5.9,0,11.9-2.4,16.1-6.9c3.1-3.1,5.1-7.1,5.9-11.3c9.4,1.5,21,2.4,35.1,1.6c13.8,0.7,25.2-0.1,34.5-1.6c0.9,4.2,2.9,8.1,5.9,11.3
	c4.3,4.3,10,6.9,16.1,6.9h26.5c3.7,0,7.6-0.9,10.7-2.8l162.6-89.5c2-1.1,3.9-2.6,5.4-4.3l25.2-26.5
	C732.1,753.6,734.4,747.5,734,741.4z M417.1,224.4c5.3-0.7,11.1-1.3,17.2-1.3c0,0,2.2,0,6.3,0c4.1-0.2,6.3,0,6.3,0
	c6.1,0,11.8,0.4,17.2,1.3c60.3,6,191.8,38.3,196.9,203c-0.4,0.1-0.9,0.1-1.3,0.3c-35.7,10-79.3,15.2-219.1,15.6
	c-139.8-0.4-183.5-5.6-219.1-15.6c-0.4-0.1-0.9-0.2-1.3-0.3C225.3,262.7,356.8,230.6,417.1,224.4z M169.6,742.7l13.9-264.9l6.1-8.7
	V95.7C169.4,77.9,177,28.8,177,28.8l35.4-6.3l128.3,8.9L337,61.6c-30.1-2.4-118.5,34.1-118.5,34.1h-10v335.4
	c-2.9,1.9-4.6,5.1-4.8,8.7l-2.3,77.8l-9,249l1.9,2.1L169.6,742.7z M194.8,769.2l-0.2-0.2l9.8,5.3l6.8-228.2
	c43.6,11.3,75.2,28.9,86.5,48.1c14.1,23.8,46.7,96.6,49.9,259.1L194.8,769.2z M523,858.6h-25.3v-1.7l7.6-314.8
	c0,0,105.9-31.5,155-54.3l-1.3-13.9c0,0-113.4,6.7-188.2,9.1c-4.8,0.5-10,0.9-16.1,0.9c-4.1,0-8.9-0.2-13.9-0.2
	c-5.2,0.2-9.8,0.2-13.9,0.2c-6.1,0-11.3-0.3-16.1-0.9c-74.8-2.4-188.2-9.1-188.2-9.1l-1.3,13.9c49.1,22.8,155,54.3,155,54.3
	l7.6,316.5h-25.4c-2.2-143-27.4-229-51.5-269.9c-17.8-30.2-67.6-46.7-95.4-53.7l2.8-94.8l4.1-2c38.7,10.7,85.2,15.5,222.1,15.9
	c136.9-0.3,183.4-5,222.1-15.9l4.1,2l2.8,94.9c-27.8,7-77.4,23.5-95.1,53.6C550.4,629.7,525.2,715.6,523,858.6z M686.8,769.2
	l-153.2,84.3c3.2-162.7,35.8-235.5,49.9-259.3c11.3-19.3,42.8-36.6,86.5-48.1l6.8,228.2l9.6-5.3l2.4-2.4l-8.5-231.2
	c0-0.3,0-0.5,0-0.8l-2.5-85.2l19.9,28.4L712,742.7L686.8,769.2z"/>
</svg>
