<?xml version="1.0" encoding="utf-8"?>
<!-- Generator: Adobe Illustrator 25.4.1, SVG Export Plug-In . SVG Version: 6.00 Build 0)  -->
<svg version="1.1" id="Capa_1" xmlns="http://www.w3.org/2000/svg" xmlns:xlink="http://www.w3.org/1999/xlink" x="0px" y="0px"
	 viewBox="0 0 881 881" style="enable-background:new 0 0 881 881;" xml:space="preserve">
<style type="text/css">
	.st0{fill:#FFFFFF;}
</style>
<g>
	<path d="M457.6,881c-5.9,0-11.9-0.2-17.7-0.6c-5.9,0.4-11.8,0.6-17.7,0.6c-10.1,0-20.4-2.9-30.6-8.7c-18.4-5.2-32.3-11.6-43.6-16.8
		c-4-1.9-7.5-3.5-10.6-4.8c-10.7-4.4-49.5-11.6-86.1-17.2c-11.8,23.4-26.1,28.8-36.8,28.8c-6,0-14.7-2-22.6-11.5
		c-19.1-22.9-29-93.5-23.9-121.5c1.6-9,4.8-16.1,8.6-21.7l-12.4-25.7c-0.8-1.7-1.4-3.6-1.7-5.4l-8.5-49.2l-0.3,0
		c-9.6-0.7-17.5-8.1-18.8-17.7l-11.2-80c-0.1-0.5-0.1-0.9-0.1-1.4l-5-68.7c-0.7-9.3,5-17.9,13.7-20.9
		c0.3-126.4,17.5-182.9,55.8-260.8c33.9-68.9,114.2-106.4,144.5-120.4c3.2-1.5,6.3-2.9,7.4-3.5c12.5-6.8,68.6-38.1,96.1-49.9
		c1.7-1.2,3.5-2.1,5.5-2.8c2.3-0.8,4.8-1.1,7.2-1.1c4.9-0.2,9.8,1.5,13.7,4.7c0.3,0.3,0.6,0.5,0.9,0.8c15.8,8.7,75.2,32.2,86.3,38.3
		l0.6,0.3c39.4,21.5,110.5,67.4,143,133.6c38.3,78,55.6,134.5,55.8,260.8c8.7,3.1,14.4,11.6,13.7,20.9l-5,68.7
		c0,0.5-0.1,0.9-0.1,1.4l-11.2,80c-1.3,9.6-9.2,16.9-18.8,17.7l-0.3,0l-8.5,49.2c-0.3,1.9-0.9,3.7-1.7,5.4l-17.5,36.2
		c-0.3,0.5-0.5,1-0.8,1.6c1.1,3,1.9,6.2,2.5,9.6c5.1,28-4.8,98.6-23.9,121.5c-7.9,9.5-16.7,11.5-22.6,11.5c-10.4,0-24.3-5.1-36-27.2
		c-38.9,6.2-67.5,12.1-76.2,15.7c-3.1,1.3-6.6,2.9-10.6,4.8c-11.3,5.2-25.2,11.7-43.6,16.8C478,878.1,467.7,881,457.6,881z
		 M439.9,839.2c0.5,0,1,0,1.4,0.1c5.4,0.4,10.9,0.6,16.3,0.6c3.2,0,7.3-1.5,11.8-4.2c1.7-1,3.5-1.8,5.4-2.3
		c16.3-4.4,28.7-10.1,39.7-15.2c4.3-2,8.3-3.9,12.3-5.5c16.9-7,64.4-15.1,101.3-20.7c9.8-1.5,19.2,4.2,22.5,13.5
		c0.5,1.4,1,2.7,1.5,3.9c6.2-21,11.5-56.6,8.5-72.7c-0.9-5.1-3-6.9-3.6-7.5c-5.2-4.6-7.7-11.6-6.6-18.5c1.1-6.9,5.5-12.8,11.9-15.6
		l3.3-1.5l13-26.9l10.8-62.1c1.6-9.2,9.2-16.2,18.5-17l8.8-62.9l3.7-51.2l-6.2-1.7c-6.8-1.9-12.2-7.2-14.2-13.9
		c-2-6.8-0.4-14.1,4.2-19.5l3.6-4.1C707,308.5,687.6,260,656.1,195.9C636,155,590.2,112.8,530.4,80.3l-0.6-0.3
		c-10.3-5.6-47.6-26.2-65.7-36.1c-47.6,20.4-96.5,41.7-104.5,46.1c-2.3,1.2-5.4,2.7-9.7,4.7C323.1,107,252.3,140,224.9,195.9
		C193.4,260,174,308.5,173.3,434l3.6,4.1c4.7,5.3,6.3,12.7,4.2,19.5c-2,6.8-7.4,12-14.2,13.9l-6.2,1.7l3.7,51.2l8.8,62.9
		c9.3,0.8,16.9,7.8,18.4,17l10.8,62.1l13.5,27.9c1.7,1.4,3.2,3.1,4.4,5c3.9-0.6,8-0.2,11.8,1.5c6.3,2.8,10.9,8.6,12,15.4l0.1,0.6
		c0,0.3,0.1,0.5,0.1,0.8c1.4,10.7-5.6,20.7-16.1,23c-7.3,1.6-14.6-0.9-19.4-6c-0.2,0.6-0.3,1.3-0.5,2c-2.9,16.1,2.3,51.6,8.5,72.7
		c0.6-1.6,1.3-3.3,1.9-5.2c3.2-9.4,12.6-15.1,22.5-13.7c26.8,3.9,91.2,13.9,111.6,22.3c3.9,1.6,8,3.5,12.3,5.5
		c10.9,5.1,23.3,10.8,39.7,15.2c1.9,0.5,3.8,1.3,5.4,2.3c4.5,2.7,8.6,4.2,11.8,4.2c5.4,0,10.9-0.2,16.3-0.6
		C438.9,839.2,439.4,839.2,439.9,839.2z"/>
	<g>
		<path class="st0" d="M719.6,451.7l8.7-10c0-130-18.7-183.7-53.7-254.9c-35-71.2-121.2-117.5-135-125
			c-12.7-6.9-82.3-36.1-90.5-40.6l0.1-0.6c0,0-0.2,0.1-0.7,0.3c-0.3-0.2-0.5-0.3-0.5-0.3l-0.3,0.7c-12.8,5.5-85.2,43.6-98,50.6
			c-13.7,7.5-108.3,43.7-143.3,115c-35,71.2-53.7,125-53.7,254.9l8.7,10l-22.5,6.2l5,68.7l11.2,80l16.2,1.2l11.2,65l17.5,36.2
			l2.7,1.2c-6.3,3.8-12.5,10.6-14.7,22.5c-5,27.5,8.7,108.7,26.2,108.7c10.4,0,18.9-16.2,24-31c13.1,1.9,87.4,13,106.7,21
			c13,5.3,29.7,14.9,54.5,21.5c7.5,4.6,15.1,7.2,22.6,7.2c6.2,0,12.1-0.2,17.7-0.6c5.6,0.4,11.5,0.6,17.7,0.6
			c7.5,0,15.1-2.6,22.6-7.2c24.7-6.6,41.5-16.2,54.5-21.5c16.3-6.7,71.7-15.6,96.5-19.4c5.1,14.3,13.5,29.4,23.5,29.4
			c17.5,0,31.2-81.2,26.2-108.7c-1.6-9-5.6-15.1-10.1-19.2l10.1-4.6l17.5-36.2l11.2-65l16.2-1.2l11.2-80l5-68.7L719.6,451.7z
			 M223.8,719.8l0.1,0.6l0,0.2c-0.1-0.3-0.2-0.6-0.2-0.8L223.8,719.8z"/>
	</g>
	<g>
		<path d="M214.4,846.8c-3.9,0-7.5-2-10.8-5.9c-15.6-18.7-24.9-84.8-20.5-108.9c4.6-25.1,25.7-31.7,36.3-31.7c2.3,0,4.3,1.5,4.9,3.7
			c2.3,7.7,22.6,75.5,23.9,83.1c1.3,7.7-6.7,37.5-18.3,51.2C225.1,843.9,219.9,846.8,214.4,846.8z M215.7,711
			c-6.5,1.2-19.3,5.6-22.5,22.9c-4.9,27.2,7.4,87.4,18.3,100.4c1.5,1.8,2.5,2.2,2.9,2.2c2.8,0,5.5-2.5,7.4-4.6
			c10.6-12.1,16.9-39,16.3-43.1C237.2,783.7,224.7,741,215.7,711z"/>
	</g>
	<g>
		<path d="M654.6,846.8c-5.5,0-10.7-2.9-15.5-8.6c-11.6-13.7-19.6-43.5-18.3-51.2c1.3-7.6,21.6-75.4,23.9-83.1
			c0.7-2.2,2.7-3.7,4.9-3.7c10.6,0,31.7,6.6,36.3,31.7c4.4,24.1-5,90.2-20.5,108.9C662.1,844.8,658.5,846.8,654.6,846.8z M653.3,711
			c-9,30-21.5,72.7-22.4,77.8c-0.6,4.1,5.7,31,16.3,43.1c1.8,2.1,4.6,4.6,7.4,4.6c0.4,0,1.4-0.5,2.9-2.2
			c10.9-13,23.2-73.2,18.3-100.4C672.6,716.6,659.8,712.2,653.3,711z"/>
	</g>
	<g>
		<path class="st0" d="M649.6,705.4c0,0,26.2,0,31.2,27.5c5,27.5-8.7,108.7-26.2,108.7s-30-46.2-28.7-53.7
			C627.1,780.4,649.6,705.4,649.6,705.4z"/>
		<path class="st0" d="M219.4,705.4c0,0-26.2,0-31.2,27.5c-5,27.5,8.7,108.7,26.2,108.7s30-46.2,28.7-53.7
			C241.9,780.4,219.4,705.4,219.4,705.4z"/>
	</g>
	<g>
		<path class="st0" d="M440.9,71.8c-0.3,0-0.7,0-1,0c-0.3,0-0.7,0-1,0c-108.7,0-271.2,41.2-269.9,371.2l10,16.2l45,261.2l12.5,90
			c0,0,87.5,12.5,108.7,21.2c13,5.3,29.7,14.9,54.5,21.5c7.5,4.6,15.1,7.2,22.6,7.2c6.2,0,12.1-0.2,17.7-0.6
			c5.6,0.4,11.5,0.6,17.7,0.6c7.5,0,15.1-2.6,22.6-7.2c24.7-6.6,41.5-16.2,54.5-21.5c21.2-8.7,108.7-21.2,108.7-21.2l12.5-90
			l45-261.2l10-16.2C712.1,113.1,549.6,71.8,440.9,71.8z"/>
		<path d="M457.6,865.6c-5.9,0-11.9-0.2-17.7-0.6c-5.9,0.4-11.8,0.6-17.7,0.6c-7.9,0-16.2-2.6-24.6-7.6c-18.1-4.9-32-11.3-43.1-16.5
			c-4-1.9-7.8-3.6-11.3-5c-20.4-8.4-106.6-20.8-107.5-20.9c-2.3-0.3-4.1-2.1-4.4-4.4l-12.5-90l-44.8-260l-9.5-15.4
			c-0.5-0.8-0.8-1.7-0.8-2.7c-0.5-143.8,30.2-247.8,91.3-309.1c45-45.2,105.2-67.2,183.8-67.2c0.2,0,0.5,0,0.7,0l0.3,0l0.2,0
			c0.2,0,0.5,0,0.7,0c78.6,0,138.7,22,183.8,67.2c61.1,61.4,91.9,165.4,91.3,309.1c0,0.9-0.3,1.9-0.8,2.7l-9.5,15.4l-44.8,260.2
			l-12.5,89.8c-0.3,2.3-2.1,4.1-4.4,4.4c-0.9,0.1-87.1,12.5-107.5,20.9c-3.4,1.4-7.2,3.2-11.2,5c-11.2,5.2-25,11.6-43.1,16.5
			C473.8,863,465.5,865.6,457.6,865.6z M439.9,854.6c0.1,0,0.2,0,0.4,0c5.7,0.4,11.6,0.6,17.4,0.6c6.2,0,12.9-2.2,19.9-6.5
			c0.4-0.3,0.9-0.5,1.4-0.6c17.6-4.7,31.2-11,42.2-16.1c4.1-1.9,8-3.7,11.7-5.2c19.3-7.9,88.7-18.5,106.1-21l12-86.1l45-261.4
			c0.1-0.6,0.3-1.3,0.7-1.8l9.2-15c0.3-140.2-29.4-241.2-88.3-300.4C574.4,98,516.6,77,440.9,77l-1,0l-1.1,0
			c-75.7,0-133.5,21-176.5,64.2c-58.9,59.2-88.6,160.2-88.3,300.4l9.2,15c0.3,0.6,0.6,1.2,0.7,1.8l45,261.2l12,86.3
			c17.4,2.6,86.9,13.1,106.1,21c3.6,1.5,7.5,3.3,11.7,5.2c10.9,5.1,24.6,11.4,42.2,16.1c0.5,0.1,0.9,0.3,1.4,0.6
			c7,4.3,13.7,6.5,19.9,6.5c5.8,0,11.6-0.2,17.4-0.6C439.6,854.6,439.8,854.6,439.9,854.6z M710.8,443L710.8,443L710.8,443z"/>
	</g>
	<ellipse cx="558.3" cy="446.7" rx="68.1" ry="65"/>
	<ellipse class="st0" cx="558.3" cy="446.7" rx="13.2" ry="12.6"/>
	<path d="M482.7,551.7c-2.2,0-4.3-1.2-5.4-3.3l-27.5-51.2c-0.5-0.9-0.7-1.9-0.7-2.9v-115c0-0.8,0.2-1.6,0.5-2.4
		c1-2.5,26.3-60,113.2-60c87.2,0,118,89.6,118.3,90.5c1.1,3.2-0.7,6.7-3.9,7.8c-3.2,1.1-6.7-0.7-7.8-3.9c-1.1-3.4-28.5-82-106.6-82
		c-73,0-97.6,43.8-101.3,51.4v112.1l26.8,49.9c1.6,3,0.5,6.8-2.5,8.4C484.7,551.4,483.7,551.7,482.7,551.7z"/>
	<ellipse cx="322.7" cy="446.7" rx="68.1" ry="65"/>
	<ellipse class="st0" cx="322.7" cy="446.7" rx="13.2" ry="12.6"/>
	<path d="M398.3,551.7c-1,0-2-0.2-2.9-0.7c-3-1.6-4.1-5.4-2.5-8.4l26.8-49.9V380.6c-3.7-7.6-28.2-51.4-101.3-51.4
		c-78.2,0-105.5,78.7-106.6,82c-1.1,3.2-4.6,5-7.8,3.9c-3.2-1.1-5-4.6-3.9-7.8c0.3-0.9,31.2-90.5,118.3-90.5
		c86.8,0,112.1,57.6,113.2,60c0.3,0.8,0.5,1.6,0.5,2.4v115c0,1-0.3,2-0.7,2.9l-27.5,51.2C402.7,550.5,400.5,551.7,398.3,551.7z"/>
	<path d="M498.3,632.3c-1.6,0-3.2-0.6-4.4-1.8l-53.7-53.7l-53.1,53.1c-2.4,2.4-6.3,2.4-8.7,0c-2.4-2.4-2.4-6.3,0-8.7l57.5-57.5
		c2.4-2.4,6.3-2.4,8.7,0l58.1,58.1c2.4,2.4,2.4,6.3,0,8.7C501.5,631.7,499.9,632.3,498.3,632.3z"/>
	<g>
		<path d="M457.6,865.6c-5.9,0-11.9-0.2-17.7-0.6c-5.9,0.4-11.8,0.6-17.7,0.6c-7.9,0-16.2-2.6-24.6-7.6c-18.1-4.9-32-11.3-43.1-16.5
			c-4-1.9-7.8-3.6-11.3-5c0,0,0,0,0,0c-20.4-8.4-106.6-20.8-107.5-20.9c-2.3-0.3-4.1-2.1-4.4-4.4l-12.5-90l-2.8-16.4
			c-0.5-2.7,1.3-5.4,4-5.9c27.2-5.5,91-14.8,213.4-14.8c106.6,0,180.7,17.2,224.1,31.6c2.4,0.8,3.8,3.1,3.5,5.6l-12.5,89.9
			c-0.3,2.3-2.1,4.1-4.4,4.4c-0.9,0.1-87.1,12.5-107.5,20.9c-3.4,1.4-7.2,3.2-11.2,5c-11.2,5.2-25,11.6-43.1,16.5
			C473.8,863,465.5,865.6,457.6,865.6z M439.9,854.6c0.1,0,0.2,0,0.4,0c5.7,0.4,11.6,0.6,17.4,0.6c6.2,0,12.9-2.2,19.9-6.5
			c0.4-0.3,0.9-0.5,1.4-0.6c17.6-4.7,31.2-11,42.2-16.1c4.1-1.9,8-3.7,11.7-5.2c19.3-7.9,88.7-18.5,106.1-21l11.4-81.8
			c-43.2-13.9-114.8-29.8-216.7-29.8c-114.6,0-177.2,8.1-206.4,13.6l2,11.6l12,86.3c17.4,2.6,86.9,13.1,106.1,21
			c3.6,1.5,7.5,3.3,11.7,5.2c10.9,5.1,24.6,11.4,42.2,16.1c0.5,0.1,0.9,0.3,1.4,0.6c7,4.3,13.7,6.5,19.9,6.5
			c5.8,0,11.6-0.2,17.4-0.6C439.6,854.6,439.8,854.6,439.9,854.6z"/>
	</g>
	<path class="st0" d="M345.1,831.7c13,5.3,29.7,14.9,54.5,21.5c7.5,4.6,15.1,7.2,22.6,7.2c6.2,0,12.1-0.2,17.7-0.6
		c5.6,0.4,11.5,0.6,17.7,0.6c7.5,0,15.1-2.6,22.6-7.2c24.7-6.6,41.5-16.2,54.5-21.5c21.2-8.7,108.7-21.2,108.7-21.2l12.5-89.9
		c-42.7-14.2-116.3-31.4-222.4-31.4c-119.9,0-183.2,8.7-212.4,14.7l2.9,16.6l12.5,90C236.4,810.4,323.9,822.9,345.1,831.7z"/>
	<rect x="384.3" y="663" width="112.5" height="35"/>
</g>
</svg>
