<svg id="c3po" xmlns="http://www.w3.org/2000/svg" xmlns:xlink="http://www.w3.org/1999/xlink" x="0px" y="0px"
	 viewBox="0 0 881 881" style="enable-background:new 0 0 881 881;" xml:space="preserve">

<defs>
<style type="text/css">
	.st0{fill:#FFFFFF;}
	#c3po:hover #negro { fill: red; }
</style>

	<script>
		let thec3po = document.querySelector("#c3po");

		function logMyId() {
		console.log("clicked on an element:", this.id); }

		thec3po.addEventListener("click", logMyId);
	</script>
</defs>

<path id="blanco" class="st0" d="M749.1,438.6c-0.2-126.3-17.5-182.8-55.8-260.8c-32.5-66.2-103.6-112.1-143-133.6l-0.6-0.3
	c-11.1-6.1-70.5-29.6-86.3-38.3c-0.3-0.3-0.6-0.5-0.9-0.8c-3.9-3.2-8.8-4.9-13.7-4.7c-2.4,0-4.9,0.3-7.2,1.1c-2,0.7-3.8,1.6-5.5,2.8
	c-27.5,11.8-83.6,43.1-96.1,49.9c-1.1,0.6-4.2,2-7.4,3.5c-30.3,14-110.6,51.5-144.5,120.4c-38.3,77.9-55.5,134.4-55.8,260.8
	c-8.7,3-14.4,11.6-13.7,20.9l5,68.7c0,0.5,0,0.9,0.1,1.4l11.2,80c1.3,9.6,9.2,17,18.8,17.7h0.3l8.5,49.2c0.3,1.8,0.9,3.7,1.7,5.4
	l12.4,25.7c-3.8,5.6-7,12.7-8.6,21.7c-5.1,28,4.8,98.6,23.9,121.5c7.9,9.5,16.6,11.5,22.6,11.5c10.7,0,25-5.4,36.8-28.8
	c36.6,5.6,75.4,12.8,86.1,17.2c3.1,1.3,6.6,2.9,10.6,4.8c11.3,5.2,25.2,11.6,43.6,16.8c10.2,5.8,20.5,8.7,30.6,8.7
	c5.9,0,11.8-0.2,17.7-0.6c5.8,0.4,11.8,0.6,17.7,0.6c10.1,0,20.4-2.9,30.9-8.6c18.4-5.1,32.3-11.6,43.6-16.8c4-1.9,7.5-3.5,10.6-4.8
	c8.7-3.6,37.3-9.5,76.2-15.7c11.7,22.1,25.6,27.2,36,27.2c5.9,0,14.7-2,22.6-11.5c19.1-22.9,29-93.5,23.9-121.5
	c-0.6-3.4-1.4-6.6-2.5-9.6c0.3-0.6,0.5-1.1,0.8-1.6l17.5-36.2c0.8-1.7,1.4-3.5,1.7-5.4l8.5-49.2h0.3c9.6-0.8,17.5-8.1,18.8-17.7
	l11.2-80c0-0.5,0.1-0.9,0.1-1.4l5-68.7C763.5,450.2,757.8,441.7,749.1,438.6z"/>
<path id="negro" d="M322.7,381.7c-37.6,0-68.1,29.1-68.1,65s30.5,65,68.1,65s68.1-29.1,68.1-65S360.3,381.7,322.7,381.7z
	 M322.7,459.3c-7.3,0-13.2-5.6-13.2-12.6s5.9-12.6,13.2-12.6s13.2,5.6,13.2,12.6S330,459.3,322.7,459.3z M558.3,381.7
	c-37.6,0-68.1,29.1-68.1,65s30.5,65,68.1,65s68.1-29.1,68.1-65S595.9,381.7,558.3,381.7z M558.3,459.3c-7.3,0-13.2-5.6-13.2-12.6
	s5.9-12.6,13.2-12.6s13.2,5.6,13.2,12.6S565.6,459.3,558.3,459.3z M449.8,497.2c-0.5-0.9-0.7-1.9-0.7-2.9v-115
	c0-0.8,0.2-1.6,0.5-2.4c1-2.5,26.3-60,113.2-60c87.2,0,118,89.6,118.3,90.5c1.1,3.2-0.7,6.7-3.9,7.8s-6.7-0.7-7.8-3.9
	c-1.1-3.4-28.5-82-106.6-82c-73,0-97.6,43.8-101.3,51.4v112.1l26.8,49.9c1.6,3,0.5,6.8-2.5,8.4c-1.1,0.3-2.1,0.6-3.1,0.6
	c-2.2,0-4.3-1.2-5.4-3.3L449.8,497.2z M498.3,632.3c-1.6,0-3.2-0.6-4.4-1.8l-53.7-53.7l-53.1,53.1c-2.4,2.4-6.3,2.4-8.7,0
	c-2.4-2.4-2.4-6.3,0-8.7l57.5-57.5c2.4-2.4,6.3-2.4,8.7,0l58.1,58.1c2.4,2.4,2.4,6.3,0,8.7C501.5,631.7,499.9,632.3,498.3,632.3z
	 M318.4,329.2c-78.2,0-105.5,78.7-106.6,82c-1.1,3.2-4.6,5-7.8,3.9s-5-4.6-3.9-7.8c0.3-0.9,31.2-90.5,118.3-90.5
	c86.8,0,112.1,57.6,113.2,60c0.3,0.8,0.5,1.6,0.5,2.4v115c0,1-0.3,2-0.7,2.9l-27.5,51.2c-1.2,2.2-3.4,3.4-5.6,3.4
	c-1,0-2-0.2-2.9-0.7c-3-1.6-4.1-5.4-2.5-8.4l26.8-49.9V380.6C416,373,391.5,329.2,318.4,329.2z M749.1,438.6
	c-0.2-126.3-17.5-182.8-55.8-260.8c-32.5-66.2-103.6-112.1-143-133.6l-0.6-0.3c-11.1-6.1-70.5-29.6-86.3-38.3
	c-0.3-0.3-0.6-0.5-0.9-0.8c-3.9-3.2-8.8-4.9-13.7-4.7c-2.4,0-4.9,0.3-7.2,1.1c-2,0.7-3.8,1.6-5.5,2.8
	c-27.5,11.8-83.6,43.1-96.1,49.9c-1.1,0.6-4.2,2-7.4,3.5c-30.3,14-110.6,51.5-144.5,120.4c-38.3,77.9-55.5,134.4-55.8,260.8
	c-8.7,3-14.4,11.6-13.7,20.9l5,68.7c0,0.5,0,0.9,0.1,1.4l11.2,80c1.3,9.6,9.2,17,18.8,17.7h0.3l8.5,49.2c0.3,1.8,0.9,3.7,1.7,5.4
	l12.4,25.7c-3.8,5.6-7,12.7-8.6,21.7c-5.1,28,4.8,98.6,23.9,121.5c7.9,9.5,16.6,11.5,22.6,11.5c10.7,0,25-5.4,36.8-28.8
	c36.6,5.6,75.4,12.8,86.1,17.2c3.1,1.3,6.6,2.9,10.6,4.8c11.3,5.2,25.2,11.6,43.6,16.8c10.2,5.8,20.5,8.7,30.6,8.7
	c5.9,0,11.8-0.2,17.7-0.6c5.8,0.4,11.8,0.6,17.7,0.6c10.1,0,20.4-2.9,30.9-8.6c18.4-5.1,32.3-11.6,43.6-16.8c4-1.9,7.5-3.5,10.6-4.8
	c8.7-3.6,37.3-9.5,76.2-15.7c11.7,22.1,25.6,27.2,36,27.2c5.9,0,14.7-2,22.6-11.5c19.1-22.9,29-93.5,23.9-121.5
	c-0.6-3.4-1.4-6.6-2.5-9.6c0.3-0.6,0.5-1.1,0.8-1.6l17.5-36.2c0.8-1.7,1.4-3.5,1.7-5.4l8.5-49.2h0.3c9.6-0.8,17.5-8.1,18.8-17.7
	l11.2-80c0-0.5,0.1-0.9,0.1-1.4l5-68.7C763.5,450.2,757.8,441.7,749.1,438.6z M214.2,841.5c-1,0-2-0.3-3-0.8
	c-15.9-9-27.7-82-23-107.8c3.9-21.5,20.7-26.2,27.9-27.2l2.7,15.5l12.5,90c0.3,2.3,2.1,4.1,4.4,4.4c0,0,0.2,0,0.6,0.1
	C231.1,828.8,223.4,841.5,214.2,841.5z M384.3,663v21.6c-84.6,1.9-134,8.6-159.1,13.3l-41.3-239.5c-0.1-0.6-0.4-1.2-0.7-1.8l-9.2-15
	c-0.3-140.2,29.4-241.2,88.3-300.4C305.3,98,363.1,77,438.8,77h1.1h1c75.7,0,133.5,21,176.7,64.1c58.9,59.2,88.6,160.2,88.3,300.4
	l-9.2,15c-0.4,0.5-0.6,1.2-0.7,1.8l-44,255.6c-34.3-10.9-85.8-22.9-155.2-27.7V663H384.3z M223.7,719.8L223.7,719.8l0.2,0.6v0.2
	C223.8,720.3,223.7,720,223.7,719.8z M631,812.1c-24.8,3.8-80.2,12.7-96.5,19.4c-13,5.3-29.8,14.9-54.5,21.5
	c-7.5,4.6-15.1,7.2-22.6,7.2c-6.2,0-12.1-0.2-17.7-0.6c-5.6,0.4-11.5,0.6-17.7,0.6c-7.5,0-15.1-2.6-22.6-7.2
	c-24.8-6.6-41.5-16.2-54.5-21.5c-19.3-8-93.6-19.1-106.7-21c0,0.1-0.1,0.1-0.1,0.2c-1.1-0.1-1.6-0.2-1.6-0.2l-12.4-89.4l0,0
	l-0.1-0.6l-2.9-16.6c0.9-0.2,1.9-0.4,2.9-0.6c25.8-5.1,75.1-11.7,160.3-13.6v8.3h112.5v-6.7c72.7,5,125.5,18.1,159.1,29.3
	l-12.5,89.9c0,0-4.8,0.7-12.3,1.8C631.1,812.3,631,812.2,631,812.1z M654.5,841.5c-3.1,0-6.1-1.5-8.8-3.9l-0.1-0.1
	c-0.2-0.1-0.3-0.3-0.5-0.4c-4.7-4.6-8.8-12-12-19.8c6.6-1,10.8-1.6,11-1.6c2.3-0.3,4.1-2.1,4.4-4.4l12.5-89.9c0.1-0.5,0-1,0-1.4
	l1.9-11.2c3.5,1.6,7.3,4.1,10.4,7.8c3.3,3.9,6.1,9.2,7.4,16.3C685.7,760.3,672,841.5,654.5,841.5z M736.8,526.6l-11.2,80l-16.2,1.2
	l-11.2,65L680.7,709l-5.1,2.3c-3.6-3.7-7.8-6.3-11.8-8l41.7-242.1l9.5-15.4c0.5-0.8,0.8-1.8,0.8-2.7
	c0.6-143.7-30.2-247.7-91.3-309.1c-45.1-45.2-105.2-67.2-183.8-67.2c-0.2,0-0.5,0-0.7,0h-0.2h-0.3c-0.2,0-0.5,0-0.7,0
	c-78.6,0-138.8,22-183.8,67.2c-61.1,61.3-91.8,165.3-91.3,309.1c0,1,0.3,1.9,0.8,2.7l9.5,15.4l41.3,239.4
	c-4.9,0.7-10.8,2.5-16.4,6.2l-16.4-33.9l-11.2-65l-16.2-1.2l-11.2-80l-5-68.7l22.5-6.2l-8.7-10c0-129.9,18.7-183.7,53.7-254.9
	c35-71.3,129.6-107.5,143.3-115c12.8-7,85.2-45.1,98-50.6l0.3-0.7c0,0,0.2,0.1,0.5,0.3c0.5-0.2,0.7-0.3,0.7-0.3l-0.1,0.6
	c8.2,4.5,77.8,33.7,90.5,40.6c13.8,7.5,100,53.8,135,125s53.7,124.9,53.7,254.9l-8.7,10l22.2,6.2L736.8,526.6z"/>
</svg>
