<svg id="darth_vader" xmlns="http://www.w3.org/2000/svg" xmlns:xlink="http://www.w3.org/1999/xlink" x="0px" y="0px"
	 viewBox="0 0 881 881" style="enable-background:new 0 0 881 881;" xml:space="preserve">

<defs>
<style type="text/css">
	.st0{fill:#FFFFFF;}
	#darth_vader:hover #negro { fill: red; }
</style>

	<script>
		let theDarthVader = document.querySelector("#darth_vader");

		function logMyId() {
		console.log("clicked on an element:", this.id); }

		theDarthVader.addEventListener("click", logMyId);
	</script>
</defs>

<path id="blanco" class="st0" d="M806.7,553.3c-13.9-32.1-27-62.3-29.3-69.6c-7-21.6-24.6-69.2-29.2-81.5
	c-0.2-12.1-1.6-57.2-9.1-109.3c-12-82.4-33.1-140-63-171.2C614.3,57.2,509,49.4,481.3,48.5c-7.1-5-19.7-10.7-40.1-10.8
	c-0.2,0-0.3,0-0.5,0h-0.1c-0.3,0-0.5,0-0.7,0c-20.4,0.2-33,5.8-40.1,10.9c-27.7,0.9-132.9,8.7-194.8,73.2
	c-29.9,31.2-51.1,88.8-63,171.2c-7.6,52.1-8.9,97.1-9.1,109.3c-4.5,12.2-22.2,59.9-29.2,81.5c-2.3,7.3-15.4,37.6-29.3,69.6
	C22.9,672.4-0.1,728.5-0.1,745.9c0,10.9,3.1,20.1,9.5,28.3c6.3,8.1,15.5,14.8,29.1,21c24.7,11.3,66,21.9,133.8,34.5
	c44.5,8.2,91.9,12.8,140.9,13.5c0.6,0.1,1.2,0.1,1.9,0.1h244.7c0.4,0,0.6,0,1.1-0.2c51.5-0.4,101.3-4.9,148-13.6
	C776.7,817,818,806.3,842.7,795c13.5-6.3,22.8-12.9,29.1-21s9.4-17.3,9.4-28.2C881.2,728.4,858.2,672.4,806.7,553.3z"/>
<path id="negro" d="M806.7,553.3c-13.9-32.1-27-62.3-29.3-69.6c-7-21.6-24.6-69.2-29.2-81.5c-0.2-12.1-1.6-57.2-9.1-109.3
	c-12-82.4-33.1-140-63-171.2C614.3,57.2,509,49.4,481.3,48.5c-7.1-5-19.7-10.7-40.1-10.8c-0.2,0-0.3,0-0.5,0h-0.1
	c-0.3,0-0.5,0-0.7,0c-20.4,0.2-33,5.8-40.1,10.9c-27.7,0.9-132.9,8.7-194.8,73.2c-29.9,31.2-51.1,88.8-63,171.2
	c-7.6,52.1-8.9,97.1-9.1,109.3c-4.5,12.2-22.2,59.9-29.2,81.5c-2.3,7.3-15.4,37.6-29.3,69.6C22.9,672.4-0.1,728.5-0.1,745.9
	c0,10.9,3.1,20.1,9.5,28.3c6.3,8.1,15.5,14.8,29.1,21c24.7,11.3,66,21.9,133.8,34.5c44.5,8.2,91.9,12.8,140.9,13.5
	c0.6,0.1,1.2,0.1,1.9,0.1h244.7c0.4,0,0.6,0,1.1-0.2c51.5-0.4,101.3-4.9,148-13.6C776.7,817,818,806.3,842.7,795
	c13.5-6.3,22.8-12.9,29.1-21s9.4-17.3,9.4-28.2C881.2,728.4,858.2,672.4,806.7,553.3z M698.1,801.7c-51.7,9.5-101,12.6-141.8,12.9
	H318.5v-0.1c-39.6-0.6-86.5-3.8-135.7-12.9C51.6,777.3,29.3,761.3,29.3,737s92.4-225.8,99.9-249.4c7.6-23.7,29.2-81.3,29.2-81.3
	s1.3-197.3,65.3-264s183.5-66,183.5-66s7.5-10.3,33-10.4c0.1,0,0.1,0,0.2,0s0.1,0,0.2,0c25.4,0.1,33,10.4,33,10.4
	s119.6-0.7,183.5,66s65.3,264,65.3,264s21.5,57.7,29.2,81.3c7.6,23.6,100.1,225.1,100,249.5C851.6,761.4,829.4,777.4,698.1,801.7z
	 M580,336.1c-60.4,0-111.8,20.9-111.8,20.9h-27.5h-0.3h-27.5c0,0-51.1-20.9-111.7-20.9S170.5,439,132.3,527.9S76,685.6,76,685.6
	s-29.2,32-29.2,51.4c0,16.2,114.1,54.9,277.8,67.5h231.7c163.8-12.6,277.9-51.3,278.1-67.5c0-19.4-29.2-51.4-29.2-51.4
	s-18.1-68.8-56.3-157.7C710.6,439,640.4,336.1,580,336.1z M440.5,528.4c29.3,0,30.1,47.9,30,52.2c0,4.4-30,5.1-30,5.1
	s-30-0.8-30-5.1S411.2,528.4,440.5,528.4z M498.1,637.1v46.5h-28.5v-78L498.1,637.1z M461.7,605.6v77.9h-42.5v-77.9H461.7z
	 M411.4,605.6v78h-28.5v-46.5L411.4,605.6z M305.2,718.5c-7.6,0-13.8-6.2-13.8-13.8s6.2-13.8,13.8-13.8s13.8,6.2,13.8,13.8
	S312.8,718.5,305.2,718.5z M256.2,474.1c0-22.2,6.2-73.7,74-73.7s79,47.1,79,47.1v35.9c0,0-15.1,18.6-55.1,18.6
	S256.2,496.3,256.2,474.1z M376.5,639.3v44.3h-28.7v-10L376.5,639.3z M440.5,783.6l-96.9-65.8h96.9h96.8L440.5,783.6z M504.6,683.6
	v-44.3l28.6,34.3v10H504.6z M575.8,718.5c-7.6,0-13.8-6.2-13.8-13.8s6.2-13.8,13.8-13.8s13.8,6.2,13.8,13.8S583.4,718.5,575.8,718.5
	z M526.9,502c-40,0-55.1-18.6-55.1-18.6v-35.9c0,0,11.2-47.1,79-47.1s74,51.5,74,73.7C624.8,496.3,566.9,502,526.9,502z"/>
</svg>
