<?xml version="1.0" encoding="utf-8"?>
<!-- Generator: Adobe Illustrator 25.4.1, SVG Export Plug-In . SVG Version: 6.00 Build 0)  -->
<svg version="1.1" id="Capa_1" xmlns="http://www.w3.org/2000/svg" xmlns:xlink="http://www.w3.org/1999/xlink" x="0px" y="0px"
	 viewBox="0 0 881 881" style="enable-background:new 0 0 881 881;" xml:space="preserve">
<style type="text/css">
	.st0{fill:#FFFFFF;}
</style>
<g>
	<path d="M559.8,843.3H315.1c-0.7,0-1.3,0-1.9-0.1c-49-0.7-96.4-5.3-140.9-13.5c-67.8-12.6-109.1-23.2-133.8-34.5
		c-13.6-6.2-22.8-12.9-29.1-21C3,766-0.1,756.8-0.1,745.9c0-17.4,23-73.5,74.5-192.5c13.9-32,27-62.3,29.3-69.6
		c7-21.6,24.7-69.3,29.2-81.5c0.2-12.2,1.5-57.2,9.1-109.3c11.9-82.4,33.1-140,63-171.2c61.9-64.5,167.1-72.3,194.8-73.2
		c7.1-5.1,19.7-10.7,40.1-10.9c0.2,0,0.4,0,0.7,0h0.1c0.2,0,0.3,0,0.5,0c20.4,0.1,33,5.8,40.1,10.8c27.7,0.9,133,8.7,194.8,73.2
		c29.9,31.2,51,88.8,63,171.2c7.5,52.1,8.9,97.2,9.1,109.3c4.6,12.3,22.2,59.9,29.2,81.5l0,0c2.3,7.3,15.4,37.5,29.3,69.6
		c51.5,119.1,74.5,175.1,74.5,192.5c0,10.9-3.1,20.1-9.4,28.2c-6.3,8.1-15.6,14.7-29.1,21c-24.7,11.3-66,22-133.8,34.5
		c-46.7,8.7-96.5,13.2-148,13.6C560.4,843.3,560.2,843.3,559.8,843.3z M320.2,797.6h235.2c0.3,0,0.5,0,0.8,0
		c48.4-0.3,95-4.6,138.8-12.6c62.2-11.5,101-21.4,122-31.1c17.2-7.9,17.6-12.9,17.6-16.6c-0.3-2.6-2.8-14.8-24-66.5
		c-13.8-33.9-31.5-74.6-45.7-107.4c-17.1-39.6-27-62.4-29.6-70.6c-7.5-23-28.8-80-29-80.6c-0.7-1.8-1.1-3.9-1.1-5.8
		c0-0.5-0.5-49.2-8.6-105c-10.4-71.7-28.4-122.6-52-147.3c-57.7-60.1-168.8-60.7-171-60.7c-0.1,0-0.1,0-0.1,0c-5,0-9.7-2.1-12.9-5.9
		c-0.9-0.7-6.3-4.5-20.2-4.5c-0.1,0-0.1,0-0.2,0c-13.9,0-19.3,3.8-20.2,4.5c-3.2,3.8-8,5.9-13,5.9c-1.1,0-113.1,0.3-171,60.7
		c-23.7,24.7-41.7,75.8-52.1,147.7c-8.1,55.9-8.6,104.2-8.6,104.6c0,1.9-0.4,4-1.1,5.8c-0.2,0.6-21.5,57.6-29,80.6
		c-2.6,8.2-12.4,31-29.6,70.6c-14.2,32.7-31.8,73.5-45.7,107.4c-21.1,51.7-23.7,63.8-24,66.5c0,3.7,0.4,8.7,17.6,16.6
		c21.1,9.7,59.9,19.5,122,31.1c41.9,7.8,86.6,12,132.8,12.6C319.2,797.5,319.8,797.5,320.2,797.6z M834.7,737
		C834.7,737,834.7,737.1,834.7,737C834.7,737.1,834.7,737,834.7,737z M46.4,737C46.4,737,46.4,737.1,46.4,737
		C46.4,737.1,46.4,737,46.4,737z M461,87.5L461,87.5L461,87.5z M460,86.4L460,86.4L460,86.4z M421.1,86.4L421.1,86.4L421.1,86.4z
		 M440.4,48.9L440.4,48.9L440.4,48.9L440.4,48.9z"/>
	<g>
		<g>
			<path class="st0" d="M751.6,487.6c-7.7-23.6-29.2-81.3-29.2-81.3s-1.4-197.3-65.3-264c-63.9-66.7-183.5-66-183.5-66
				s-7.6-10.3-33-10.4l0,0c-0.1,0-0.1,0-0.2,0s-0.1,0-0.2,0l0,0c-25.5,0.1-33,10.4-33,10.4s-119.5-0.7-183.5,66s-65.3,264-65.3,264
				s-21.6,57.6-29.2,81.3c-7.5,23.6-99.9,225.1-99.9,249.4s22.3,40.3,153.5,64.6c49.2,9.1,96.1,12.3,135.7,12.9v0.1h237.8l0,0
				c40.8-0.3,90.1-3.4,141.8-12.9c131.3-24.3,153.5-40.3,153.5-64.6C851.7,712.7,759.2,511.2,751.6,487.6z"/>
		</g>
		<path d="M556.3,804.5H324.6C160.9,791.9,46.8,753.2,46.8,737c0-19.4,29.2-51.4,29.2-51.4s18.1-68.8,56.3-157.7
			s108.3-191.8,168.9-191.8S412.9,357,412.9,357h27.5h0.3h27.5c0,0,51.4-20.9,111.8-20.9c60.4,0,130.6,102.9,168.9,191.8
			c38.2,88.9,56.3,157.7,56.3,157.7s29.2,32,29.2,51.4C834.2,753.2,720.1,791.9,556.3,804.5z"/>
		<path class="st0" d="M440.5,528.4c-29.3,0-30,47.9-30,52.2s30,5.1,30,5.1s30-0.7,30-5.1C470.6,576.3,469.8,528.4,440.5,528.4z"/>
		<g>
			<path class="st0" d="M471.8,447.5v35.9c0,0,15.1,18.6,55.1,18.6s97.9-5.7,97.9-27.9s-6.2-73.7-74-73.7
				C483,400.4,471.8,447.5,471.8,447.5z"/>
			<path class="st0" d="M409.2,447.5v35.9c0,0-15.1,18.6-55.1,18.6s-97.9-5.7-97.9-27.9s6.2-73.7,74-73.7S409.2,447.5,409.2,447.5z"
				/>
		</g>
		<g>
			<rect x="419.2" y="605.6" class="st0" width="42.5" height="77.9"/>
			<polygon class="st0" points="498.1,683.6 469.6,683.6 469.6,605.6 498.1,637.1 			"/>
			<polygon class="st0" points="533.2,683.6 504.6,683.6 504.6,639.3 533.2,673.6 			"/>
			<polygon class="st0" points="382.9,683.6 411.4,683.6 411.4,605.6 382.9,637.1 			"/>
			<polygon class="st0" points="347.8,683.6 376.5,683.6 376.5,639.3 347.8,673.6 			"/>
		</g>
		<g>
			<circle class="st0" cx="575.8" cy="704.7" r="13.8"/>
			<circle class="st0" cx="305.2" cy="704.7" r="13.8"/>
		</g>
		<polygon class="st0" points="440.5,717.8 343.6,717.8 440.5,783.6 537.3,717.8 		"/>
	</g>
</g>
</svg>
