<svg id="emperor_royal_guard" xmlns="http://www.w3.org/2000/svg" xmlns:xlink="http://www.w3.org/1999/xlink" x="0px" y="0px"
	 viewBox="0 0 881 881" style="enable-background:new 0 0 881 881;" xml:space="preserve">

<defs>
<style type="text/css">
	.st0{fill:#FFFFFF;}
	.st1{fill:#1D1D1B;}
		#emperor_royal_guard:hover #negro { fill: red; }
</style>

	<script>
		let theEmperorRoyalGuard = document.querySelector("#emperor_royal_guard");

		function logMyId() {
		console.log("clicked on an element:", this.id); }

		theEmperorRoyalGuard.addEventListener("click", logMyId);
	</script>
</defs>

<path id="blanco" class="st0" d="M812.1,630.1c-2.9-7.3-8.9-13-16.3-15.6c-68.4-23.8-89.5-44.7-100.1-68.6
	c-14-31.6-13.6-80.5-12.9-154.6c0.3-31.8,0.6-67.9-0.1-109.6c-1-60.8-14.2-113.6-39-156.9c-20.3-35.3-48.2-64.2-83-85.7
	C504,4,447.9,0.3,442,0c-0.8,0-1.7,0-2.6,0c-2.4,0.1-60.5,2.9-119,39.2c-34.8,21.5-62.7,50.4-83,85.7c-24.8,43.2-37.9,96-39,156.9
	c-0.7,41.7-0.4,77.8-0.1,109.6c0.6,74.1,1.1,123-12.9,154.6c-10.6,24-31.7,44.8-100.1,68.6c-7.5,2.6-13.4,8.3-16.3,15.6
	s-2.5,15.5,1.2,22.5c1.2,2.3,30.9,58.2,91,114.1c35.4,33,74.2,59.4,115.2,78.3C328,868.9,383.2,881,440.5,881s112.5-12.1,164.2-36
	c41-19,79.8-45.3,115.2-78.3c60-55.9,89.8-111.8,91-114.1C814.5,645.6,815,637.4,812.1,630.1z"/>
<path id="negro" class="st1" d="M440.5,147.2c-49.1,2.7-205.3,23.7-205.3,162.2c0,147.5,95.9,430.8,205.3,508.8
	c109.4-78,205.3-361.3,205.3-508.8C645.8,170.9,489.6,149.9,440.5,147.2z M440.5,313.6c-143-1-164-52.7-164-52.7
	c41.7-15.2,130.5-13.6,164-13c33.5-0.6,122.3-2.2,164,13C604.5,260.9,583.5,312.6,440.5,313.6z M812.1,630.1
	c-2.9-7.3-8.9-13-16.3-15.6c-68.4-23.8-89.5-44.7-100.1-68.6c-14-31.6-13.6-80.5-12.9-154.6c0.3-31.8,0.6-67.9-0.1-109.6
	c-1-60.8-14.2-113.6-39-156.9c-20.3-35.3-48.2-64.2-83-85.7C504,4,447.9,0.3,442,0c-0.8,0-1.7,0-2.6,0c-2.4,0.1-60.5,2.9-119,39.2
	c-34.8,21.5-62.7,50.4-83,85.7c-24.8,43.2-37.9,96-39,156.9c-0.7,41.7-0.4,77.8-0.1,109.6c0.6,74.1,1.1,123-12.9,154.6
	c-10.6,24-31.7,44.8-100.1,68.6c-7.5,2.6-13.4,8.3-16.3,15.6s-2.5,15.5,1.2,22.5c1.2,2.3,30.9,58.2,91,114.1
	c35.4,33,74.2,59.4,115.2,78.3C328,868.9,383.2,881,440.5,881s112.5-12.1,164.2-36c41-19,79.8-45.3,115.2-78.3
	c60-55.9,89.8-111.8,91-114.1C814.5,645.6,815,637.4,812.1,630.1z M440.5,854C206.6,854,94,640.1,94,640.1
	c159.7-55.6,126.9-111.2,131.2-357.9C229.5,35.6,440.5,27,440.5,27s211,8.6,215.3,255.2c4.3,246.7-28.5,302.3,131.2,357.9
	C787,640.1,674.3,854,440.5,854z"/>
</svg>
