<?xml version="1.0" encoding="utf-8"?>
<!-- Generator: Adobe Illustrator 25.4.1, SVG Export Plug-In . SVG Version: 6.00 Build 0)  -->
<svg version="1.1" id="Capa_1" xmlns="http://www.w3.org/2000/svg" xmlns:xlink="http://www.w3.org/1999/xlink" x="0px" y="0px"
	 viewBox="0 0 881 881" style="enable-background:new 0 0 881 881;" xml:space="preserve">
<style type="text/css">
	.st0{fill:#1D1D1B;}
	.st1{fill:#FFFFFF;}
</style>
<g>
	<path class="st0" d="M440.5,881C440.5,881,440.5,881,440.5,881c-57.3,0-112.5-12.1-164.1-35.9c-41-18.9-79.8-45.3-115.2-78.3
		c-60.1-55.9-89.8-111.8-91-114.1c-3.7-7-4.1-15.2-1.2-22.5c2.9-7.3,8.8-13,16.3-15.6c68.4-23.8,89.5-44.6,100.1-68.6
		c14-31.6,13.5-80.5,12.9-154.6c-0.3-31.8-0.6-67.9,0.1-109.6c1.1-60.9,14.2-113.7,39-156.9c20.3-35.3,48.2-64.2,83-85.7
		C378.9,2.9,437,0.1,439.4,0c0.9,0,1.8,0,2.6,0c5.9,0.3,62,4,118.7,39.1c34.8,21.5,62.7,50.4,83,85.7c24.8,43.3,38,96.1,39,156.9
		c0.7,41.7,0.4,77.8,0.1,109.6c-0.7,74.1-1.1,123,12.9,154.6c10.6,23.9,31.7,44.8,100.1,68.6c7.4,2.6,13.4,8.3,16.3,15.6
		c2.9,7.3,2.4,15.5-1.2,22.5c-1.2,2.3-31,58.2-91,114.1c-35.4,33-74.2,59.3-115.2,78.3C553,868.9,497.8,881,440.5,881z"/>
	<g>
		<path class="st1" d="M655.8,282.2C651.5,35.6,440.5,27,440.5,27v0l0,0c0,0-211,8.6-215.3,255.2C220.9,528.9,253.7,584.5,94,640.1
			c0,0,112.6,213.9,346.5,213.9l0-0.1v0.1C674.3,854,787,640.1,787,640.1C627.3,584.5,660.1,528.9,655.8,282.2z"/>
	</g>
	<path class="st0" d="M440.5,147.2L440.5,147.2L440.5,147.2c-49.1,2.7-205.3,23.7-205.3,162.2c0,147.5,95.9,430.8,205.3,508.8l0-0.1
		v0.1c109.4-78,205.3-361.3,205.3-508.8C645.8,170.9,489.6,149.9,440.5,147.2z"/>
	<path class="st1" d="M440.5,247.9L440.5,247.9L440.5,247.9c-33.5-0.6-122.3-2.2-164,13c0,0,21,51.7,164,52.7l0,0v0
		c143-1,164-52.7,164-52.7C562.8,245.7,474,247.3,440.5,247.9z"/>
</g>
</svg>
