<svg id="leia" xmlns="http://www.w3.org/2000/svg" xmlns:xlink="http://www.w3.org/1999/xlink" x="0px" y="0px"
	 viewBox="0 0 881 881" style="enable-background:new 0 0 881 881;" xml:space="preserve">

<defs>
<style type="text/css">
	.st0{fill:#FFFFFF;}
	#leia:hover #negro { fill: red; }
</style>

	<script>
		let theLeia = document.querySelector("#leia");

		function logMyId() {
		console.log("clicked on an element:", this.id); }

		theLeia.addEventListener("click", logMyId);
	</script>
</defs>

<path id="blanco" class="st0" d="M881,408.1c0-36.1-15.9-64.1-25.6-77.9c-0.7-32.2-15.7-50.1-28.6-59.5
	c-12.7-47.2-35.6-79.8-68.1-97c-32.6-17.2-67-14.8-92.7-8.5c-1-1.8-2.1-3.6-3.1-5.3c-0.7-2.3-1.8-4.5-3.2-6.5
	c-0.4-0.5-3.5-5.1-9.2-12.1c-20.1-27.2-45.8-49.4-76.3-66C536,52.6,495.4,41,453.4,41c-4.1,0-8.5,0.1-12.9,0.2
	c-4.4-0.1-8.7-0.2-12.9-0.2c-42,0-82.7,11.5-120.7,34.3c-30.5,16.6-56.2,38.8-76.3,66c-5.7,7-8.9,11.6-9.2,12.1
	c-1.4,2-2.4,4.2-3.2,6.5c-1.1,1.8-2.1,3.5-3.1,5.3c-25.7-6.3-60.2-8.7-92.7,8.5s-55.3,49.8-68.1,97c-12.9,9.5-27.9,27.3-28.6,59.5
	C15.9,344,0,372,0,408.1c0,30.5,14.2,53.7,28.6,68.4c-3.8,15.9-5.2,39,6.1,65.1c8.7,20.1,31.6,45.8,68.1,76.4
	c2.4,15.3,7.3,31.3,14.6,47.6c2,7,7.8,23.3,21.4,39.4c15.7,18.5,45,40.6,95.9,40.6c17.7,0,34-3.4,48.5-10.1
	c5.5,7.1,10.9,13.8,15.8,19.6c17.7,20.9,25.9,26.4,32.1,29.2c5.7,2.6,20.4,14.8,29.1,22.1c8,6.7,14.9,12.5,20.5,16.2
	c1.1,0.7,2.1,1.4,3,2c13.3,9,24.7,15.4,50.6,15.4c25.7,0,49.1-6.2,65.9-17.5c5.5-3.7,12.5-9.5,20.5-16.2
	c8.8-7.3,23.4-19.5,29.1-22.1c6.2-2.8,14.4-8.3,32.1-29.2c4.9-5.8,10.3-12.5,15.8-19.6c14.5,6.7,30.8,10.1,48.5,10.1
	c50.9,0,80.2-22.1,95.9-40.6c13.6-16.1,19.4-32.4,21.4-39.4c7.3-16.3,12.2-32.3,14.6-47.6c36.5-30.6,59.4-56.2,68.1-76.4
	c11.3-26.1,9.9-49.2,6.1-65.1C866.8,461.7,881,438.6,881,408.1z"/>
<g id="negro">
	<path d="M321.9,101.6l-0.1,0.1c-27.1,14.7-49.7,34.2-67.2,58.2c0,0.1-0.1,0.1-0.1,0.2c-3.6,4.3-6,7.6-7.2,9.2c0,0.7-0.2,1.4-0.5,2
		c-1.1,1.7-2.2,3.5-3.2,5.3c-0.2,0.3-0.3,0.5-0.5,0.8c-1,1.8-2.1,3.6-3.1,5.4c-0.1,0.2-0.2,0.4-0.3,0.6c-2.1,4-4.2,8-6.1,12.2
		c-0.7,1.6-1.4,3.2-2.1,4.8c-17,40-5.8,130.2,8.4,205.9c14.5-52.5,51.5-113.2,143.6-133c13.8-4.3,29.5-6.6,47.5-6.6
		c1.7,0,3.3,0,4.9,0V71.4c-2.7-0.1-5.4-0.1-8.1-0.1C391,71.3,355.5,81.5,321.9,101.6z"/>
	<path d="M95.4,459.5c-0.8-14.4,0.2-26,0.6-29.6c-20.7-38.8-10.6-62.7-7-69.1c-11.4-28.6-15-58.9-15.7-66.6l0,0
		c-9.5,6.4-19,19.1-17.2,44.6c0.1,1-0.3,1.9-0.9,2.6c-0.2,0.3-25,28.3-25,66.6c0,37.6,31.5,56.3,31.8,56.5c0.8,0.5,1.4,1.2,1.6,2.1
		c0.2,0.9,0.1,1.9-0.4,2.7c-0.1,0.3-15.2,26.8-0.8,60.1c8.6,20.1,38.5,47.6,61.8,67l0,0c0-9.2,1.3-15.3,2.1-18.1
		c-10.5-17.6-15.1-58.6-15.9-65.4C101.8,500.1,96.7,482.1,95.4,459.5z"/>
	<path d="M231.6,492c0,0-3.5-30.4,4.2-68.8c-1.9-9.6-3.8-19.6-5.6-29.8c-17-95.6-19-160.8-6-193.8c-19-6.9-53.1-15.3-83.8-1.1
		c-29.7,13.7-49.9,45.3-60.2,93.8c0.4,4.4,3.8,37.8,16,67.5c0.5,1.1,0.3,2.4-0.4,3.4c0,0-3.9,5.7-5.1,16.4c-1,9.9,0.2,26.3,12,48
		c0.4,0.6,0.5,1.4,0.4,2.1c-0.1,0.5-6.3,51.7,13.8,80c0.4,0.5,0.6,1.1,0.6,1.7c0,0.5,4.8,48.2,15.7,64.6c0.6,0.9,0.8,2.1,0.4,3.1
		c-0.1,0.3-9.6,28.3,12.4,75.9c0.1,0.2,0.2,0.5,0.2,0.7c0,0.1,3.4,15.1,16,29.9c16.8,19.7,41.3,29.7,72.7,29.7
		c21.1,0,38.9-6.1,53.1-18.3c-9-12.7-16.1-23.8-18.7-29.3C261.5,650.8,231.6,492,231.6,492z"/>
	<path d="M641.3,406.4c14.2-75.7,25.4-165.9,8.4-205.9c-4.4-10.4-9.6-20.2-15.3-29.2c-0.4-0.6-0.6-1.3-0.5-2
		c-1.2-1.6-3.6-4.9-7.2-9.2c0-0.1-0.1-0.1-0.1-0.2c-17.7-24-40.3-43.6-67.2-58.2c0,0-0.1,0-0.1-0.1C525.5,81.5,490,71.3,453.4,71.3
		c-2.8,0-5.6,0-8.2,0.1v195.4c1.6,0,3.3,0,5,0c18.1,0,33.8,2.3,47.5,6.6C589.7,293.2,626.7,353.9,641.3,406.4z"/>
	<path d="M881,408.1c0-36.1-15.9-64.1-25.6-77.9c-0.7-32.2-15.7-50.1-28.6-59.5c-12.7-47.2-35.6-79.8-68.1-97
		c-32.6-17.2-67-14.8-92.7-8.5c-1-1.8-2.1-3.6-3.1-5.3c-0.7-2.3-1.8-4.5-3.2-6.5c-0.4-0.5-3.5-5.1-9.2-12.1
		c-20.1-27.2-45.8-49.4-76.3-66C536,52.6,495.4,41,453.4,41c-4.1,0-8.5,0.1-12.9,0.2c-4.4-0.1-8.7-0.2-12.9-0.2
		c-42,0-82.7,11.5-120.7,34.3c-30.5,16.6-56.2,38.8-76.3,66c-5.7,7-8.9,11.6-9.2,12.1c-1.4,2-2.4,4.2-3.2,6.5
		c-1.1,1.8-2.1,3.5-3.1,5.3c-25.7-6.3-60.2-8.7-92.7,8.5s-55.3,49.8-68.1,97c-12.9,9.5-27.9,27.3-28.6,59.5C15.9,344,0,372,0,408.1
		c0,30.5,14.2,53.7,28.6,68.4c-3.8,15.9-5.2,39,6.1,65.1c8.7,20.1,31.6,45.8,68.1,76.4c2.4,15.3,7.3,31.3,14.6,47.6
		c2,7,7.8,23.3,21.4,39.4c15.7,18.5,45,40.6,95.9,40.6c17.7,0,34-3.4,48.5-10.1c5.5,7.1,10.9,13.8,15.8,19.6
		c17.7,20.9,25.9,26.4,32.1,29.2c5.7,2.6,20.4,14.8,29.1,22.1c8,6.7,14.9,12.5,20.5,16.2c1.1,0.7,2.1,1.4,3,2
		c13.3,9,24.7,15.4,50.6,15.4c25.7,0,49.1-6.2,65.9-17.5c5.5-3.7,12.5-9.5,20.5-16.2c8.8-7.3,23.4-19.5,29.1-22.1
		c6.2-2.8,14.4-8.3,32.1-29.2c4.9-5.8,10.3-12.5,15.8-19.6c14.5,6.7,30.8,10.1,48.5,10.1c50.9,0,80.2-22.1,95.9-40.6
		c13.6-16.1,19.4-32.4,21.4-39.4c7.3-16.3,12.2-32.3,14.6-47.6c36.5-30.6,59.4-56.2,68.1-76.4c11.3-26.1,9.9-49.2,6.1-65.1
		C866.8,461.7,881,438.6,881,408.1z M825.3,468.8c3.9,8.4,12.7,33.1-0.3,63.5c-9.9,23-44.3,53.9-68.7,73.8l0,0
		c-1.2,13.2-5,30.6-14.7,51.6c-0.6,2.7-4.6,17.4-17.2,32.3c-12.5,14.8-36.2,32.4-78.2,32.4c-25.4,0-43.9-8.5-57.1-19.7
		c-18,24.9-41.2,53.4-50.2,57.5c-14.4,6.5-41.7,32.5-53.4,40.3s-29.4,13-51.1,13s-27-5.2-38.7-13c-11.8-7.8-39.1-33.8-53.4-40.3
		c-8.9-4.1-32.1-32.5-50.2-57.4c-13.2,11.1-31.7,19.7-57.1,19.7c-42,0-65.7-17.6-78.2-32.4c-12.6-14.9-16.6-29.6-17.2-32.3
		c-9.7-21-13.5-38.4-14.7-51.6l0,0c-24.4-19.9-58.8-50.8-68.7-73.8c-13.1-30.3-4.2-55.1-0.3-63.5c-8.4-5.8-32.5-25.5-32.5-60.7
		c0-37,20.9-64.3,25.8-70.2c-1-17.6,2.9-31.7,11.7-41.9c4.3-5,9.2-8.3,13.8-10.6c11.1-47.7,32.3-79.1,62.9-93.3
		c33.5-15.5,69.6-6.5,89.5,0.9c1.9-4.2,3.9-8.2,6-12.2c0.1-0.2,0.2-0.4,0.3-0.6c1-1.8,2-3.6,3-5.4c0.2-0.3,0.3-0.5,0.5-0.8
		c1.1-1.8,2.1-3.6,3.2-5.3c-0.1-0.8,0.1-1.6,0.6-2.3c0.1-0.2,2.9-4.3,8.3-10.8c18.1-24.7,41.5-44.9,69.4-60.1
		c34.6-20.7,71.4-31.3,109.2-31.3c4.2,0,8.6,0,12.9,0.2c3.9-0.1,8.4-0.2,12.9-0.2c37.9,0,74.6,10.5,109.2,31.3
		c27.8,15,51.2,35.3,69.4,60.1c5.4,6.5,8.2,10.6,8.3,10.8c0.5,0.7,0.7,1.5,0.6,2.3c4.8,7.6,9.2,15.8,13.1,24.4
		c19.9-7.4,56-16.4,89.5-0.9c30.7,14.2,51.8,45.5,62.9,93.3c4.5,2.3,9.5,5.6,13.8,10.6c8.8,10.2,12.7,24.3,11.7,41.9
		c4.9,5.9,25.8,33.2,25.8,70.2C857.8,443.3,833.7,463,825.3,468.8z"/>
	<path d="M747.8,576c10.9-16.4,15.7-64.1,15.7-64.6c0.1-0.6,0.3-1.2,0.6-1.7c20-28.3,13.8-79.5,13.8-80c-0.1-0.7,0-1.5,0.4-2.1
		c11.8-21.7,13-38.1,12-48c-1.1-10.6-5-16.3-5.1-16.4c-0.7-1-0.8-2.3-0.4-3.4c12.2-29.7,15.6-63,16-67.5
		c-10.3-48.5-30.5-80.1-60.2-93.8c-30.7-14.2-64.8-5.9-83.8,1.1c13,33.1,10.9,98.2-6,193.8c-1.8,10.1-3.7,20.1-5.6,29.8
		c7.7,38.4,4.2,68.8,4.2,68.8s-29.9,158.8-37.7,175.7c-2.6,5.5-9.7,16.6-18.7,29.3c14.2,12.1,31.9,18.3,53.1,18.3
		c31.4,0,55.9-10,72.7-29.7c12.6-14.7,16-29.7,16-29.9c0.1-0.2,0.1-0.5,0.2-0.7c22.1-47.9,12.5-75.6,12.4-75.9
		C747,578.1,747.2,576.9,747.8,576z"/>
	<path d="M825.8,341.4c-0.6-0.7-1-1.7-0.9-2.6c1.9-25.5-7.7-38.3-17.2-44.6c-0.8,7.7-4.3,38-15.7,66.6c3.6,6.4,13.7,30.3-7,69.1
		c0.4,3.6,1.4,15.2,0.6,29.6c-1.3,22.6-6.4,40.6-15.2,53.5c-0.7,6.9-5.4,47.8-15.9,65.4c0.8,2.8,2.1,9,2.1,18.1l0,0
		c23.3-19.4,53.2-47,61.8-67c14.4-33.3-0.7-59.9-0.8-60.1c-0.5-0.8-0.6-1.8-0.4-2.7c0.2-0.9,0.8-1.7,1.6-2.1
		c0.3-0.2,31.8-18.9,31.8-56.5C850.8,369.8,826,341.7,825.8,341.4z"/>
</g>
</svg>
