<?xml version="1.0" encoding="utf-8"?>
<!-- Generator: Adobe Illustrator 25.4.1, SVG Export Plug-In . SVG Version: 6.00 Build 0)  -->
<svg version="1.1" id="Capa_1" xmlns="http://www.w3.org/2000/svg" xmlns:xlink="http://www.w3.org/1999/xlink" x="0px" y="0px"
	 viewBox="0 0 881 881" style="enable-background:new 0 0 881 881;" xml:space="preserve">
<style type="text/css">
	.st0{stroke:#FFFFFF;stroke-width:7.0294;stroke-linecap:round;stroke-linejoin:round;stroke-miterlimit:10;}
	.st1{fill:#FFFFFF;}
</style>
<g>
	<g>
		<path d="M854.3,408.1c0-40.3-25.9-69-25.9-69c2.4-32.7-13.1-45.9-24.9-51.2c-28.5-126-118.8-103.1-151.3-90.3
			c-4.3-9.8-9.2-19.2-14.9-28.2l0.2-1c0,0-2.8-4.1-8.2-10.6c-17.5-23.8-40.3-44-68.4-59.2c-28.7-17.2-64.9-30.8-107.5-30.8
			c-4.4,0-8.7,0.1-12.9,0.2c-4.3-0.2-8.6-0.2-12.9-0.2c-42.7,0-78.8,13.6-107.5,30.8c-28.1,15.2-51,35.4-68.4,59.2
			c-5.4,6.5-8.2,10.6-8.2,10.6l0.2,1c-5.7,9-10.6,18.4-14.9,28.2c-32.5-12.8-122.8-35.7-151.3,90.3c-11.8,5.3-27.3,18.5-24.9,51.2
			c0,0-25.9,28.8-25.9,69c0,40.3,33.6,59.5,33.6,59.5s-16.3,27.8-1,63.3c9.7,22.5,44.7,53.6,68.8,73.3c1,13.1,4.6,30.7,14.6,52.4
			c0,0,13.4,62.3,92.1,62.3c24.4,0,42.2-8,55.2-19.1c18.3,25.5,42.9,56,52.2,60.3c14.3,6.5,41.6,32.5,53.4,40.3
			c11.7,7.8,17,13,38.7,13s39.4-5.2,51.1-13c11.7-7.8,39-33.8,53.4-40.3c9.3-4.2,33.9-34.7,52.2-60.3c13,11.1,30.8,19.1,55.2,19.1
			c78.6,0,92.1-62.3,92.1-62.3c10-21.6,13.6-39.3,14.6-52.4c24.2-19.7,59.1-50.7,68.8-73.3c15.3-35.5-1-63.3-1-63.3
			S854.3,448.4,854.3,408.1z"/>
		<path d="M434.3,840c-25.9,0-37.3-6.4-50.6-15.4c-0.9-0.6-1.9-1.3-3-2c-5.6-3.7-12.5-9.5-20.5-16.2c-8.7-7.3-23.4-19.5-29.1-22.1
			c-6.2-2.8-14.4-8.3-32.1-29.2c-4.9-5.8-10.3-12.5-15.8-19.6c-14.5,6.7-30.8,10.1-48.5,10.1c-50.9,0-80.2-22.1-95.9-40.6
			c-13.6-16.1-19.4-32.4-21.4-39.4c-7.3-16.3-12.2-32.3-14.6-47.6c-36.5-30.6-59.4-56.3-68.1-76.4c-11.3-26.1-9.9-49.2-6.1-65.1
			C14.2,461.8,0,438.6,0,408.1C0,372,15.9,344,25.7,330.2c0.7-32.2,15.7-50,28.6-59.5c12.8-47.2,35.6-79.8,68.1-97
			c32.5-17.2,67-14.8,92.7-8.5c1-1.8,2-3.5,3.1-5.3c0.8-2.3,1.8-4.5,3.2-6.5c0.3-0.5,3.5-5.1,9.2-12.1c20.1-27.2,45.8-49.4,76.3-66
			C344.9,52.5,385.6,41,427.6,41c4.2,0,8.5,0.1,12.9,0.2c4.4-0.1,8.8-0.2,12.9-0.2c42,0,82.6,11.6,120.8,34.3
			c30.5,16.6,56.2,38.8,76.3,66c5.7,7,8.8,11.6,9.2,12.1c1.4,2,2.5,4.2,3.2,6.5c1,1.7,2.1,3.5,3.1,5.3c25.7-6.3,60.1-8.7,92.7,8.5
			c32.5,17.2,55.4,49.8,68.1,97c12.9,9.4,27.9,27.3,28.6,59.5C865.1,344,881,372,881,408.1c0,30.5-14.2,53.6-28.7,68.3
			c3.8,15.9,5.2,39-6.1,65.1c-8.7,20.2-31.6,45.8-68.1,76.4c-2.4,15.3-7.3,31.3-14.6,47.6c-2,7-7.8,23.3-21.4,39.4
			c-15.7,18.5-45,40.6-95.9,40.6c-17.7,0-34-3.4-48.5-10.1c-5.5,7.1-10.9,13.8-15.8,19.6c-17.7,20.9-25.9,26.4-32.1,29.2
			c-5.7,2.6-20.3,14.8-29.1,22.1c-8,6.7-15,12.5-20.5,16.2C483.4,833.8,460,840,434.3,840z M354.7,736.3c11,5.4,23.5,15.5,39.8,29
			c6.3,5.2,12.8,10.6,16,12.8c1.2,0.8,2.3,1.6,3.4,2.3c7.9,5.4,9.1,6.2,20.5,6.2c21.3,0,32.5-5.9,36.3-8.5c3.2-2.1,9.7-7.5,16-12.8
			c16.2-13.5,28.7-23.6,39.8-29c5.6-4.4,23-24.3,42.9-52.2c4.3-6.1,11-10,18.5-11c7.4-0.9,14.9,1.3,20.6,6.2
			c10.1,8.6,22.5,12.7,37.9,12.7c53.4,0,64.6-36.2,66-41.4c0.4-2.1,0.9-3.4,1.8-5.4c7.1-15.5,11.3-30,12.2-43.1
			c0.5-7.3,4.1-14.1,9.8-18.8c38.5-31.3,56.8-53.2,61.2-63.1c9-20.8,1.5-37.2,0.4-39.4c-3.9-6.2-5.1-13.2-3.3-20.3
			c1.9-7.1,6.6-12.6,13-16.1c2.1-1.3,20.2-13.5,20.2-36.3c0-28.2-17.9-49.9-19.1-51.3c-5-5.4-7.3-12.4-6.7-19.8
			c1.5-20-6.3-23.5-9.2-24.8c-7.7-3.4-13.3-10.3-15.1-18.5c-8.5-37.4-23.2-61.9-43.8-72.9c-26.2-13.8-58.8-3.6-71.6,1.5
			c-13.4,5.3-28.6-1-34.3-14.2c-3.7-8.6-8.1-16.9-13-24.6c-0.8-1.3-1.5-2.7-2.1-4c-1-1.3-2.3-3-3.9-4.9c-0.3-0.4-0.6-0.8-0.9-1.1
			c-15.6-21.2-35.6-38.5-59.6-51.5c-0.3-0.2-0.7-0.4-1-0.6c-29.9-17.9-61.5-27-93.8-27c-3.9,0-7.9,0.1-12,0.2c-0.6,0-1.3,0-1.9,0
			c-4.1-0.1-8.1-0.2-12-0.2c-32.3,0-63.9,9.1-93.8,27c-0.3,0.2-0.7,0.4-1,0.6c-24,13-44.1,30.3-59.6,51.5c-0.3,0.4-0.6,0.8-0.9,1.1
			c-1.6,1.9-2.9,3.6-3.9,4.9c-0.6,1.4-1.3,2.8-2.1,4.1c-4.9,7.7-9.2,16-13,24.6c-5.7,13.2-20.9,19.5-34.3,14.2
			c-12.8-5.1-45.5-15.3-71.6-1.5c-20.6,10.9-35.4,35.4-43.8,72.9c-1.9,8.2-7.4,15-15.1,18.5c-2.9,1.3-10.7,4.8-9.2,24.8
			c0.5,7.4-1.7,14.3-6.7,19.8c-1.2,1.4-19.1,23.1-19.1,51.3c0,22.9,18.2,35,20.2,36.3c6.5,3.5,11.2,9,13,16.1
			c1.9,7.1,0.6,14.1-3.3,20.3c-1.1,2.2-8.6,18.6,0.4,39.4c4.3,10,22.7,31.8,61.2,63.1c5.7,4.6,9.3,11.4,9.8,18.8
			c1,13.1,5.1,27.6,12.2,43.1c0.9,2,1.4,3.3,1.8,5.4c1.3,5.2,12.6,41.4,66,41.4c15.4,0,27.8-4.2,37.9-12.7
			c5.7-4.8,13.1-7.1,20.6-6.2c7.4,0.9,14.1,4.9,18.5,11C331.7,712.1,349.1,731.9,354.7,736.3z M525.8,736.7
			C525.8,736.7,525.8,736.7,525.8,736.7C525.8,736.7,525.8,736.7,525.8,736.7z M353.3,735.7C353.3,735.7,353.3,735.7,353.3,735.7
			C353.3,735.7,353.3,735.7,353.3,735.7z M527.7,735.7C527.7,735.7,527.7,735.7,527.7,735.7C527.7,735.7,527.7,735.7,527.7,735.7z
			 M797.7,481.1L797.7,481.1L797.7,481.1z M83.3,481.1C83.3,481.1,83.3,481.1,83.3,481.1C83.3,481.1,83.3,481.1,83.3,481.1z"/>
	</g>
	<path class="st0" d="M90,284.4c0,0-41.2,2.9-37.4,54.7c0,0-25.9,28.8-25.9,69s33.6,59.5,33.6,59.5s-16.3,27.8-1,63.3
		c15.3,35.5,93,92.1,93,92.1l64.2-62.3l-41.2-154.4L90,284.4z"/>
	<path class="st0" d="M240.6,202.9c0,0-130.4-71-164,89.2c0,0,2.9,36.4,16.3,69c0,0-17.3,24,6.7,68.1c0,0-6.7,52.7,14.4,82.5
		c0,0,4.8,48.9,16.3,66.2c0,0-10.5,28.8,12.5,78.6c0,0,13.4,62.3,92.1,62.3s89.2-83.4,89.2-83.4l26.9-166.9L240.6,202.9z"/>
	<path class="st0" d="M791,284.4c0,0,41.2,2.9,37.4,54.7c0,0,25.9,28.8,25.9,69s-33.6,59.5-33.6,59.5s16.3,27.8,1,63.3
		c-15.3,35.5-93,92.1-93,92.1l-64.2-62.3l41.2-154.4L791,284.4z"/>
	<path class="st0" d="M640.4,202.9c0,0,130.4-71,164,89.2c0,0-2.9,36.4-16.3,69c0,0,17.3,24-6.7,68.1c0,0,6.7,52.7-14.4,82.5
		c0,0-4.8,48.9-16.3,66.2c0,0,10.5,28.8-12.5,78.6c0,0-13.4,62.3-92.1,62.3S557,635.4,557,635.4l-26.9-166.9L640.4,202.9z"/>
	<path class="st0" d="M652.9,199.1c-4.4-10.3-9.6-20.3-15.6-29.7l0.2-1c0,0-2.8-4.1-8.2-10.6c-17.5-23.8-40.3-44-68.4-59.2
		c-28.7-17.2-64.9-30.8-107.5-30.8c-4.4,0-8.7,0.1-12.9,0.2c-4.3-0.2-8.6-0.2-12.9-0.2c-42.7,0-78.8,13.6-107.5,30.8
		c-28.1,15.2-51,35.4-68.4,59.2c-5.4,6.5-8.2,10.6-8.2,10.6l0.2,1c-6,9.4-11.2,19.4-15.6,29.7C195.5,275.8,263.6,529,263.6,529
		l176.9-89.7L617.4,529C617.4,529,685.5,275.8,652.9,199.1z"/>
	<path class="st1" d="M445.3,67.8c-1.6,0-3.2,0.1-4.8,0.1c-1.6-0.1-3.2-0.1-4.8-0.1V300h9.5V67.8z"/>
	<path class="st1" d="M497.7,273.4c-13.7-4.3-29.4-6.6-47.5-6.6c-3.3,0-6.5,0-9.7,0.1c-3.2-0.1-6.4-0.1-9.7-0.1
		c-18,0-33.7,2.3-47.5,6.6c-172.7,37.1-151.7,218.6-151.7,218.6s29.9,158.8,37.7,175.7c7.8,16.9,58.6,85.9,72.9,92.4
		c14.3,6.5,41.6,32.5,53.4,40.3c11.7,7.8,17,13,38.7,13c21.7,0,39.4-5.2,51.1-13c11.7-7.8,39-33.8,53.4-40.3
		c14.3-6.5,65.1-75.5,72.9-92.4c7.8-16.9,37.7-175.7,37.7-175.7S670.4,310.5,497.7,273.4z"/>
</g>
</svg>
