<?xml version="1.0" encoding="utf-8"?>
<!-- Generator: Adobe Illustrator 25.4.1, SVG Export Plug-In . SVG Version: 6.00 Build 0)  -->
<svg version="1.1" id="Capa_1" xmlns="http://www.w3.org/2000/svg" xmlns:xlink="http://www.w3.org/1999/xlink" x="0px" y="0px"
	 viewBox="0 0 881 881" style="enable-background:new 0 0 881 881;" xml:space="preserve">
<style type="text/css">
	.st0{fill:#FFFFFF;}
</style>
<g>
	<path d="M476.7,743.9c-12.2,0-24.3,0-36.4-0.1c-19,0.1-39.2,0.6-58.8-0.6C193,740.7,34.5,731.6,33,731.5c-18.5-1.1-33-16.4-33-34.9
		V616c0-214.7,106.2-332.1,195.2-392.7c103.4-70.4,213-86.2,243.2-86.2h4.2c30.2,0,139.8,15.8,243.2,86.2
		c89,60.6,195.2,178,195.2,392.7v80.6c0,18.5-14.5,33.9-33,34.9c-1.6,0.1-160,9.2-348.5,11.8C492,743.7,484.3,743.9,476.7,743.9z
		 M846,696.5L846,696.5L846,696.5z M440.3,673.8c12.3,0.1,24.3,0.1,36.4,0.1c6.5,0,13-0.2,19.4-0.6c0.6,0,1.1-0.1,1.7-0.1
		c136.7-1.8,257.4-7.2,313.3-10V616c0-147.8-55.4-260.5-164.6-334.9c-89.5-60.9-185-74.1-203.8-74.1h-4.2
		c-18.8,0-114.3,13.2-203.8,74.1C125.4,355.4,70,468.1,70,616v47.4c55.9,2.8,176.7,8.1,313.3,10c0.6,0,1.1,0,1.7,0.1
		c6.4,0.4,12.9,0.6,19.4,0.6C416.4,673.9,428.4,673.9,440.3,673.8z"/>
	<g>
		<g>
			<path class="st0" d="M846,616c0-378.2-345.3-444-403.4-444h-4.2C380.3,172,35,237.8,35,616v80.6c0,0,157.5,9.2,347.8,11.7
				c6.9,0.4,14.1,0.7,21.5,0.7c12.1,0,24.2,0,36.2-0.1c12,0.1,24.1,0.1,36.2,0.1c7.4,0,14.6-0.2,21.5-0.7
				c190.3-2.6,347.8-11.7,347.8-11.7V616z"/>
		</g>
		<path d="M450,201.2v63.6h204.2c0,0-40.8-39.9-96.9-66.5L450,201.2z"/>
		<path d="M438.7,201.2v63.6H234.5c0,0,40.8-39.9,96.9-66.5L438.7,201.2z"/>
		<polygon points="357.9,316.1 337,502.2 577.2,502.2 553.5,318 		"/>
		<ellipse class="st0" cx="443.3" cy="400.6" rx="66.5" ry="59.8"/>
		<rect x="393.9" y="529.8" width="170" height="90.2"/>
		<rect x="342.1" y="529.8" transform="matrix(-1 -1.224647e-16 1.224647e-16 -1 730.4948 1149.761)" width="46.4" height="90.2"/>
		<path d="M35,617.2v33.8c536.7,39,781.4-5.2,811-11.1V616C597,647.6,135.5,623.1,35,617.2z"/>
		<path d="M680.4,473.2H743c0,0,18.4,63.7,19.6,141.4c0,0-53.6,3.9-66.5,2.8C696.1,617.4,703,528,680.4,473.2z"/>
		<path d="M756.4,473.2h32.4c0,0,21.8,62.4,22.9,138.4c0,0-27.3,3.4-40.1,2.3C771.6,614,773.9,526.3,756.4,473.2z"/>
		<path d="M801.7,471.6H824c0,0,20.7,60.7,21.8,136.8c0,0-10.1,3.8-22.9,2.7C822.9,611.1,827.9,528.6,801.7,471.6z"/>
		<ellipse class="st0" cx="515.6" cy="577.7" rx="37.4" ry="34.6"/>
		<path d="M55.2,469.3C42.7,511.1,35.4,558.4,35,612.1c41.1,4,141.9,6.9,141.9,6.9c-0.6-76.6,15.1-149.8,15.1-149.8H55.2z"/>
		<path d="M250.7,469.3c0,0-16.8,69.3-13.4,149.2l-44.1-1.1c0,0,9.5-106.2,16.8-146.4L250.7,469.3z"/>
		<path d="M262.5,472.1l73.8,1.1c0,0-6.1,67.1-6.1,148.6c0,0-63.7,2.2-83.3-2.2C246.8,619.6,234.5,524.1,262.5,472.1z"/>
		<path class="st0" d="M269.2,485.5l-5,48.6l57.6,0.6l0.6-48.6L269.2,485.5z M312.7,525.8l-39.7-1.1l5-29.6h34.6V525.8z"/>
		<path class="st0" d="M260.8,544.2l-2.2,49.2l61.5,1.7l0.6-48.6L260.8,544.2z M309.4,586.1l-40.2-0.6l1.1-32.4l40.2,2.2
			L309.4,586.1z"/>
		<g>
			<path d="M636.6,621.3c-32.8,0-59.5-30.3-59.5-67.6c0-37.3,26.7-67.6,59.5-67.6s59.5,30.3,59.5,67.6
				C696.1,591,669.4,621.3,636.6,621.3z M636.6,498.4c-26,0-47.2,24.8-47.2,55.3s21.2,55.3,47.2,55.3s47.2-24.8,47.2-55.3
				S662.6,498.4,636.6,498.4z"/>
		</g>
	</g>
	<ellipse class="st0" cx="636.6" cy="553.7" rx="53.4" ry="61.5"/>
	<g>
		<path d="M640.2,602.9c-14.3,0-29.9-7.7-37-18.4c-6.4-9.6-11.7-32.3,0.2-55.4c11.9-23.1,37.1-20.1,57.4-17.8l4.1,0.5
			c24.5,2.7,29.3,34.1,29.5,35.4c0,0.1,0,0.2,0,0.3c1.2,12.6-2.8,24.4-11.6,34.1C669.4,596.5,648.1,602.9,640.2,602.9z M640.4,522.2
			c-12,0-21,2.8-26,12.6c-9.4,18.2-5.5,36-0.9,42.9c4.2,6.3,15.4,12.9,26.7,12.9c5.1,0,22.5-5.1,33.5-17.2
			c6.5-7.1,9.3-15.4,8.5-24.4c-0.3-1.8-4.2-23.2-18.6-24.8l-4.2-0.5C652.4,522.8,646.1,522.2,640.4,522.2z"/>
	</g>
	<path class="st0" d="M688.2,548.1c0,0-4-28-24-30.2c-20.1-2.2-44.7-6.7-55.3,14c-10.6,20.7-6.1,40.8-0.6,49.2
		c5.6,8.4,19,15.6,31.9,15.6C650.8,596.7,691.6,582.2,688.2,548.1z"/>
	<ellipse cx="665.1" cy="549" rx="19.3" ry="22.6"/>
</g>
</svg>
