<?xml version="1.0" encoding="utf-8"?>
<!-- Generator: Adobe Illustrator 25.4.1, SVG Export Plug-In . SVG Version: 6.00 Build 0)  -->
<svg version="1.1" id="Capa_1" xmlns="http://www.w3.org/2000/svg" xmlns:xlink="http://www.w3.org/1999/xlink" x="0px" y="0px"
	 viewBox="0 0 881 881" style="enable-background:new 0 0 881 881;" xml:space="preserve">
<style type="text/css">
	.st0{fill:none;stroke:#000000;stroke-width:16.839;stroke-linecap:round;stroke-linejoin:round;stroke-miterlimit:10;}
	.st1{fill:#FFFFFF;}
	.st2{fill:#FFFFFF;stroke:#000000;stroke-width:6.3146;stroke-linecap:round;stroke-linejoin:round;stroke-miterlimit:10;}
</style>
<g>
	<path d="M771.6,269.7c0-0.1,0-0.2-0.1-0.3l-0.3-1c0-0.2-0.1-0.3-0.1-0.5l-0.2-0.9c0,0,0-0.1,0-0.1c0,0,0,0,0-0.1
		c-0.4-1.6-0.8-2.8-1-3.5c0,0,0-0.1,0-0.1c0-0.1,0-0.1,0-0.2l-0.2-0.6c0,0,0-0.1,0-0.2c0-0.1-0.1-0.3-0.1-0.5c0-0.1-0.1-0.3-0.2-0.5
		c0-0.1-0.1-0.2-0.1-0.3c-0.6-2-1.5-4-2.6-5.8c-1.4-2.5-2.9-5-4.3-7.4l-1.2-1.9c-1.1-1.8-2.2-3.6-3.2-5.3l-1.3-2.1
		c-1.1-1.7-2.1-3.4-3.2-5.1l-1.2-1.9c-1.1-1.7-2.2-3.5-3.3-5.2l-1-1.5c-1.2-1.8-2.3-3.6-3.5-5.3l-0.9-1.3c-1.2-1.8-2.4-3.6-3.6-5.3
		l-0.8-1.2c-1.3-1.8-2.5-3.6-3.8-5.4l-0.7-1c-1.3-1.8-2.6-3.6-3.9-5.4c0,0,0,0,0-0.1c0-0.1-0.2-0.3-0.2-0.3
		c-0.1-0.1-0.2-0.3-0.3-0.4c-57.2-78.1-122.3-123.4-204-141.8l-28-43.1c-2.5-3.8-5.7-6.9-9.4-9.1C484.1,1.8,478.6,0,472.6,0h-70.8
		C396,0,390.6,1.7,386,4.6c-4.4,2.7-8.2,6.6-10.7,11.4l-22,41.5c-81,18.6-145.6,63.9-202.5,141.4c-0.1,0.1-0.2,0.2-0.3,0.3l-0.4,0.5
		c-1.3,1.8-2.6,3.6-3.9,5.4l-0.7,1c-1.3,1.8-2.5,3.6-3.8,5.4l-0.8,1.2c-1.2,1.8-2.4,3.6-3.7,5.4l-0.9,1.3c-1.2,1.7-2.3,3.5-3.5,5.3
		l-1,1.6c-1.1,1.7-2.2,3.4-3.3,5.2l-1.2,1.9c-1.1,1.7-2.1,3.4-3.2,5.1l-1.3,2.1c-1.1,1.8-2.1,3.6-3.2,5.3l-1.2,1.9
		c-1.5,2.4-2.9,4.9-4.3,7.4c-1.1,1.8-1.9,3.8-2.6,5.8l0,0.1c0,0.1-0.1,0.2-0.1,0.4l-0.2,0.5c0,0.1-0.1,0.4-0.1,0.4l-0.2,0.5
		c0,0.1,0,0.2-0.1,0.2c-0.3,0.9-0.6,2.1-1,3.5c0,0.1-0.1,0.3-0.1,0.4l-0.3,1.1c0,0-0.1,0.2-0.1,0.2l-0.3,1.2c0,0,0,0.1,0,0.1
		c-7.9,30.2-32.1,145.1-13.5,354.2c0.3,3.6,1.3,7.1,2.9,10.4l66.8,136.3c1,2.1,2.3,4,3.7,5.8c10.4,12.6,26.9,27,46.9,23.9
		c12.3-1.9,22.5-10.2,27.3-22.3c1.5-3.6,2.9-7.2,3.5-22.7c45.2,36.1,63.5,43.8,71.2,46.5c5.7,2.7,12.2,7,14.9,9.6
		c5.6,17.4,21.8,41.5,51.2,56.4c14.8,8.9,32.9,13.4,53.7,13.4c1,0,1.9,0,2.9,0c1,0,1.9,0,2.9,0c20.8,0,38.8-4.5,53.7-13.4
		c29.3-14.8,45.6-38.9,51.2-56.4c2.6-2.6,9.2-6.9,14.8-9.6c7.7-2.7,25.8-10.3,70.6-46.1c0.7,15.2,2.1,18.7,3.5,22.3
		c4.8,12.1,15,20.4,27.3,22.3c19.9,3.1,36.5-11.3,46.9-23.9c1.5-1.8,2.7-3.7,3.7-5.8l66.8-136.3c1.6-3.2,2.6-6.8,2.9-10.4
		C803.7,414.8,779.5,299.9,771.6,269.7z M139.6,270.9L139.6,270.9L139.6,270.9L139.6,270.9z"/>
	<g>
		<path class="st0" d="M547.6,759c0,0,94.4-63.9,124-120.2c29.6-56.3,26.7,21.9,26.7,21.9S591.4,760.9,552.3,774.3
			C513.2,787.6,547.6,759,547.6,759z"/>
		<path class="st1" d="M547.6,759c0,0,94.4-63.9,124-120.2c29.6-56.3,26.7,21.9,26.7,21.9S591.4,760.9,552.3,774.3
			C513.2,787.6,547.6,759,547.6,759z"/>
	</g>
	<g>
		<path class="st0" d="M334,759c0,0-94.4-63.9-124-120.2c-29.6-56.3-26.7,21.9-26.7,21.9s106.8,100.1,145.9,113.5
			C368.4,787.6,334,759,334,759z"/>
		<path class="st1" d="M334,759c0,0-94.4-63.9-124-120.2c-29.6-56.3-26.7,21.9-26.7,21.9s106.8,100.1,145.9,113.5
			C368.4,787.6,334,759,334,759z"/>
	</g>
	<g>
		<path class="st0" d="M724.3,355.4L531.8,318c3.5-22.3,5.2-36.8,5.2-36.8l-97.2,18.9l-97.4-18.9c0,0,1.8,14.5,5.3,36.9l-191.5,37.3
			l-14.9,139.4c0,0,75.6,108.7,153.1,108.7c73,0,118.6-43.2,145.5-48.1c27,5,72.7,48.1,145.9,48.1c77.7,0,153.4-108.7,153.4-108.7
			L724.3,355.4z"/>
		<path class="st1" d="M724.3,355.4L531.8,318c3.5-22.3,5.2-36.8,5.2-36.8l-97.2,18.9l-97.4-18.9c0,0,1.8,14.5,5.3,36.9l-191.5,37.3
			l-14.9,139.4c0,0,75.6,108.7,153.1,108.7c73,0,118.6-43.2,145.5-48.1c27,5,72.7,48.1,145.9,48.1c77.7,0,153.4-108.7,153.4-108.7
			L724.3,355.4z"/>
	</g>
	<g>
		<path class="st0" d="M741.1,269.9C655.6,121.4,560.6,85.7,467.4,78.1l-1.5-1.9c-8.4,0-16.9,0.1-25.4,0.4c-8.5-0.3-17-0.4-25.4-0.4
			l-1.5,1.9c-93.3,7.6-188.2,43.4-273.7,191.8c0,0-36.1,110.9-14.7,351.3L192,757.5c0,0,18.7,22.7,24,9.4s-2.7-192.4-2.7-192.4
			l-64.1-42.7c0,0,0-129.6,34.7-147c34.7-17.4,180.3-18.7,180.3-18.7v20l14.7,2.7l20-33.4h82.8l20,33.4l14.7-2.7v-20
			c0,0,145.6,1.3,180.3,18.7s34.7,147,34.7,147l-64.1,42.7c0,0-8,179-2.7,192.4c5.3,13.4,24-9.4,24-9.4l66.8-136.3
			C777.1,380.8,741.1,269.9,741.1,269.9z"/>
		<path class="st1" d="M741.1,269.9C655.6,121.4,560.6,85.7,467.4,78.1l-1.5-1.9c-8.4,0-16.9,0.1-25.4,0.4c-8.5-0.3-17-0.4-25.4-0.4
			l-1.5,1.9c-93.3,7.6-188.2,43.4-273.7,191.8c0,0-36.1,110.9-14.7,351.3L192,757.5c0,0,18.7,22.7,24,9.4s-2.7-192.4-2.7-192.4
			l-64.1-42.7c0,0,0-129.6,34.7-147c34.7-17.4,180.3-18.7,180.3-18.7v20l14.7,2.7l20-33.4h82.8l20,33.4l14.7-2.7v-20
			c0,0,145.6,1.3,180.3,18.7s34.7,147,34.7,147l-64.1,42.7c0,0-8,179-2.7,192.4c5.3,13.4,24-9.4,24-9.4l66.8-136.3
			C777.1,380.8,741.1,269.9,741.1,269.9z"/>
	</g>
	<g>
		<path class="st0" d="M706.6,216.6l18.6,232.9c6.6,39.6,6.6,82.3,6.6,82.3s16.3-2.7,30.1-9.1c5.4-172.3-20.7-252.7-20.7-252.7
			C729.7,250.3,718.2,232.6,706.6,216.6z"/>
		<path class="st1" d="M706.6,216.6l18.6,232.9c6.6,39.6,6.6,82.3,6.6,82.3s16.3-2.7,30.1-9.1c5.4-172.3-20.7-252.7-20.7-252.7
			C729.7,250.3,718.2,232.6,706.6,216.6z"/>
	</g>
	<g>
		<path class="st0" d="M174.4,216.6l-18.6,232.9c-6.6,39.6-6.6,82.3-6.6,82.3s-16.3-2.7-30.1-9.1c-5.4-172.3,20.7-252.7,20.7-252.7
			C151.3,250.3,162.8,232.6,174.4,216.6z"/>
		<path class="st1" d="M174.4,216.6l-18.6,232.9c-6.6,39.6-6.6,82.3-6.6,82.3s-16.3-2.7-30.1-9.1c-5.4-172.3,20.7-252.7,20.7-252.7
			C151.3,250.3,162.8,232.6,174.4,216.6z"/>
	</g>
	<polygon class="st2" points="372.9,83.5 401.4,29.7 414.3,77.4 447.7,355.4 399.2,355.4 379.1,388.8 364.4,386.2 364.4,366.1 
		369.8,88.2 	"/>
	<g>
		<path class="st0" d="M547.6,759c-5.7-4.8-16.2,4.8-27.7,9.5c-10.7,4.5-34.7,18.9-79.1,20.8c-44.4-1.9-68.4-16.3-79.1-20.8
			c-11.4-4.8-21.9-14.3-27.7-9.5c-5.7,4.8-4.8,15.3-4.8,15.3s27.7,12.4,31.5,26.7c2.6,9.6,13.7,29.1,37.8,40.8
			c9,5.6,21.6,9.7,39.4,9.7c1,0,1.9,0,2.9-0.1c1,0,1.9,0.1,2.9,0.1c17.8,0,30.4-4.1,39.4-9.7c24.1-11.8,35.2-31.2,37.8-40.8
			c3.8-14.3,31.5-26.7,31.5-26.7S553.3,763.8,547.6,759z"/>
		<path class="st1" d="M547.6,759c-5.7-4.8-16.2,4.8-27.7,9.5c-10.7,4.5-34.7,18.9-79.1,20.8c-44.4-1.9-68.4-16.3-79.1-20.8
			c-11.4-4.8-21.9-14.3-27.7-9.5c-5.7,4.8-4.8,15.3-4.8,15.3s27.7,12.4,31.5,26.7c2.6,9.6,13.7,29.1,37.8,40.8
			c9,5.6,21.6,9.7,39.4,9.7c1,0,1.9,0,2.9-0.1c1,0,1.9,0.1,2.9,0.1c17.8,0,30.4-4.1,39.4-9.7c24.1-11.8,35.2-31.2,37.8-40.8
			c3.8-14.3,31.5-26.7,31.5-26.7S553.3,763.8,547.6,759z"/>
	</g>
	<polygon class="st2" points="508.1,83.5 473.5,30 466.8,77.4 433.4,355.4 481.9,355.4 502,388.8 516.6,386.2 516.6,366.1 
		511.3,88.2 	"/>
	<polygon class="st2" points="481.9,355.4 472.6,29.5 401.8,29.5 399.1,355.4 	"/>
</g>
</svg>
