<svg id="rebel_pilot" xmlns="http://www.w3.org/2000/svg" xmlns:xlink="http://www.w3.org/1999/xlink" x="0px" y="0px"
	 viewBox="0 0 881 881" style="enable-background:new 0 0 881 881;" xml:space="preserve">

<defs>
<style type="text/css">
	.st0{fill:#FFFFFF;}
	#rebel_pilot:hover #negro { fill: red; }
</style>

	<script>
		let theRebelPilot = document.querySelector("#rebel_pilot");

		function logMyId() {
		console.log("clicked on an element:", this.id); }

		theRebelPilot.addEventListener("click", logMyId);
	</script>
</defs>


<path id="blanco" class="st0" d="M771.6,269.7c0-0.1,0-0.2-0.1-0.3l-0.3-1c0-0.2-0.1-0.3-0.1-0.5l-0.2-0.9v-0.1c0,0,0,0,0-0.1
	c-0.4-1.6-0.8-2.8-1-3.5v-0.1c0-0.1,0-0.1,0-0.2l-0.2-0.6c0,0,0-0.1,0-0.2s-0.1-0.3-0.1-0.5c0-0.1-0.1-0.3-0.2-0.5
	c0-0.1-0.1-0.2-0.1-0.3c-0.6-2-1.5-4-2.6-5.8c-1.4-2.5-2.9-5-4.3-7.4l-1.2-1.9c-1.1-1.8-2.2-3.6-3.2-5.3l-1.3-2.1
	c-1.1-1.7-2.1-3.4-3.2-5.1l-1.2-1.9c-1.1-1.7-2.2-3.5-3.3-5.2l-1-1.5c-1.2-1.8-2.3-3.6-3.5-5.3l-0.9-1.3c-1.2-1.8-2.4-3.6-3.6-5.3
	l-0.8-1.2c-1.3-1.8-2.5-3.6-3.8-5.4l-0.7-1c-1.3-1.8-2.6-3.6-3.9-5.4c0,0,0,0,0-0.1s-0.2-0.3-0.2-0.3c-0.1-0.1-0.2-0.3-0.3-0.4
	C673.1,120.9,608,75.6,526.3,57.2l-28-43.1c-2.5-3.8-5.7-6.9-9.4-9.1c-4.8-3.2-10.3-5-16.3-5h-70.8C396,0,390.6,1.7,386,4.6
	c-4.4,2.7-8.2,6.6-10.7,11.4l-22,41.5c-81,18.6-145.6,63.9-202.5,141.4c-0.1,0.1-0.2,0.2-0.3,0.3l-0.4,0.5c-1.3,1.8-2.6,3.6-3.9,5.4
	l-0.7,1c-1.3,1.8-2.5,3.6-3.8,5.4l-0.8,1.2c-1.2,1.8-2.4,3.6-3.7,5.4l-0.9,1.3c-1.2,1.7-2.3,3.5-3.5,5.3l-1,1.6
	c-1.1,1.7-2.2,3.4-3.3,5.2l-1.2,1.9c-1.1,1.7-2.1,3.4-3.2,5.1l-1.3,2.1c-1.1,1.8-2.1,3.6-3.2,5.3l-1.2,1.9c-1.5,2.4-2.9,4.9-4.3,7.4
	c-1.1,1.8-1.9,3.8-2.6,5.8v0.1c0,0.1-0.1,0.2-0.1,0.4l-0.2,0.5c0,0.1-0.1,0.4-0.1,0.4l-0.2,0.5c0,0.1,0,0.2-0.1,0.2
	c-0.3,0.9-0.6,2.1-1,3.5c0,0.1-0.1,0.3-0.1,0.4l-0.3,1.1l-0.1,0.2l-0.3,1.2v0.1c-7.9,30.2-32.1,145.1-13.5,354.2
	c0.3,3.6,1.3,7.1,2.9,10.4l66.8,136.3c1,2.1,2.3,4,3.7,5.8c10.4,12.6,26.9,27,46.9,23.9c12.3-1.9,22.5-10.2,27.3-22.3
	c1.5-3.6,2.9-7.2,3.5-22.7c45.2,36.1,63.5,43.8,71.2,46.5c5.7,2.7,12.2,7,14.9,9.6c5.6,17.4,21.8,41.5,51.2,56.4
	c14.8,8.9,32.9,13.4,53.7,13.4c1,0,1.9,0,2.9,0s1.9,0,2.9,0c20.8,0,38.8-4.5,53.7-13.4c29.3-14.8,45.6-38.9,51.2-56.4
	c2.6-2.6,9.2-6.9,14.8-9.6c7.7-2.7,25.8-10.3,70.6-46.1c0.7,15.2,2.1,18.7,3.5,22.3c4.8,12.1,15,20.4,27.3,22.3
	c19.9,3.1,36.5-11.3,46.9-23.9c1.5-1.8,2.7-3.7,3.7-5.8l66.8-136.3c1.6-3.2,2.6-6.8,2.9-10.4C803.7,414.8,779.5,299.9,771.6,269.7z"
	/>
<path id="negro" d="M771.6,269.7c0-0.1,0-0.2-0.1-0.3l-0.3-1c0-0.2-0.1-0.3-0.1-0.5l-0.2-0.9v-0.1c0,0,0,0,0-0.1
	c-0.4-1.6-0.8-2.8-1-3.5v-0.1c0-0.1,0-0.1,0-0.2l-0.2-0.6c0,0,0-0.1,0-0.2s-0.1-0.3-0.1-0.5c0-0.1-0.1-0.3-0.2-0.5
	c0-0.1-0.1-0.2-0.1-0.3c-0.6-2-1.5-4-2.6-5.8c-1.4-2.5-2.9-5-4.3-7.4l-1.2-1.9c-1.1-1.8-2.2-3.6-3.2-5.3l-1.3-2.1
	c-1.1-1.7-2.1-3.4-3.2-5.1l-1.2-1.9c-1.1-1.7-2.2-3.5-3.3-5.2l-1-1.5c-1.2-1.8-2.3-3.6-3.5-5.3l-0.9-1.3c-1.2-1.8-2.4-3.6-3.6-5.3
	l-0.8-1.2c-1.3-1.8-2.5-3.6-3.8-5.4l-0.7-1c-1.3-1.8-2.6-3.6-3.9-5.4c0,0,0,0,0-0.1s-0.2-0.3-0.2-0.3c-0.1-0.1-0.2-0.3-0.3-0.4
	C673.1,120.9,608,75.6,526.3,57.2l-28-43.1c-2.5-3.8-5.7-6.9-9.4-9.1c-4.8-3.2-10.3-5-16.3-5h-70.8C396,0,390.6,1.7,386,4.6
	c-4.4,2.7-8.2,6.6-10.7,11.4l-22,41.5c-81,18.6-145.6,63.9-202.5,141.4c-0.1,0.1-0.2,0.2-0.3,0.3l-0.4,0.5c-1.3,1.8-2.6,3.6-3.9,5.4
	l-0.7,1c-1.3,1.8-2.5,3.6-3.8,5.4l-0.8,1.2c-1.2,1.8-2.4,3.6-3.7,5.4l-0.9,1.3c-1.2,1.7-2.3,3.5-3.5,5.3l-1,1.6
	c-1.1,1.7-2.2,3.4-3.3,5.2l-1.2,1.9c-1.1,1.7-2.1,3.4-3.2,5.1l-1.3,2.1c-1.1,1.8-2.1,3.6-3.2,5.3l-1.2,1.9c-1.5,2.4-2.9,4.9-4.3,7.4
	c-1.1,1.8-1.9,3.8-2.6,5.8v0.1c0,0.1-0.1,0.2-0.1,0.4l-0.2,0.5c0,0.1-0.1,0.4-0.1,0.4l-0.2,0.5c0,0.1,0,0.2-0.1,0.2
	c-0.3,0.9-0.6,2.1-1,3.5c0,0.1-0.1,0.3-0.1,0.4l-0.3,1.1l-0.1,0.2l-0.3,1.2v0.1c-7.9,30.2-32.1,145.1-13.5,354.2
	c0.3,3.6,1.3,7.1,2.9,10.4l66.8,136.3c1,2.1,2.3,4,3.7,5.8c10.4,12.6,26.9,27,46.9,23.9c12.3-1.9,22.5-10.2,27.3-22.3
	c1.5-3.6,2.9-7.2,3.5-22.7c45.2,36.1,63.5,43.8,71.2,46.5c5.7,2.7,12.2,7,14.9,9.6c5.6,17.4,21.8,41.5,51.2,56.4
	c14.8,8.9,32.9,13.4,53.7,13.4c1,0,1.9,0,2.9,0s1.9,0,2.9,0c20.8,0,38.8-4.5,53.7-13.4c29.3-14.8,45.6-38.9,51.2-56.4
	c2.6-2.6,9.2-6.9,14.8-9.6c7.7-2.7,25.8-10.3,70.6-46.1c0.7,15.2,2.1,18.7,3.5,22.3c4.8,12.1,15,20.4,27.3,22.3
	c19.9,3.1,36.5-11.3,46.9-23.9c1.5-1.8,2.7-3.7,3.7-5.8l66.8-136.3c1.6-3.2,2.6-6.8,2.9-10.4C803.7,414.8,779.5,299.9,771.6,269.7z
	 M701.6,209.8c-2.3,1.7-3.6,4.5-3.4,7.4L713.3,406c-4.4-10.1-9.8-17.8-16.6-21.2c-31.6-15.8-155-18.3-176.9-18.7V366l-5.3-277.9
	c0-0.6-0.2-1.2-0.5-1.7l-1.4-2.1C576.7,97.3,641,129.9,701.6,209.8z M505.4,85.2C505.5,85.2,505.5,85.3,505.4,85.2l2.7,4l5.3,276.9
	v17.5l-9.9,1.8L485,354.5l-9-314.7L505.4,85.2z M404.9,32.7h64.6l9.1,319.6h-76.4L404.9,32.7z M375.5,85.2c0.1-0.1,0.1-0.2,0.2-0.3
	l22.9-43.1L396,354.6l-18.4,30.6l-10-1.8V366L373,89L375.5,85.2z M368.6,84.3l-1.4,2.2c-0.3,0.5-0.5,1.1-0.5,1.7l-5.4,278l0,0
	c-20.8,0.3-145.6,2.7-177.3,18.7c-6.5,3.3-11.8,10.5-16.1,20l15-187.6c0.2-2.9-1.1-5.7-3.4-7.4C240,129.9,304.3,97.2,368.6,84.3z
	 M139.8,270c11.5-19.7,23-37.4,34.6-53.4l-18.6,232.9c-6.6,39.6-6.6,82.3-6.6,82.3s-16.3-2.7-30.1-9.1
	C113.7,350.4,139.8,270,139.8,270z M216,766.9c-5.3,13.3-24-9.4-24-9.4l-66.8-136.3c-2.8-32-4.7-61.7-5.7-89.1
	c13.6,5.6,27.7,7.9,28.3,8.1c0.5,0.1,0.9,0.1,1.4,0.1c2,0,3.9-0.7,5.4-2c0.6-0.5,1.1-1.1,1.6-1.8l57.1,38
	C213.3,574.5,221.3,753.6,216,766.9z M320.8,770.5c-24.6-12.4-64.4-45.1-94.9-71.6c-0.2-9.7-0.5-20.8-0.8-33.5
	c0-1.3-0.1-2.6-0.1-3.9c30.9,40,83.2,79.1,102,92.5C322.3,759.1,321.1,766,320.8,770.5z M552.4,774.3c0,0-27.7,12.4-31.5,26.7
	c-2.6,9.6-13.7,29-37.8,40.8c-9,5.6-21.6,9.7-39.4,9.7c-1,0-1.9-0.1-2.9-0.1c-1,0.1-1.9,0.1-2.9,0.1c-17.8,0-30.4-4.1-39.4-9.7
	c-24.1-11.7-35.2-31.2-37.8-40.8c-3.8-14.3-31.5-26.7-31.5-26.7s-0.9-10.5,4.8-15.3c5.8-4.8,16.3,4.7,27.7,9.5
	c10.7,4.5,34.7,18.9,79.1,20.8c44.4-1.9,68.4-16.3,79.1-20.8c11.5-4.7,22-14.3,27.7-9.5S552.4,774.3,552.4,774.3z M655.5,665.4
	c-0.4,13.1-0.6,24.5-0.8,34.4c-30.3,26.3-69.6,58.4-93.9,70.8c-0.3-4.5-1.5-11.5-6.2-16.5c18.6-13.3,70-51.6,101-91.2
	C655.6,663.8,655.6,664.6,655.5,665.4z M658.9,574.1c0,0.1,0,0.8-0.1,2.1c-22.4,15.6-47.6,27.3-73,27.3
	c-73.2,0-118.9-43.1-145.9-48.1c-26.9,4.9-72.5,48.1-145.5,48.1c-25.2,0-50.3-11.5-72.6-27.1c-0.1-1.4-0.1-2.2-0.1-2.3
	c-0.1-2.7-1.5-5.1-3.7-6.6l-32.8-21.9c-10.7-10.5-20-20.8-27.2-29.4c0.5-12.6,1.5-31.3,3.9-50.5c7.3-58.3,20.5-70.7,25.8-73.4
	c25.3-12.7,122.9-16.9,168.1-17.7v11.5c0,4.1,2.9,7.5,6.9,8.3l14.7,2.7c3.5,0.6,6.9-0.9,8.7-4l17.5-29.3h73.3l17.5,29.3
	c1.8,3,5.3,4.6,8.7,4l14.7-2.7c4-0.7,6.9-4.2,6.9-8.3v-11.5c45.2,0.8,142.8,5,168.1,17.7c5.3,2.7,18.4,15.1,25.8,73.4
	c2.4,19.1,3.5,37.8,3.9,50.3c-7.3,8.7-16.7,19.2-27.7,29.9l-32.3,21.5C660.4,569,659,571.4,658.9,574.1z M755.4,621.2l-66.8,136.3
	c0,0-18.7,22.8-24,9.4s2.7-192.4,2.7-192.4l57.4-38.2c0.5,0.7,1,1.4,1.7,1.9c1.5,1.3,3.5,2,5.4,2c0.5,0,0.9,0,1.4-0.1
	c0.6-0.1,14.5-2.4,28-7.9C760.1,559.6,758.3,589.2,755.4,621.2z M761.9,522.7c-13.8,6.4-30.1,9.1-30.1,9.1s0-42.7-6.6-82.3
	l-18.6-232.9c11.6,16,23.1,33.7,34.6,53.4C741.2,270,767.3,350.4,761.9,522.7z"/>
</svg>
