<?xml version="1.0" encoding="utf-8"?>
<!-- Generator: Adobe Illustrator 25.4.1, SVG Export Plug-In . SVG Version: 6.00 Build 0)  -->
<svg version="1.1" id="Capa_1" xmlns="http://www.w3.org/2000/svg" xmlns:xlink="http://www.w3.org/1999/xlink" x="0px" y="0px"
	 viewBox="0 0 881 881" style="enable-background:new 0 0 881 881;" xml:space="preserve">
<style type="text/css">
	.st0{fill:#FFFFFF;}
	.st1{fill:none;stroke:#000000;stroke-width:14.0605;stroke-linecap:round;stroke-linejoin:round;stroke-miterlimit:10;}
</style>
<g>
	<path d="M802.6,392.1c0.8-15.6-0.3-39-10.9-58.4c-0.6-36.8-3.2-133.3-12.6-165.5c-10.8-37-42.9-62.5-75.4-72.1
		c-3.8-8.7-9.7-18.4-18.8-28.2C645.4,25.3,567.1,2.5,452.1,0.2c-3.6-0.4-7.3-0.2-10.9-0.2l-0.7,0l-0.7,0c-3.6,0-7.2-0.2-10.9,0.2
		c-115,2.3-193.4,25-232.9,67.7c-9.1,9.8-15,19.5-18.8,28.2c-32.5,9.7-64.6,35.1-75.4,72.1c-9.4,32.2-12,128.7-12.6,165.5
		c-10.6,19.4-11.7,42.8-10.9,58.4c-15.2,27.4-29.1,74.2-29.1,136.1c0,39,16,73,46.3,98.3c13.8,11.6,27.7,18.7,36.5,22.6
		c4.6,3.9,9.8,7.4,15.4,11.2c0.9,0.6,1.9,1.3,2.8,1.9c2.9,12.9,5.4,41.7,5.4,56c0,18.8,6.4,38,7.7,41.7c3.2,9.2,10.1,16.7,19.1,20.6
		c1.9,0.8,47.9,21,85.2,34.2c29.2,10.4,59,34,64.7,41.3c14.7,20.1,37.8,25.9,54.1,24.9h108.3c1.2,0.1,2.4,0.1,3.7,0.1
		c16,0,36.8-6.4,50.4-24.9c5.7-7.4,35.5-31,64.7-41.4c37.3-13.3,83.3-33.4,85.2-34.2c8.9-3.9,15.8-11.4,19.1-20.6
		c1.3-3.7,7.7-22.8,7.7-41.7c0-14.4,2.5-43.1,5.4-56c0.9-0.6,1.9-1.3,2.8-1.9c5.7-3.8,10.9-7.3,15.4-11.2c8.8-3.8,22.6-11,36.5-22.6
		c30.3-25.4,46.3-59.4,46.3-98.3C831.7,466.3,817.8,419.5,802.6,392.1z"/>
	<path class="st0" d="M766.5,400.7c0,0,5.7-39-9.7-56c0,0-1.6-133.2-11.4-166.5S699.1,127,675.6,127c0,0,5.4-87.8-227-91.6l-0.3-0.1
		c-2.6,0-5.2,0-7.8,0c-2.6,0-5.2,0-7.8,0l-0.3,0.1c-232.4,3.8-227,91.6-227,91.6c-23.6,0-60.1,17.9-69.9,51.2
		c-9.7,33.3-11.4,166.5-11.4,166.5c-15.4,17.1-9.7,56-9.7,56c-11.4,15.4-30.1,58.5-30.1,127.5c0,69,67.4,91,67.4,91
		c3.2,4.9,16.2,12.2,26,19.5c9.7,7.3,13,65.8,13,79.6s5.7,30.1,5.7,30.1s46.3,20.3,82.8,33.3c36.6,13,72.3,41.4,81.2,53.6
		c8.9,12.2,24.4,10.5,24.4,10.5h29.2l26.3-42.9l26.3,42.9h29.2c0,0,15.4,1.7,24.4-10.5c8.9-12.2,44.7-40.6,81.2-53.6
		c36.6-13,82.8-33.3,82.8-33.3s5.7-16.2,5.7-30.1s3.2-72.3,13-79.6c9.7-7.3,22.7-14.6,26-19.5c0,0,67.4-21.9,67.4-91
		C796.6,459.2,777.9,416.1,766.5,400.7z"/>
	<g>
		<path d="M751.7,432.4c0,0,19,66.6,19,99.1s-40.3,47.1-40.3,47.1l-8.3-52L751.7,432.4z"/>
		<path d="M120.8,432.4c0,0-19,66.6-19,99.1s40.3,47.1,40.3,47.1l8.3-52L120.8,432.4z"/>
	</g>
	<path d="M651.2,321.9c-15.4-10-133-28-201.9-29.9l-0.3-0.2c-1.7,0-3.5,0-5.3,0c-1.8,0-3.6,0-5.3,0l-0.3,0.2
		c-68.9,1.9-186.5,19.9-201.9,29.9c-16.2,10.6-24.4,22.7-24.4,45.5c0,22.7,37.4,156,86.1,156c48,0,53.4-144.8,145.8-149.3
		c92.3,4.6,97.8,149.3,145.8,149.3c48.7,0,86.1-133.2,86.1-156C675.6,344.7,667.4,332.5,651.2,321.9z"/>
	<path d="M505,457.6c-20.3-37.7-43.5-48.8-61-50.2l-0.2-0.2c-0.6,0-1.3,0-1.9,0c-0.6,0-1.3,0-1.9,0l-0.2,0.2
		c-17.5,1.4-40.6,12.5-61,50.2c0,0,31-24.2,63.1-25.9C474,433.4,505,457.6,505,457.6z"/>
	<path d="M438.3,508.7c-34.2,0-61.9,27.7-61.9,61.9v274.5c4.9,1,8.6,0.6,8.6,0.6h29.2l26.3-42.9l26.3,42.9h29.2c0,0,1.6,0.2,4.1,0
		V570.6C500.2,536.5,472.5,508.7,438.3,508.7z"/>
	<path class="st0" d="M438.3,531.5c-23.8,0-43.2,19.3-43.2,43.2v271.1h86.3V574.6C481.4,550.8,462.1,531.5,438.3,531.5z"/>
	<g>
		<path class="st1" d="M766.5,400.7c0,0,5.7-39-9.7-56c0,0-1.6-133.2-11.4-166.5c-4.3-14.5-13.6-26.1-24.7-34.6
			c-5.4-3.7-16.7-9.8-38.9-16.2c-2.2-0.3-4.2-0.4-6.2-0.4c0,0,0-0.5,0-1.3c-38.6-10.3-106-20.7-221.8-22.1l-0.4-0.2
			c-4.4,0-8.6,0-12.9,0c-4.2,0-8.5,0-12.9,0l-0.4,0.2c-115.8,1.4-183.1,11.8-221.8,22.1c0,0.9,0,1.3,0,1.3c-2,0-4.1,0.1-6.2,0.4
			c-22.2,6.4-33.5,12.6-38.9,16.2c-11.1,8.5-20.5,20-24.7,34.6c-9.7,33.3-11.4,166.5-11.4,166.5c-15.4,17.1-9.7,56-9.7,56
			c-0.4,0.5-0.8,1.1-1.2,1.7c10.7,68.2,27.9,165.6,31.2,177.9c2.4,9,4.1,24.7,5.1,38.2c1.4,0.5,2.2,0.8,2.2,0.8
			c3.2,4.9,16.2,12.2,26,19.5c1.3,1,2.5,3,3.6,5.6c3.3-17.3-1.5-35.2-2.8-43C177,591.6,151,456.7,151,364.1s14.6-170.6,31.7-188.4
			c16-16.7,188.3-34.1,257.8-36.3c69.5,2.2,241.8,19.6,257.8,36.3c17.1,17.9,31.7,95.8,31.7,188.4s-26,227.4-27.6,237.2
			c-1.3,7.7-6.2,25.7-2.8,43c1.1-2.7,2.3-4.6,3.6-5.6c9.7-7.3,22.7-14.6,26-19.5c0,0,0.8-0.3,2.2-0.8c1-13.4,2.6-29.2,5.1-38.2
			c3.4-12.3,20.6-109.6,31.2-177.9C767.3,401.8,766.9,401.2,766.5,400.7z"/>
		<path class="st0" d="M766.5,400.7c0,0,5.7-39-9.7-56c0,0-1.6-133.2-11.4-166.5c-4.3-14.5-13.6-26.1-24.7-34.6
			c-5.4-3.7-16.7-9.8-38.9-16.2c-2.2-0.3-4.2-0.4-6.2-0.4c0,0,0-0.5,0-1.3c-38.6-10.3-106-20.7-221.8-22.1l-0.4-0.2
			c-4.4,0-8.6,0-12.9,0c-4.2,0-8.5,0-12.9,0l-0.4,0.2c-115.8,1.4-183.1,11.8-221.8,22.1c0,0.9,0,1.3,0,1.3c-2,0-4.1,0.1-6.2,0.4
			c-22.2,6.4-33.5,12.6-38.9,16.2c-11.1,8.5-20.5,20-24.7,34.6c-9.7,33.3-11.4,166.5-11.4,166.5c-15.4,17.1-9.7,56-9.7,56
			c-0.4,0.5-0.8,1.1-1.2,1.7c10.7,68.2,27.9,165.6,31.2,177.9c2.4,9,4.1,24.7,5.1,38.2c1.4,0.5,2.2,0.8,2.2,0.8
			c3.2,4.9,16.2,12.2,26,19.5c1.3,1,2.5,3,3.6,5.6c3.3-17.3-1.5-35.2-2.8-43C177,591.6,151,456.7,151,364.1s14.6-170.6,31.7-188.4
			c16-16.7,188.3-34.1,257.8-36.3c69.5,2.2,241.8,19.6,257.8,36.3c17.1,17.9,31.7,95.8,31.7,188.4s-26,227.4-27.6,237.2
			c-1.3,7.7-6.2,25.7-2.8,43c1.1-2.7,2.3-4.6,3.6-5.6c9.7-7.3,22.7-14.6,26-19.5c0,0,0.8-0.3,2.2-0.8c1-13.4,2.6-29.2,5.1-38.2
			c3.4-12.3,20.6-109.6,31.2-177.9C767.3,401.8,766.9,401.2,766.5,400.7z"/>
	</g>
	<g>
		<path d="M460.8,152.2c-3.7,0-6.7,3-6.7,6.7v60.6c0,3.7,3,6.7,6.7,6.7c3.7,0,6.7-3,6.7-6.7v-60.6
			C467.6,155.2,464.5,152.2,460.8,152.2z"/>
		<path d="M437.1,152.2c-3.7,0-6.7,3-6.7,6.7v60.6c0,3.7,3,6.7,6.7,6.7c3.7,0,6.7-3,6.7-6.7v-60.6
			C443.8,155.2,440.8,152.2,437.1,152.2z"/>
		<path d="M413.4,152.2c-3.7,0-6.7,3-6.7,6.7v60.6c0,3.7,3,6.7,6.7,6.7c3.7,0,6.7-3,6.7-6.7v-60.6
			C420.1,155.2,417.1,152.2,413.4,152.2z"/>
	</g>
	<circle cx="438.3" cy="810.7" r="28.3"/>
</g>
</svg>
