<svg id="speeder_pilot" xmlns="http://www.w3.org/2000/svg" xmlns:xlink="http://www.w3.org/1999/xlink" x="0px" y="0px"
	 viewBox="0 0 881 881" style="enable-background:new 0 0 881 881;" xml:space="preserve">

<defs>
<style type="text/css">
	.st0{fill:#FFFFFF;}
	#speeder_pilot:hover #negro { fill: red; }
</style>

	<script>
		let theSpeederPilot = document.querySelector("#speeder_pilot");

		function logMyId() {
		console.log("clicked on an element:", this.id); }

		theSpeederPilot.addEventListener("click", logMyId);
	</script>
</defs>

<path id="blanco" class="st0" d="M802.6,392.1c0.8-15.6-0.3-39-10.9-58.4c-0.6-36.8-3.2-133.3-12.6-165.5
	c-10.8-37-42.9-62.5-75.4-72.1c-3.8-8.7-9.7-18.4-18.8-28.2C645.4,25.3,567.1,2.5,452.1,0.2c-3.6-0.4-7.3-0.2-10.9-0.2h-0.7h-0.7
	c-3.6,0-7.2-0.2-10.9,0.2c-115,2.3-193.4,25-232.9,67.7c-9.1,9.8-15,19.5-18.8,28.2c-32.5,9.7-64.6,35.1-75.4,72.1
	c-9.4,32.2-12,128.7-12.6,165.5c-10.6,19.4-11.7,42.8-10.9,58.4c-15.2,27.4-29.1,74.2-29.1,136.1c0,39,16,73,46.3,98.3
	c13.8,11.6,27.7,18.7,36.5,22.6c4.6,3.9,9.8,7.4,15.4,11.2c0.9,0.6,1.9,1.3,2.8,1.9c2.9,12.9,5.4,41.7,5.4,56
	c0,18.8,6.4,38,7.7,41.7c3.2,9.2,10.1,16.7,19.1,20.6c1.9,0.8,47.9,21,85.2,34.2c29.2,10.4,59,34,64.7,41.3
	c14.7,20.1,37.8,25.9,54.1,24.9h108.3c1.2,0.1,2.4,0.1,3.7,0.1c16,0,36.8-6.4,50.4-24.9c5.7-7.4,35.5-31,64.7-41.4
	c37.3-13.3,83.3-33.4,85.2-34.2c8.9-3.9,15.8-11.4,19.1-20.6c1.3-3.7,7.7-22.8,7.7-41.7c0-14.4,2.5-43.1,5.4-56
	c0.9-0.6,1.9-1.3,2.8-1.9c5.7-3.8,10.9-7.3,15.4-11.2c8.8-3.8,22.6-11,36.5-22.6c30.3-25.4,46.3-59.4,46.3-98.3
	C831.7,466.3,817.8,419.5,802.6,392.1z"/>
<path id="negro" d="M802.6,392.1c0.8-15.6-0.3-39-10.9-58.4c-0.6-36.8-3.2-133.3-12.6-165.5c-10.8-37-42.9-62.5-75.4-72.1
	c-3.8-8.7-9.7-18.4-18.8-28.2C645.4,25.3,567.1,2.5,452.1,0.2c-3.6-0.4-7.3-0.2-10.9-0.2h-0.7h-0.7c-3.6,0-7.2-0.2-10.9,0.2
	c-115,2.3-193.4,25-232.9,67.7c-9.1,9.8-15,19.5-18.8,28.2c-32.5,9.7-64.6,35.1-75.4,72.1c-9.4,32.2-12,128.7-12.6,165.5
	c-10.6,19.4-11.7,42.8-10.9,58.4c-15.2,27.4-29.1,74.2-29.1,136.1c0,39,16,73,46.3,98.3c13.8,11.6,27.7,18.7,36.5,22.6
	c4.6,3.9,9.8,7.4,15.4,11.2c0.9,0.6,1.9,1.3,2.8,1.9c2.9,12.9,5.4,41.7,5.4,56c0,18.8,6.4,38,7.7,41.7c3.2,9.2,10.1,16.7,19.1,20.6
	c1.9,0.8,47.9,21,85.2,34.2c29.2,10.4,59,34,64.7,41.3c14.7,20.1,37.8,25.9,54.1,24.9h108.3c1.2,0.1,2.4,0.1,3.7,0.1
	c16,0,36.8-6.4,50.4-24.9c5.7-7.4,35.5-31,64.7-41.4c37.3-13.3,83.3-33.4,85.2-34.2c8.9-3.9,15.8-11.4,19.1-20.6
	c1.3-3.7,7.7-22.8,7.7-41.7c0-14.4,2.5-43.1,5.4-56c0.9-0.6,1.9-1.3,2.8-1.9c5.7-3.8,10.9-7.3,15.4-11.2c8.8-3.8,22.6-11,36.5-22.6
	c30.3-25.4,46.3-59.4,46.3-98.3C831.7,466.3,817.8,419.5,802.6,392.1z M432.4,35.4l0.3-0.1c2.6,0,5.2,0,7.8,0s5.2,0,7.8,0l0.3,0.1
	c186.8,3.1,220,60.4,225.8,82.7C623.6,105,549.8,97.8,455,96.6c-0.6-0.1-1.1-0.2-1.7-0.2h-25.8c-0.6,0-1.2,0.1-1.7,0.2
	c-94.5,1.2-168.2,8.4-219.2,21.5C212.5,95.7,245.8,38.5,432.4,35.4z M84.3,528.2c0-56.3,12.5-95.4,23.2-116.2
	c2.2,13.7,4.6,28.5,7.1,43.6c-5.6,22.4-12.9,55.7-12.9,75.9c0,24.7,23.2,39,34.4,44.5c0.6,2.8,1.1,4.8,1.4,6.1
	c1.8,6.5,3.4,18.4,4.6,33.1C123.6,606.2,84.3,580.9,84.3,528.2z M689.9,718.3c0,13.9-5.7,30.1-5.7,30.1s-46.2,20.3-82.8,33.3
	c-36.5,13-72.3,41.4-81.2,53.6c-9,12.2-24.4,10.5-24.4,10.5h-29.2H414h-29.2c0,0-15.5,1.7-24.4-10.5s-44.6-40.6-81.2-53.6
	c-36.5-13-82.8-33.3-82.8-33.3s-5.7-16.3-5.7-30.1c0-10.6-1.9-47.3-7.2-67.2c2.4-0.8,4.2-2.8,4.7-5.4c3-15.9-0.1-31.8-2-41.2
	c-0.3-1.7-0.6-3.1-0.8-4.2c-0.1-0.9-0.5-2.9-1-5.8C162.6,473.1,158,402.2,158,364.1c0-43.4,3.3-86.4,9.3-121
	c5.5-31.5,13.1-54.9,20.4-62.5c0.9-1,11.8-9.9,104.6-21.5c50.2-6.3,111.1-11.5,148.1-12.7c37,1.2,97.9,6.4,148.1,12.7
	c92.8,11.6,103.7,20.5,104.6,21.5c7.3,7.6,14.9,31,20.4,62.5c6,34.6,9.3,77.6,9.3,121c0,38.1-4.6,109-26.5,230.3
	c-0.5,2.9-0.9,4.9-1,5.8c-0.2,1.1-0.5,2.5-0.8,4.2c-1.9,9.5-5.1,25.4-2,41.4c0.5,2.4,2.2,4.4,4.6,5.2
	C691.8,670.9,689.9,707.7,689.9,718.3z M731.4,618.4c-1.4,0.5-2.2,0.8-2.2,0.8c-3.3,4.9-16.3,12.2-26,19.5c-1.3,1-2.5,2.9-3.6,5.6
	c-3.4-17.3,1.5-35.3,2.8-43c1.6-9.8,27.6-144.6,27.6-237.2s-14.6-170.5-31.7-188.4c-16-16.7-188.3-34.1-257.8-36.3
	c-69.5,2.2-241.8,19.6-257.8,36.3c-17.1,17.8-31.7,95.8-31.7,188.4s26,227.5,27.6,237.3c1.3,7.8,6.1,25.7,2.8,43
	c-1.1-2.6-2.3-4.6-3.6-5.6c-9.8-7.3-22.8-14.6-26-19.5c0,0-0.8-0.3-2.2-0.8c-1-13.5-2.7-29.2-5.1-38.2
	c-3.3-12.3-20.5-109.7-31.2-177.9c0.4-0.6,0.8-1.2,1.2-1.7c0,0-5.7-38.9,9.7-56c0,0,1.7-133.2,11.4-166.5
	c4.2-14.6,13.6-26.1,24.7-34.6c5.4-3.6,16.7-9.8,38.9-16.2c2.1-0.3,4.2-0.4,6.2-0.4c0,0,0-0.4,0-1.3c38.7-10.3,106-20.7,221.8-22.1
	l0.4-0.2c4.4,0,8.7,0,12.9,0c4.3,0,8.5,0,12.9,0l0.4,0.2c115.8,1.4,183.2,11.8,221.8,22.1c0,0.8,0,1.3,0,1.3c2,0,4,0.1,6.2,0.4
	c22.2,6.4,33.5,12.5,38.9,16.2c11.1,8.5,20.4,20.1,24.7,34.6c9.8,33.3,11.4,166.5,11.4,166.5c15.4,17,9.7,56,9.7,56
	c0.4,0.5,0.8,1.1,1.2,1.6c-10.6,68.3-27.8,165.6-31.2,177.9C734,589.2,732.4,605,731.4,618.4z M738.5,615.1
	c1.5-19.1,3.3-28.4,4.6-32.8c0.5-2,1.4-6,2.5-11.6c11.4-7.4,25.1-20.3,25.1-39.2c0-14.6-3.8-36.2-8.1-55.4
	c3.7-22,7.5-44.4,10.6-64.3c10.8,20.8,23.3,59.9,23.1,116.5C796.3,580.9,757.1,606.1,738.5,615.1z M675.6,367.4
	c0,22.8-37.4,156-86.1,156c-48,0-53.5-144.7-145.8-149.3c-92.4,4.5-97.8,149.3-145.8,149.3c-48.7,0-86.1-133.3-86.1-156
	c0-22.8,8.2-34.9,24.4-45.5c15.4-10,133-28,201.9-29.9l0.3-0.2c1.7,0,3.5,0,5.3,0s3.6,0,5.3,0l0.3,0.2
	c68.9,1.9,186.5,19.9,201.9,29.9C667.4,332.5,675.6,344.7,675.6,367.4z M505,457.6c0,0-31-24.2-63.1-25.9
	c-32.1,1.7-63.1,25.9-63.1,25.9c20.4-37.7,43.5-48.8,61-50.2l0.2-0.2c0.6,0,1.3,0,1.9,0s1.3,0,1.9,0l0.2,0.2
	C461.5,408.8,484.7,419.9,505,457.6z M430.4,219.5v-60.6c0-3.7,3-6.7,6.7-6.7s6.7,3,6.7,6.7v60.6c0,3.7-3,6.7-6.7,6.7
	S430.4,223.2,430.4,219.5z M454.1,219.5v-60.6c0-3.7,3-6.7,6.7-6.7s6.8,3,6.7,6.7v60.6c0,3.7-3,6.7-6.7,6.7S454.1,223.2,454.1,219.5
	z M406.7,219.5v-60.6c0-3.7,3-6.7,6.7-6.7s6.7,3,6.7,6.7v60.6c0,3.7-3,6.7-6.7,6.7S406.7,223.2,406.7,219.5z M466.6,810.7
	c0,15.6-12.7,28.3-28.3,28.3S410,826.3,410,810.7s12.7-28.3,28.3-28.3S466.6,795.1,466.6,810.7z M500.1,570.6v275.1
	c-2.5,0.2-4.1,0-4.1,0h-14.6V574.6c0-23.8-19.3-43.1-43.1-43.1c-23.8,0-43.2,19.3-43.2,43.2v271H385c0,0-3.7,0.4-8.6-0.6V570.6
	c0-34.2,27.7-61.9,61.9-61.9C472.5,508.7,500.2,536.5,500.1,570.6z"/>
</svg>
