<?xml version="1.0" encoding="utf-8"?>
<!-- Generator: Adobe Illustrator 25.4.1, SVG Export Plug-In . SVG Version: 6.00 Build 0)  -->
<svg version="1.1" id="Capa_1" xmlns="http://www.w3.org/2000/svg" xmlns:xlink="http://www.w3.org/1999/xlink" x="0px" y="0px"
	 viewBox="0 0 881 881" style="enable-background:new 0 0 881 881;" xml:space="preserve">
<style type="text/css">
	.st0{fill:#FFFFFF;}
</style>
<g>
	<path d="M563.2,881c-1,0-2.1,0-3.1,0c-44.8-0.7-70-15.7-84.6-32.6c-9.3,1-21.2,1.2-35-0.2c-13.8,1.7-25.7,1.2-35,0.2
		c-14.5,16.9-39.8,31.9-84.6,32.6c-34.3,0.5-76.5-7.6-119.1-23.3c-72.9-26.7-87.4-109.4-90.5-140.6c-23.3-23.1-78.1-82.2-78.1-130.1
		c0-25.5,13.8-54.8,41.2-86.7c9.5-11,18.8-20.5,26-27.2c-2.1-14.5-4.8-38.4-4.8-68.9c0-45.3,28.1-79.8,43.4-95.3
		c2.6-18.8,12.2-39.8,18.8-52.9c1.7-88.2,33.8-155.6,96-200.1c49.8-35.7,108.9-49.1,152-53.6c2.4-1,4.8-1.4,7.4-1.7
		c1.2,0,11.2-1,27.4-0.5c16.2-0.2,26.4,0.5,27.4,0.5c2.6,0.2,5,0.7,7.4,1.7c43.1,4.5,102.2,17.6,152,53.6
		c62.2,44.8,94.4,112,96,200.1c6.7,13.1,16.2,34.1,18.8,52.9c15.2,15.5,43.4,50.3,43.4,95.3c0,30.3-2.6,54.3-4.8,68.9
		c7.1,6.7,16.4,16.2,26,27.2c27.4,31.9,41.2,61,41.2,86.7c0,47.9-54.8,107-78.1,130.1c-2.9,31.2-17.6,113.9-90.5,140.6
		C638,872.6,597,881,563.2,881z M688.8,317.9L688.8,317.9L688.8,317.9z M192.5,317.9L192.5,317.9L192.5,317.9z M688.8,317L688.8,317
		L688.8,317z M192.2,317L192.2,317L192.2,317z"/>
	<g>
		<g>
			<path class="st0" d="M744.3,482.1c0,0,6.7-29.8,6.7-77c0-47.4-41.9-81-41.9-81c2.6-17.6-18.8-56.7-18.8-56.7
				c0-183.9-145.6-221.8-224.7-228.7l-0.2-1c0,0-9.3-0.7-24.8-0.5c-15.2-0.2-24.8,0.5-24.8,0.5l-0.2,1
				c-79.1,6.9-224.7,44.8-224.7,228.7c0,0-21.7,39.3-18.8,56.7c0,0-41.9,33.8-41.9,81c0,47.4,6.7,77,6.7,77s-67.7,56.7-67.7,101.5
				c0,44.8,75.8,114.8,75.8,114.8s1.4,98.6,71.7,124.4c70.3,25.7,155.3,35.3,177-13.6c0,0,18.1,6.2,46.9,2.1
				c28.8,4.1,46.9-2.1,46.9-2.1c21.7,48.6,106.7,39.3,177,13.6c70.3-25.7,71.7-124.4,71.7-124.4s75.8-70.3,75.8-114.8
				S744.3,482.1,744.3,482.1z"/>
		</g>
		<g>
			<path d="M583,694.4c-31.9,0-37.4,19.8-62.7,19.8c-25.3,0-39.6-29.3-39.6-45.7s-25.3-39.3-37.6-39.3c-0.7,0-1.7,0-2.9,0.2
				c-1-0.2-1.7-0.2-2.4-0.2c-6.4,0-16.2,6.2-24.3,14.8c-9.5,8.3-17.6,19.5-18.1,32.4c-0.2,3.6-0.2,8.1-0.2,13.1
				c-6.2,12.9-17.9,25-34.1,25c-25.3,0-30.7-19.8-62.7-19.8s-54.6,37.4-54.6,56.5s21.2,51.2,66,51.2c45,0,56.5-35.5,64.8-36.7
				c6.4-1,14.8,2.1,21.9,10.5c0.2,5.7,0.2,9.3,0.2,9.3s8.8,15,42.9,15c0,0,0.2,0,0.7,0s0.7,0,0.7,0c2.6,0,5-0.2,6.9-0.7
				c9.8-1.4,24.8-5,30.3-14.8c8.1-15,19.8-20.5,27.9-19.1c8.1,1.4,19.8,36.7,64.8,36.7c45,0,66-31.9,66-51.2
				C637.3,731.8,614.9,694.4,583,694.4z"/>
		</g>
		<g>
			<ellipse class="st0" cx="578.7" cy="731.8" rx="27.2" ry="34.1"/>
			<ellipse class="st0" cx="302.3" cy="731.8" rx="27.2" ry="34.1"/>
		</g>
		<path d="M466.9,507.8c21,7.1,46.5,21.9,58.6,30.5C542,550,605.4,575,605.4,575s-61.9-49.8-94.1-75.1
			c-23.3-18.3-40.7-33.4-55.3-40.3c-4.3-2.4-9.3-4.1-15-4.1h-0.2h-0.2c-5.7,0-10.7,1.7-15,4.1c-14.5,6.9-32.2,21.9-55.3,40.3
			c-31.9,25.3-94.1,75.1-94.1,75.1s63.4-25.3,79.8-36.7c12.2-8.6,37.6-23.3,58.6-30.5c7.9-1.7,17.4-3.3,26.4-4.1
			C449.6,504.5,459.1,506.2,466.9,507.8z"/>
		<g>
			<g>
				<g>
					<path d="M691.1,480.2L691.1,480.2c-1.4,0-2.4-1.2-2.4-2.6c1.4-27.4-8.8-81.5-8.8-82c-0.2-1.2,0.7-2.6,1.9-2.9
						c1.2-0.2,2.6,0.7,2.9,1.9c0.5,2.1,10.2,55,8.8,83.2C693.5,479,692.3,480.2,691.1,480.2z"/>
				</g>
				<g>
					<path d="M682.3,490.9c-1.2,0-2.4-1-2.4-2.4c-0.7-30-12.2-65-12.2-65.5c-0.5-1.2,0.2-2.6,1.4-3.1c1.2-0.5,2.6,0.2,3.1,1.4
						c0,0.5,11.7,36.2,12.4,66.7C684.7,490,683.5,490.9,682.3,490.9L682.3,490.9z"/>
				</g>
				<g>
					<path d="M672.8,505.9c-1.4,0-2.4-1.2-2.4-2.4c0-10.5-11.4-60.3-11.4-60.8c-0.2-1.2,0.5-2.6,1.9-2.9c1.4-0.2,2.6,0.5,2.9,1.9
						c0.5,2.1,11.7,50.7,11.7,61.9C675.2,505,674,505.9,672.8,505.9z"/>
				</g>
			</g>
			<g>
				<path d="M685,622.4c-0.7,0-1.7-0.5-2.1-1.2c-4.1-6.7-25-15.2-32.9-18.1c-1.2-0.5-1.9-1.9-1.4-3.1c0.5-1.2,1.9-1.9,3.1-1.4
					c3.1,1.2,29.5,10.7,35.3,20c0.7,1.2,0.2,2.6-0.7,3.3C685.9,622.4,685.4,622.4,685,622.4z"/>
				<path d="M692.1,616c-0.7,0-1.7-0.5-2.1-1.2c-4.3-7.4-25-16-32.6-18.6c-1.2-0.5-1.9-1.9-1.4-3.1c0.5-1.2,1.9-1.9,3.1-1.4
					c2.9,1,29.1,10.7,35,20.7c0.7,1.2,0.2,2.6-0.7,3.3C693.1,615.8,692.6,616,692.1,616z"/>
				<path d="M699.3,609.3c-0.7,0-1.7-0.5-2.1-1.2c-4.5-7.9-24.8-16.7-32.2-19.3c-1.2-0.5-1.9-1.9-1.4-3.1c0.5-1.2,1.9-1.9,3.1-1.4
					s28.4,10.2,34.8,21.4c0.7,1.2,0.2,2.6-1,3.3C700.2,609.3,699.7,609.3,699.3,609.3z"/>
				<path d="M706.6,602.7c-1,0-1.7-0.5-2.1-1.2c-4.8-8.6-24.8-17.2-31.9-19.8c-1.2-0.5-1.9-1.9-1.4-3.1c0.5-1.2,1.9-1.9,3.1-1.4
					c1.2,0.5,27.6,10.2,34.5,21.9c0.7,1.2,0.2,2.6-1,3.3C707.4,602.7,706.9,602.7,706.6,602.7z"/>
				<path d="M713.8,596.2c-1,0-1.7-0.5-2.1-1.2c-6.2-11-31.5-20.3-31.7-20.5c-1.2-0.5-1.9-1.9-1.4-3.1c0.5-1.2,1.9-1.9,3.1-1.4
					s27.2,10,34.1,22.6c0.7,1.2,0.2,2.6-1,3.3C714.5,596,714.3,596.2,713.8,596.2z"/>
				<path d="M720.9,589.6c-1,0-1.7-0.5-2.1-1.2c-6.4-11.7-31-21-31.2-21c-1.2-0.5-1.9-1.9-1.4-3.1c0.5-1.2,1.9-1.9,3.1-1.4
					c1.2,0.5,26.4,10,33.8,23.1c0.7,1.2,0.2,2.6-1,3.3C721.6,589.6,721.4,589.6,720.9,589.6z"/>
				<path d="M728.1,583.1c-1,0-1.7-0.5-2.1-1.2c-6.7-12.4-30.7-21.4-31-21.7c-1.2-0.5-1.9-1.9-1.4-3.1c0.5-1.2,1.9-1.9,3.1-1.4
					c1,0.5,26,9.8,33.6,23.8c0.7,1.2,0.2,2.6-1,3.3C729,582.9,728.6,583.1,728.1,583.1z"/>
				<path d="M735.2,576.5c-1,0-1.7-0.5-2.1-1.2c-7.1-13.1-30.5-22.2-30.7-22.2c-1.2-0.5-1.9-1.9-1.4-3.1c0.5-1.2,1.9-1.9,3.1-1.4
					c1,0.5,25.3,9.8,33.4,24.5c0.7,1.2,0.2,2.6-1,3.3C736.2,576.2,735.7,576.5,735.2,576.5z"/>
				<path d="M742.6,569.8c-1,0-1.7-0.5-2.1-1.2c-7.4-13.8-30.3-22.6-30.5-22.9c-1.2-0.5-1.9-1.9-1.4-3.1s1.9-1.9,3.1-1.4
					c1,0.5,24.8,9.5,32.9,25c0.7,1.2,0.2,2.6-1,3.3C743.3,569.8,742.9,569.8,742.6,569.8z"/>
				<path d="M749.8,563.4c-1,0-1.7-0.5-2.1-1.2c-7.6-14.8-29.8-23.3-30-23.3c-1.2-0.5-1.9-1.9-1.4-3.1c0.5-1.2,1.9-1.9,3.1-1.4
					c1,0.5,24.1,9.3,32.6,25.7c0.7,1.2,0.2,2.6-1,3.3C750.5,563.1,750,563.4,749.8,563.4z"/>
			</g>
			<g>
				<g>
					<path d="M190.1,480.2c-1.2,0-2.4-1-2.4-2.4c-1.4-27.9,8.6-80.8,8.8-83.2c0.2-1.2,1.4-2.1,2.9-1.9c1.2,0.2,2.1,1.4,1.9,2.9
						c0,0.5-10.2,54.6-8.8,82C192.5,479,191.5,480,190.1,480.2L190.1,480.2z"/>
				</g>
				<g>
					<path d="M198.9,490.9L198.9,490.9c-1.4,0-2.4-1.2-2.4-2.4c0.7-30.7,12.2-66.5,12.4-66.7c0.5-1.2,1.7-1.9,3.1-1.4
						c1.2,0.5,1.9,1.7,1.4,3.1c0,0.2-11.4,35.5-12.2,65.5C201.3,490,200.1,490.9,198.9,490.9z"/>
				</g>
				<g>
					<path d="M208.4,505.9c-1.4,0-2.4-1.2-2.4-2.4c0-11,11.2-59.8,11.7-61.9c0.2-1.2,1.7-2.1,2.9-1.9c1.2,0.2,2.1,1.7,1.9,2.9
						c0,0.5-11.4,50.3-11.4,60.8C210.8,505,209.6,505.9,208.4,505.9z"/>
				</g>
			</g>
			<g>
				<path d="M196,622.4c-0.5,0-1,0-1.2-0.5c-1.2-0.7-1.4-2.1-0.7-3.3c5.7-9.3,32.4-19.1,35.3-20c1.2-0.5,2.6,0.2,3.1,1.4
					c0.5,1.2-0.2,2.6-1.4,3.1c-7.6,2.9-28.8,11.4-32.9,18.1C197.7,622.2,197,622.4,196,622.4z"/>
				<path d="M188.9,616c-0.5,0-1,0-1.2-0.2c-1.2-0.7-1.4-2.1-0.7-3.3c6-10,32.2-19.8,35-20.7c1.2-0.5,2.6,0.2,3.1,1.4
					c0.5,1.2-0.2,2.6-1.4,3.1c-7.6,2.6-28.1,11.4-32.6,18.6C190.6,615.5,189.9,616,188.9,616z"/>
				<path d="M181.7,609.3c-0.5,0-0.7,0-1.2-0.2c-1.2-0.7-1.4-2.1-1-3.3c6.4-11,33.6-21,34.8-21.4c1.2-0.5,2.6,0.2,3.1,1.4
					c0.5,1.2-0.2,2.6-1.4,3.1c-7.4,2.6-27.6,11.4-32.2,19.3C183.4,608.9,182.5,609.3,181.7,609.3z"/>
				<path d="M174.6,602.7c-0.5,0-0.7,0-1.2-0.2c-1.2-0.7-1.7-2.1-1-3.3c6.7-11.7,33.4-21.7,34.5-21.9c1.2-0.5,2.6,0.2,3.1,1.4
					c0.5,1.2-0.2,2.6-1.4,3.1c-7.1,2.6-27.2,11.4-31.9,19.8C176.3,602.4,175.3,602.7,174.6,602.7z"/>
				<path d="M167.5,596.2c-0.5,0-0.7,0-1.2-0.2c-1.2-0.7-1.7-2.1-1-3.3c6.9-12.6,33.1-22.2,34.1-22.6c1.2-0.5,2.6,0.2,3.1,1.4
					c0.5,1.2-0.2,2.6-1.4,3.1c-0.2,0-25.5,9.5-31.7,20.5C169.1,595.8,168.2,596.2,167.5,596.2z"/>
				<path d="M160.1,589.6c-0.5,0-0.7,0-1.2-0.2c-1.2-0.7-1.7-2.1-1-3.3c7.4-13.3,32.9-22.9,33.8-23.1c1.2-0.5,2.6,0.2,3.1,1.4
					c0.5,1.2-0.2,2.6-1.4,3.1c-0.2,0-24.8,9.3-31.2,21C161.7,589.1,161,589.6,160.1,589.6z"/>
				<path d="M152.9,583.1c-0.5,0-0.7,0-1.2-0.2c-1.2-0.7-1.7-2.1-1-3.3c7.6-14.1,32.4-23.3,33.6-23.8c1.2-0.5,2.6,0.2,3.1,1.4
					c0.5,1.2-0.2,2.6-1.4,3.1c-0.2,0-24.3,9.1-31,21.7C154.6,582.7,153.9,583.1,152.9,583.1z"/>
				<path d="M145.8,576.5c-0.5,0-0.7,0-1.2-0.2c-1.2-0.7-1.7-2.1-1-3.3c7.9-14.8,32.2-24.1,33.4-24.5s2.6,0.2,3.1,1.4
					c0.5,1.2-0.2,2.6-1.4,3.1c-0.2,0-23.6,9.1-30.7,22.2C147.4,576,146.7,576.5,145.8,576.5z"/>
				<path d="M138.6,569.8c-0.5,0-0.7,0-1.2-0.2c-1.2-0.7-1.7-2.1-1-3.3c8.1-15.5,31.9-24.8,32.9-25c1.2-0.5,2.6,0.2,3.1,1.4
					c0.5,1.2-0.2,2.6-1.4,3.1c-0.2,0-23.1,8.8-30.3,22.9C140.3,569.3,139.3,569.8,138.6,569.8z"/>
				<path d="M131.5,563.4c-0.5,0-0.7,0-1.2-0.2c-1.2-0.7-1.7-2.1-1-3.3c8.6-16.2,31.7-25.3,32.6-25.7c1.2-0.5,2.6,0.2,3.1,1.4
					c0.5,1.2-0.2,2.6-1.4,3.1c-0.2,0-22.4,8.8-30,23.3C133.1,562.9,132.2,563.4,131.5,563.4z"/>
			</g>
		</g>
		<path d="M690.2,267.2c-123.7-14.5-194.4-10-249.7-9.8c-55.3-0.2-126-4.8-249.7,9.8c0,0-21.7,39.3-18.8,56.7
			c0,0,105.3-23.1,268.8-25.5c163.4,2.1,268.8,25.5,268.8,25.5C711.9,306.5,690.2,267.2,690.2,267.2z"/>
		<g>
			<path d="M492.2,312.7c0,13.6,45.7,43.6,58.6,51.7c12.9,8.1,59.3,31.5,69.6,31.5s27.9-26,27.9-45.7c0-13.1,0.5-26.2-2.4-36.7
				c-35-4.8-83.4-10-142.2-12.9C497.4,302.9,492.2,307,492.2,312.7z"/>
			<path d="M389,312.7c0,13.6-45.7,43.6-58.6,51.7c-12.9,8.1-59.3,31.5-69.6,31.5s-27.9-26-27.9-45.7c0-13.1-0.5-26.2,2.4-36.7
				c35-4.8,83.4-10,142.2-12.9C383.6,302.9,389,307,389,312.7z"/>
		</g>
		<path class="st0" d="M482,711.3c-3.6-1.9-13.3-18.1-13.3-34.3c0-13.6-14.8-22.6-23.8-25c-1.2-0.5-2.4-0.7-3.8-0.7h-0.2h-0.2
			c-1.4,0-2.9,0.2-4.1,0.7c-9.3,2.6-23.8,11.4-23.8,25c0,16.2-9.8,32.2-13.3,34.3c-3.6,1.9-9.3,1.2-9.3,16.4
			c0,15.2,0.5,26.2,4.5,28.1c1.7,0.7,4.5,2.4,7.6,4.3c2.1,4.3,6.9,10.5,14.3,15.2c2.6,3.1,7.6,5.7,18.6,6.4c0.2,0,0.5,0,1,0
			c0.7,0,1.4,0,2.1,0c0.5,0,1,0,1.4,0c0.5,0,0.7,0,1,0c0.2,0,0.7,0,1,0c0.5,0,1,0,1.4,0c0.7,0,1.4,0,2.1,0c0.2,0,0.5,0,1,0
			c11-0.7,16-3.3,18.6-6.4c7.4-4.8,12.2-11,14.3-15.2c3.1-1.9,6-3.3,7.6-4.3c4.1-1.9,4.5-12.9,4.5-28.1
			C491,712.5,485.5,713.2,482,711.3z"/>
	</g>
</g>
</svg>
