<svg id="storm_trooper" xmlns="http://www.w3.org/2000/svg" xmlns:xlink="http://www.w3.org/1999/xlink" x="0px" y="0px"
	 viewBox="0 0 881 881" style="enable-background:new 0 0 881 881;" xml:space="preserve">

<defs>
<style type="text/css">
	.st0{fill:#FFFFFF;}
	#storm_trooper:hover #negro { fill: red; }
</style>

	<script>
		let theStormTrooper = document.querySelector("#storm_trooper");

		function logMyId() {
		console.log("clicked on an element:", this.id); }

		theStormTrooper.addEventListener("click", logMyId);
	</script>
</defs>

<path id="blanco" class="st0" d="M848,587c0,47.9-54.8,107-78.1,130.1c-2.9,31.2-17.6,113.9-90.5,140.6C638,872.6,597,881,563.2,881
	c-1,0-2.1,0-3.1,0c-44.8-0.7-70-15.7-84.6-32.6c-9.3,1-21.2,1.2-35-0.2c-13.8,1.7-25.7,1.2-35,0.2c-14.5,16.9-39.8,31.9-84.6,32.6
	c-34.3,0.5-76.5-7.6-119.1-23.3c-72.9-26.7-87.4-109.4-90.5-140.6C88,694,33.2,634.9,33.2,587c0-25.5,13.8-54.8,41.2-86.7
	c9.5-11,18.8-20.5,26-27.2c-2.1-14.5-4.8-38.4-4.8-68.9c0-45.3,28.1-79.8,43.4-95.3c2.6-18.8,12.2-39.8,18.8-52.9
	c1.7-88.2,33.8-155.6,96-200.1c49.8-35.7,108.9-49.1,152-53.6c2.4-1,4.8-1.4,7.4-1.7c1.2,0,11.2-1,27.4-0.5
	C456.8-0.1,467,0.6,468,0.6c2.6,0.2,5,0.7,7.4,1.7c43.1,4.5,102.2,17.6,152,53.6c62.2,44.8,94.4,112,96,200.1
	c6.7,13.1,16.2,34.1,18.8,52.9c15.2,15.5,43.4,50.3,43.4,95.3c0,30.3-2.6,54.3-4.8,68.9c7.1,6.7,16.4,16.2,26,27.2
	C834.2,532.2,848,561.3,848,587z"/>
<path id="negro" d="M208.6,581.8c-7.1,2.6-27.2,11.4-31.9,19.8c-0.4,0.8-1.4,1.1-2.1,1.1c-0.5,0-0.7,0-1.2-0.2
	c-1.2-0.7-1.7-2.1-1-3.3c6.7-11.7,33.4-21.7,34.5-21.9c1.2-0.5,2.6,0.2,3.1,1.4S209.8,581.3,208.6,581.8z M201.1,574.6
	c1.2-0.5,1.9-1.9,1.4-3.1s-1.9-1.9-3.1-1.4c-1,0.4-27.2,10-34.1,22.6c-0.7,1.2-0.2,2.6,1,3.3c0.5,0.2,0.7,0.2,1.2,0.2
	c0.7,0,1.6-0.4,1.9-1.1C175.6,584.1,200.9,574.6,201.1,574.6z M217.4,585.8c-0.5-1.2-1.9-1.9-3.1-1.4c-1.2,0.4-28.4,10.4-34.8,21.4
	c-0.4,1.2-0.2,2.6,1,3.3c0.5,0.2,0.7,0.2,1.2,0.2c0.8,0,1.7-0.4,2.1-1.1c4.6-7.9,24.8-16.7,32.2-19.3
	C217.2,588.4,217.9,587,217.4,585.8z M414.6,507.8c7.9-1.7,17.4-3.3,26.4-4.1c8.6,0.8,18.1,2.5,25.9,4.1c21,7.1,46.5,21.9,58.6,30.5
	C542,550,605.4,575,605.4,575s-61.9-49.8-94.1-75.1c-23.3-18.3-40.7-33.4-55.3-40.3c-4.3-2.4-9.3-4.1-15-4.1h-0.2h-0.2
	c-5.7,0-10.7,1.7-15,4.1c-14.5,6.9-32.2,21.9-55.3,40.3c-31.9,25.3-94.1,75.1-94.1,75.1s63.4-25.3,79.8-36.7
	C368.2,529.7,393.6,515,414.6,507.8z M229.4,598.6c-2.9,0.9-29.6,10.7-35.3,20c-0.7,1.2-0.5,2.6,0.7,3.3c0.2,0.5,0.7,0.5,1.2,0.5
	c1,0,1.7-0.2,2.2-1.2c4.1-6.7,25.3-15.2,32.9-18.1c1.2-0.5,1.9-1.9,1.4-3.1S230.6,598.1,229.4,598.6z M193.4,567.5
	c1.2-0.5,1.9-1.9,1.4-3.1s-1.9-1.9-3.1-1.4c-0.9,0.2-26.4,9.8-33.8,23.1c-0.7,1.2-0.2,2.6,1,3.3c0.5,0.2,0.7,0.2,1.2,0.2
	c0.9,0,1.6-0.5,2.1-1.1C168.6,576.8,193.2,567.5,193.4,567.5z M198.9,490.9c1.2,0,2.4-0.9,2.3-1.9c0.8-30,12.2-65.3,12.2-65.5
	c0.5-1.4-0.2-2.6-1.4-3.1c-1.4-0.5-2.6,0.2-3.1,1.4c-0.2,0.2-11.7,36-12.4,66.7C196.5,489.7,197.5,490.9,198.9,490.9z M636.9,751.4
	c0,19.3-21,51.2-66,51.2s-56.7-35.3-64.8-36.7s-19.8,4.1-27.9,19.1c-5.5,9.8-20.5,13.4-30.3,14.8c-1.9,0.5-4.3,0.7-6.9,0.7
	c0,0-0.2,0-0.7,0s-0.7,0-0.7,0c-34.1,0-42.9-15-42.9-15s0-3.6-0.2-9.3c-7.1-8.4-15.5-11.5-21.9-10.5c-8.3,1.2-19.8,36.7-64.8,36.7
	c-44.8,0-66-32.1-66-51.2s22.6-56.5,54.6-56.5s37.4,19.8,62.7,19.8c16.2,0,27.9-12.1,34.1-25c0-5,0-9.5,0.2-13.1
	c0.5-12.9,8.6-24.1,18.1-32.4c8.1-8.6,17.9-14.8,24.3-14.8c0.7,0,1.4,0,2.4,0.2c1.2-0.2,2.2-0.2,2.9-0.2c12.3,0,37.6,22.9,37.6,39.3
	s14.3,45.7,39.6,45.7s30.8-19.8,62.7-19.8S637.3,731.8,636.9,751.4z M329.5,731.8c0-18.8-12.2-34.1-27.2-34.1s-27.2,15.3-27.2,34.1
	s12.2,34.1,27.2,34.1S329.5,750.6,329.5,731.8z M491.2,727.7c-0.2-15.2-5.7-14.5-9.2-16.4c-3.6-1.9-13.3-18.1-13.3-34.3
	c0-13.6-14.8-22.6-23.8-25c-1.2-0.5-2.4-0.7-3.8-0.7h-0.2h-0.2c-1.4,0-2.9,0.2-4.1,0.7c-9.3,2.6-23.8,11.4-23.8,25
	c0,16.2-9.8,32.2-13.3,34.3c-3.6,1.9-9.3,1.2-9.3,16.4s0.5,26.2,4.5,28.1c1.7,0.7,4.5,2.4,7.6,4.3c2.1,4.3,6.9,10.5,14.3,15.2
	c2.6,3.1,7.6,5.7,18.6,6.4c0.2,0,0.5,0,1,0c0.7,0,1.4,0,2.1,0c0.5,0,1,0,1.4,0c0.5,0,0.7,0,1,0c0.2,0,0.7,0,1,0c0.5,0,1,0,1.4,0
	c0.7,0,1.4,0,2.1,0c0.2,0,0.5,0,1,0c11-0.7,16-3.3,18.6-6.4c7.4-4.8,12.2-11,14.3-15.2c3.1-1.9,6-3.3,7.6-4.3
	C490.8,753.9,491.2,742.9,491.2,727.7z M605.9,731.8c0-18.8-12.2-34.1-27.2-34.1s-27.2,15.3-27.2,34.1s12.2,34.1,27.2,34.1
	S605.9,750.6,605.9,731.8z M208.4,505.9c1.2,0,2.4-0.9,2.7-2.5c0-10.5,11.4-60.3,11.4-60.8c0.2-1.2-0.7-2.7-1.9-2.9
	c-1.2-0.2-2.7,0.7-2.9,1.9c-0.5,2.1-11.7,50.9-11.7,61.9C206,504.7,207,505.9,208.4,505.9z M190.1,480.2c1.4-0.2,2.4-1.2,2.4-2.6
	c-1.4-27.4,8.8-81.5,8.8-82c0.2-1.5-0.7-2.7-1.9-2.9c-1.5-0.2-2.7,0.7-2.9,1.9c-0.2,2.4-10.2,55.3-8.8,83.2
	C187.7,479.2,188.9,480.2,190.1,480.2z M178.7,553c1.2-0.5,1.9-1.9,1.4-3.1s-1.9-1.8-3.1-1.4s-25.5,9.7-33.4,24.5
	c-0.7,1.2-0.2,2.6,1,3.3c0.5,0.2,0.7,0.2,1.2,0.2c0.9,0,1.6-0.5,2.2-1.3C155.1,562.1,178.5,553,178.7,553z M186,560.3
	c1.2-0.5,1.9-1.9,1.4-3.1s-1.9-1.9-3.1-1.4c-1.2,0.5-26,9.7-33.6,23.8c-0.7,1.2-0.2,2.6,1,3.3c0.5,0.2,0.7,0.2,1.2,0.2
	c1,0,1.7-0.4,2.1-1.1C161.7,569.4,185.8,560.3,186,560.3z M163.6,538.7c1.2-0.5,1.9-1.9,1.4-3.1s-1.9-1.9-3.1-1.4
	c-0.9,0.4-24,9.5-32.6,25.7c-0.7,1.2-0.2,2.6,1,3.3c0.5,0.2,0.7,0.2,1.2,0.2c0.7,0,1.6-0.5,2.1-1.4
	C141.2,547.5,163.4,538.7,163.6,538.7z M171,545.8c1.2-0.5,1.9-1.9,1.4-3.1s-1.9-1.9-3.1-1.4c-1,0.2-24.8,9.5-32.9,25
	c-0.7,1.2-0.2,2.6,1,3.3c0.5,0.2,0.7,0.2,1.2,0.2c0.7,0,1.7-0.5,2.1-1.1C147.9,554.6,170.8,545.8,171,545.8z M225.1,593.2
	c-0.5-1.2-1.9-1.9-3.1-1.4c-2.8,0.9-29,10.7-35,20.7c-0.7,1.2-0.5,2.6,0.7,3.3c0.2,0.2,0.7,0.2,1.2,0.2c1,0,1.7-0.5,2.2-1.1
	c4.5-7.2,25-16,32.6-18.6C224.9,595.8,225.6,594.4,225.1,593.2z M689.3,562.9c-1.2-0.5-2.6,0.2-3.1,1.4s0.2,2.6,1.4,3.1
	c0.2,0,24.8,9.3,31.2,21c0.4,0.7,1.1,1.2,2.1,1.2c0.5,0,0.7,0,1.2-0.3c1.2-0.7,1.7-2.1,1-3.3C715.7,572.9,690.5,563.4,689.3,562.9z
	 M696.7,555.7c-1.2-0.5-2.6,0.2-3.1,1.4s0.2,2.6,1.4,3.1c0.3,0.3,24.3,9.3,31,21.7c0.4,0.7,1.1,1.2,2.1,1.2c0.5,0,0.9-0.2,1.2-0.3
	c1.2-0.7,1.7-2.1,1-3.3C722.7,565.5,697.7,556.2,696.7,555.7z M688.7,477.6c0,1.4,1,2.6,2.4,2.6c1.2,0,2.4-1.2,2.4-2.4
	c1.4-28.2-8.3-81.1-8.8-83.2c-0.3-1.2-1.7-2.1-2.9-1.9c-1.2,0.3-2.1,1.7-1.9,2.9C679.9,396.1,690.1,450.2,688.7,477.6z M704.1,548.6
	c-1.2-0.5-2.6,0.2-3.1,1.4s0.2,2.6,1.4,3.1c0.2,0,23.6,9.1,30.7,22.2c0.4,0.7,1.1,1.2,2.1,1.2c0.5,0,1-0.3,1.3-0.1
	c1.2-0.7,1.7-2.1,1-3.3C729.4,558.4,705.1,549.1,704.1,548.6z M711.7,541.2c-1.2-0.5-2.6,0.2-3.1,1.4s0.2,2.6,1.4,3.1
	c0.2,0.3,23.1,9.1,30.5,22.9c0.4,0.7,1.1,1.2,2.1,1.2c0.3,0,0.7,0,1-0.3c1.2-0.7,1.7-2.1,1-3.3C736.5,550.7,712.7,541.7,711.7,541.2
	z M674.3,577.2c-1.2-0.5-2.6,0.2-3.1,1.4s0.2,2.6,1.4,3.1c7.1,2.6,27.1,11.2,31.9,19.8c0.4,0.7,1.1,1.2,2.1,1.2c0.3,0,0.8,0,1.2-0.3
	c1.2-0.7,1.7-2.1,1-3.3C701.9,587.4,675.5,577.7,674.3,577.2z M848,587c0,47.9-54.8,107-78.1,130.1c-2.9,31.2-17.6,113.9-90.5,140.6
	C638,872.6,597,881,563.2,881c-1,0-2.1,0-3.1,0c-44.8-0.7-70-15.7-84.6-32.6c-9.3,1-21.2,1.2-35-0.2c-13.8,1.7-25.7,1.2-35,0.2
	c-14.5,16.9-39.8,31.9-84.6,32.6c-34.3,0.5-76.5-7.6-119.1-23.3c-72.9-26.7-87.4-109.4-90.5-140.6C88,694,33.2,634.9,33.2,587
	c0-25.5,13.8-54.8,41.2-86.7c9.5-11,18.8-20.5,26-27.2c-2.1-14.5-4.8-38.4-4.8-68.9c0-45.3,28.1-79.8,43.4-95.3
	c2.6-18.8,12.2-39.8,18.8-52.9c1.7-88.2,33.8-155.6,96-200.1c49.8-35.7,108.9-49.1,152-53.6c2.4-1,4.8-1.4,7.4-1.7
	c1.2,0,11.2-1,27.4-0.5C456.8-0.1,467,0.6,468,0.6c2.6,0.2,5,0.7,7.4,1.7c43.1,4.5,102.2,17.6,152,53.6c62.2,44.8,94.4,112,96,200.1
	c6.7,13.1,16.2,34.1,18.8,52.9c15.2,15.5,43.4,50.3,43.4,95.3c0,30.3-2.6,54.3-4.8,68.9c7.1,6.7,16.4,16.2,26,27.2
	C834.2,532.2,848,561.3,848,587z M190.9,267.2c123.6-14.6,194.3-10,249.6-9.8c55.3-0.2,126-4.7,249.7,9.8c0,0,0,0.1,0.1,0.2
	c0-183.9-145.6-221.8-224.7-228.7l-0.2-1c0,0-9.3-0.7-24.8-0.5c-15.2-0.2-24.8,0.5-24.8,0.5l-0.2,1C336.5,45.6,191,83.5,190.9,267.2
	z M812,583.6c0-44.5-67.7-101.5-67.7-101.5s6.7-29.8,6.7-77c0-47.4-41.9-81-41.9-81c0-0.1,0-0.2,0-0.3c-3.4-0.7-25.7-5.4-63.2-10.6
	c2.9,10.5,2.4,23.6,2.4,36.7c0,19.7-17.6,45.7-27.9,45.7s-56.7-23.4-69.6-31.5c-12.9-8.1-58.6-38.1-58.6-51.7
	c0-5.7,5.1-9.8,11.4-12.1c-19.8-0.9-40.8-1.6-62.8-1.9c-22.1,0.3-43.1,1-63,2c6,2.3,11.2,6.4,11.2,12c0,13.6-45.7,43.6-58.6,51.7
	s-59.3,31.5-69.6,31.5c-10.3,0-27.9-26-27.9-45.7c0-13-0.5-26,2.3-36.5c-39.3,5.4-61.8,10.2-63.2,10.5c0,0.1,0,0.1,0,0.2
	c0,0-41.9,33.8-41.9,81c0,47.4,6.7,77,6.7,77s-67.7,56.7-67.7,101.5S145,698.4,145,698.4s1.4,98.6,71.7,124.4
	c70.3,25.7,155.3,35.3,177-13.6c0,0,18.1,6.2,46.9,2.1c28.8,4.1,46.9-2.1,46.9-2.1c21.7,48.6,106.7,39.3,177,13.6
	s71.7-124.4,71.7-124.4S812,628.1,812,583.6z M719.4,534.4c-1.2-0.5-2.6,0.2-3.1,1.4s0.2,2.6,1.4,3.1c0.2,0,22.4,8.5,30,23.3
	c0.4,0.7,1.1,1.2,2.1,1.2c0.2,0,0.7-0.3,1.2,0c1.2-0.7,1.7-2.1,1-3.3C743.5,543.7,720.4,534.9,719.4,534.4z M681.7,570
	c-1.2-0.5-2.6,0.2-3.1,1.4s0.2,2.6,1.4,3.1c0.2,0.2,25.5,9.5,31.7,20.5c0.4,0.7,1.1,1.2,2.1,1.2c0.5,0,0.7-0.2,1-0.3
	c1.2-0.7,1.7-2.1,1-3.3C708.9,580,682.9,570.5,681.7,570z M670.4,503.5c0,1.2,1,2.4,2.4,2.4c1.2,0,2.4-0.9,2.7-2.3
	c0-11.2-11.2-59.8-11.7-61.9c-0.3-1.4-1.5-2.1-2.9-1.9c-1.4,0.3-2.1,1.7-1.9,2.9C659,443.2,670.4,493,670.4,503.5z M679.9,488.5
	c0,1.4,1.2,2.4,2.4,2.4s2.4-0.9,2.3-2.9c-0.7-30.5-12.4-66.2-12.4-66.7c-0.5-1.2-1.9-1.9-3.1-1.4s-1.9,1.9-1.4,3.1
	C667.7,423.5,679.2,458.5,679.9,488.5z M651.7,598.6c-1.2-0.5-2.6,0.2-3.1,1.4s0.2,2.6,1.4,3.1c7.9,2.9,28.8,11.4,32.9,18.1
	c0.4,0.7,1.4,1.2,2.1,1.2c0.4,0,0.9,0,1.3-0.5c0.9-0.7,1.4-2.1,0.7-3.3C681.2,609.3,654.8,599.8,651.7,598.6z M666.7,584.3
	c-1.2-0.5-2.6,0.2-3.1,1.4s0.2,2.6,1.4,3.1c7.4,2.6,27.7,11.4,32.2,19.3c0.4,0.7,1.4,1.2,2.1,1.2c0.4,0,0.9,0,1.2-0.3
	c1.2-0.7,1.7-2.1,1-3.3C695.1,594.5,667.9,584.8,666.7,584.3z M659.1,591.7c-1.2-0.5-2.6,0.2-3.1,1.4s0.2,2.6,1.4,3.1
	c7.6,2.6,28.3,11.2,32.6,18.6c0.4,0.7,1.4,1.2,2.1,1.2c0.5,0,1-0.2,1.3-0.3c0.9-0.7,1.4-2.1,0.7-3.3
	C688.2,602.4,662,592.7,659.1,591.7z"/>
</svg>
